SplineFontDB: 3.0
FontName: Carthage-Sans-Oblique
FullName: Carthage Sans Oblique
FamilyName: Carthage Sans
Weight: Book
Copyright: Copyright Brian Connors 2015\ndual licensed under CC-BY-SA 4.0 and SIL OFL; see license.txt for details
Version: 1.0
ItalicAngle: 0
UnderlinePosition: 127
UnderlineWidth: 51
Ascent: 819
Descent: 205
InvalidEm: 0
sfntRevision: 0x00010000
LayerCount: 2
Layer: 0 1 "Back" 1
Layer: 1 1 "Fore" 0
XUID: [1021 273 464692840 16164127]
FSType: 4
OS2Version: 2
OS2_WeightWidthSlopeOnly: 0
OS2_UseTypoMetrics: 1
CreationTime: 1438396096
ModificationTime: 1439921608
PfmFamily: 81
TTFWeight: 400
TTFWidth: 5
LineGap: 0
VLineGap: 0
Panose: 0 0 4 0 0 0 0 0 0 0
OS2TypoAscent: 576
OS2TypoAOffset: 0
OS2TypoDescent: -192
OS2TypoDOffset: 0
OS2TypoLinegap: 0
OS2WinAscent: 832
OS2WinAOffset: 0
OS2WinDescent: 192
OS2WinDOffset: 0
HheadAscent: 832
HheadAOffset: 0
HheadDescent: -192
HheadDOffset: 0
OS2SubXSize: 512
OS2SubYSize: 512
OS2SubXOff: 0
OS2SubYOff: -96
OS2SupXSize: 512
OS2SupYSize: 512
OS2SupXOff: 0
OS2SupYOff: 512
OS2StrikeYSize: 51
OS2StrikeYPos: 204
OS2CapHeight: 0
OS2XHeight: 0
OS2Vendor: 'FSTR'
OS2CodePages: 000001fb.00000000
OS2UnicodeRanges: a000000f.4000000a.00000000.00000000
MacStyle: 2
MarkAttachClasses: 1
DEI: 91125
ShortTable: maxp 16
  1
  0
  219
  63
  12
  0
  0
  2
  0
  0
  0
  0
  0
  0
  0
  0
EndShort

StartChar: .notdef
Encoding: 65536 -1 0
Width: 192
Flags: W
LayerCount: 2
Back
Fore
SplineSet
306.700195312 81 m 1,0,-1
 327.940429688 173 l 1,1,-1
 235.940429688 173 l 1,2,-1
 214.700195312 81 l 1,3,-1
 306.700195312 81 l 1,0,-1
422.403320312 188 m 1,4,-1
 443.643554688 280 l 1,5,-1
 260.643554688 280 l 1,6,-1
 239.403320312 188 l 1,7,-1
 422.403320312 188 l 1,4,-1
356.106445312 295 m 1,8,-1
 377.345703125 387 l 1,9,-1
 285.345703125 387 l 1,10,-1
 264.106445312 295 l 1,11,-1
 356.106445312 295 l 1,8,-1
471.80859375 402 m 1,12,-1
 492.818359375 493 l 1,13,-1
 401.818359375 493 l 2,14,15
 362.818359375 493 362.818359375 493 330.815429688 467 c 0,16,17
 297.58203125 440 297.58203125 440 288.80859375 402 c 1,18,-1
 471.80859375 402 l 1,12,-1
0 0 m 1,19,-1
 132.98046875 576 l 1,20,-1
 708.98046875 576 l 1,21,-1
 576 0 l 1,22,-1
 0 0 l 1,19,-1
EndSplineSet
Validated: 1
EndChar

StartChar: exclam
Encoding: 33 33 4
Width: 192
Flags: W
LayerCount: 2
Back
Fore
SplineSet
0 0 m 1,0,-1
 29.55078125 128 l 1,1,-1
 93.55078125 128 l 1,2,-1
 64 0 l 1,3,-1
 0 0 l 1,0,-1
44.3271484375 192 m 1,4,-1
 132.98046875 576 l 1,5,-1
 196.98046875 576 l 1,6,-1
 108.327148438 192 l 1,7,-1
 44.3271484375 192 l 1,4,-1
EndSplineSet
Validated: 1
EndChar

StartChar: quotedbl
Encoding: 34 34 5
Width: 320
Flags: W
LayerCount: 2
Back
Fore
SplineSet
103.428710938 448 m 1,0,-1
 132.98046875 576 l 1,1,-1
 196.98046875 576 l 1,2,-1
 167.428710938 448 l 1,3,-1
 103.428710938 448 l 1,0,-1
231.428710938 448 m 1,4,-1
 260.98046875 576 l 1,5,-1
 324.98046875 576 l 1,6,-1
 295.428710938 448 l 1,7,-1
 231.428710938 448 l 1,4,-1
EndSplineSet
Validated: 1
EndChar

StartChar: numbersign
Encoding: 35 35 6
Width: 576
Flags: W
LayerCount: 2
Back
Fore
SplineSet
329.877929688 320 m 1,0,-1
 344.653320312 384 l 1,1,-1
 280.653320312 384 l 1,2,-1
 265.877929688 320 l 1,3,-1
 329.877929688 320 l 1,0,-1
157.55078125 128 m 1,4,-1
 187.102539062 256 l 1,5,-1
 59.1025390625 256 l 1,6,-1
 73.8779296875 320 l 1,7,-1
 201.877929688 320 l 1,8,-1
 216.653320312 384 l 1,9,-1
 88.6533203125 384 l 1,10,-1
 103.428710938 448 l 1,11,-1
 231.428710938 448 l 1,12,-1
 260.98046875 576 l 1,13,-1
 324.98046875 576 l 1,14,-1
 295.428710938 448 l 1,15,-1
 359.428710938 448 l 1,16,-1
 388.98046875 576 l 1,17,-1
 452.98046875 576 l 1,18,-1
 423.428710938 448 l 1,19,-1
 551.428710938 448 l 1,20,-1
 536.653320312 384 l 1,21,-1
 408.653320312 384 l 1,22,-1
 393.877929688 320 l 1,23,-1
 521.877929688 320 l 1,24,-1
 507.102539062 256 l 1,25,-1
 379.102539062 256 l 1,26,-1
 349.55078125 128 l 1,27,-1
 285.55078125 128 l 1,28,-1
 315.102539062 256 l 1,29,-1
 251.102539062 256 l 1,30,-1
 221.55078125 128 l 1,31,-1
 157.55078125 128 l 1,4,-1
EndSplineSet
Validated: 1
EndChar

StartChar: dollar
Encoding: 36 36 7
Width: 448
Flags: W
LayerCount: 2
Back
Fore
SplineSet
253.55078125 128 m 1,0,-1
 292.938476562 160 l 1,1,-1
 307.71484375 224 l 1,2,-1
 251.102539062 256 l 1,3,-1
 221.55078125 128 l 1,4,-1
 253.55078125 128 l 1,0,-1
209.265625 352 m 1,5,-1
 231.428710938 448 l 1,6,-1
 199.428710938 448 l 1,7,-1
 160.041015625 416 l 1,8,-1
 152.653320312 384 l 1,9,-1
 209.265625 352 l 1,10,-1
 209.265625 352 l 1,5,-1
128 0 m 1,11,-1
 142.775390625 64 l 1,12,-1
 14.775390625 64 l 1,13,-1
 29.55078125 128 l 1,14,-1
 157.55078125 128 l 1,15,-1
 194.490234375 288 l 1,16,-1
 137.877929688 320 l 1,17,-1
 88.6533203125 384 l 1,18,-1
 103.428710938 448 l 1,19,-1
 182.204101562 512 l 1,20,-1
 246.204101562 512 l 1,21,-1
 260.98046875 576 l 1,22,-1
 324.98046875 576 l 1,23,-1
 310.204101562 512 l 1,24,-1
 438.204101562 512 l 1,25,-1
 423.428710938 448 l 1,26,-1
 295.428710938 448 l 1,27,-1
 265.877929688 320 l 1,28,-1
 322.490234375 288 l 1,29,-1
 371.71484375 224 l 1,30,-1
 349.55078125 128 l 1,31,-1
 270.775390625 64 l 1,32,-1
 206.775390625 64 l 1,33,-1
 192 0 l 1,34,-1
 128 0 l 1,11,-1
EndSplineSet
Validated: 5
EndChar

StartChar: percent
Encoding: 37 37 8
Width: 512
Flags: W
LayerCount: 2
Back
Fore
SplineSet
334.775390625 64 m 1,0,-1
 349.55078125 128 l 1,1,-1
 285.55078125 128 l 1,2,-1
 270.775390625 64 l 1,3,-1
 334.775390625 64 l 1,0,-1
256 0 m 1,4,-1
 206.775390625 64 l 1,5,-1
 221.55078125 128 l 1,6,-1
 300.327148438 192 l 1,7,-1
 364.327148438 192 l 1,8,-1
 413.55078125 128 l 1,9,-1
 398.775390625 64 l 1,10,-1
 320 0 l 1,11,-1
 256 0 l 1,4,-1
231.428710938 448 m 1,12,-1
 246.204101562 512 l 1,13,-1
 182.204101562 512 l 1,14,-1
 167.428710938 448 l 1,15,-1
 231.428710938 448 l 1,12,-1
152.653320312 384 m 1,16,-1
 103.428710938 448 l 1,17,-1
 118.204101562 512 l 1,18,-1
 196.98046875 576 l 1,19,-1
 260.98046875 576 l 1,20,-1
 310.204101562 512 l 1,21,-1
 295.428710938 448 l 1,22,-1
 216.653320312 384 l 1,23,-1
 152.653320312 384 l 1,16,-1
32 0 m 1,24,-1
 452.98046875 576 l 1,25,-1
 516.98046875 576 l 1,26,-1
 96 0 l 1,27,-1
 32 0 l 1,24,-1
EndSplineSet
Validated: 1
EndChar

StartChar: ampersand
Encoding: 38 38 9
Width: 640
Flags: W
LayerCount: 2
Back
Fore
SplineSet
206.775390625 64 m 1,0,-1
 344.6328125 176 l 1,1,-1
 307.71484375 224 l 1,2,-1
 251.102539062 256 l 1,3,-1
 108.327148438 192 l 1,4,-1
 93.55078125 128 l 1,5,-1
 104.624023438 85 l 1,6,-1
 142.775390625 64 l 1,7,-1
 206.775390625 64 l 1,0,-1
265.877929688 320 m 1,8,-1
 423.428710938 448 l 1,9,-1
 411.125 490 l 1,10,-1
 374.204101562 512 l 1,11,-1
 310.204101562 512 l 1,12,-1
 262.125 490 l 1,13,-1
 231.428710938 448 l 1,14,-1
 216.653320312 384 l 1,15,-1
 265.877929688 320 l 1,16,-1
 265.877929688 320 l 1,8,-1
128 0 m 1,17,-1
 71.3876953125 32 l 1,18,-1
 46.775390625 64 l 1,19,-1
 29.55078125 128 l 1,20,-1
 44.3271484375 192 l 1,21,-1
 201.877929688 320 l 1,22,-1
 152.653320312 384 l 1,23,-1
 167.428710938 448 l 1,24,-1
 214.204101562 512 l 1,25,-1
 253.592773438 544 l 1,26,-1
 324.98046875 576 l 1,27,-1
 388.98046875 576 l 1,28,-1
 445.592773438 544 l 1,29,-1
 470.204101562 512 l 1,30,-1
 487.428710938 448 l 1,31,-1
 329.877929688 320 l 1,32,-1
 379.102539062 256 l 1,33,-1
 378.87109375 255 l 1,34,-1
 403.71484375 224 l 1,35,-1
 521.877929688 320 l 1,36,-1
 585.877929688 320 l 1,37,-1
 578.490234375 288 l 1,38,-1
 440.6328125 176 l 1,39,-1
 526.775390625 64 l 1,40,-1
 512 0 l 1,41,-1
 480 0 l 1,42,-1
 381.55078125 128 l 1,43,-1
 263.387695312 32 l 1,44,-1
 192 0 l 1,45,-1
 128 0 l 1,17,-1
EndSplineSet
Validated: 5
EndChar

StartChar: quotesingle
Encoding: 39 39 10
Width: 192
Flags: W
LayerCount: 2
Back
Fore
SplineSet
103.428710938 448 m 1,0,-1
 132.98046875 576 l 1,1,-1
 196.98046875 576 l 1,2,-1
 167.428710938 448 l 1,3,-1
 103.428710938 448 l 1,0,-1
EndSplineSet
Validated: 1
EndChar

StartChar: parenleft
Encoding: 40 40 11
Width: 320
Flags: W
LayerCount: 2
Back
Fore
SplineSet
145.224609375 -64 m 1,0,-1
 96 0 l 1,1,-1
 44.3271484375 192 l 1,2,-1
 88.6533203125 384 l 1,3,-1
 228.98046875 576 l 1,4,-1
 307.755859375 640 l 1,5,-1
 339.755859375 640 l 1,6,-1
 324.98046875 576 l 1,7,-1
 292.98046875 576 l 1,8,-1
 152.653320312 384 l 1,9,-1
 108.327148438 192 l 1,10,-1
 160 0 l 1,11,-1
 192 0 l 1,12,-1
 177.224609375 -64 l 1,13,-1
 145.224609375 -64 l 1,0,-1
EndSplineSet
Validated: 1
EndChar

StartChar: parenright
Encoding: 41 41 12
Width: 320
Flags: W
LayerCount: 2
Back
Fore
SplineSet
-14.775390625 -64 m 1,0,-1
 0 0 l 1,1,-1
 32 0 l 1,2,-1
 172.327148438 192 l 1,3,-1
 216.653320312 384 l 1,4,-1
 164.98046875 576 l 1,5,-1
 132.98046875 576 l 1,6,-1
 147.755859375 640 l 1,7,-1
 179.755859375 640 l 1,8,-1
 228.98046875 576 l 1,9,-1
 280.653320312 384 l 1,10,-1
 236.327148438 192 l 1,11,-1
 96 0 l 1,12,-1
 17.224609375 -64 l 1,13,-1
 -14.775390625 -64 l 1,0,-1
EndSplineSet
Validated: 1
EndChar

StartChar: asterisk
Encoding: 42 42 13
Width: 448
Flags: W
LayerCount: 2
Back
Fore
SplineSet
172.327148438 192 m 1,0,-1
 201.877929688 320 l 1,1,-1
 59.1025390625 256 l 1,2,-1
 73.8779296875 320 l 1,3,-1
 216.653320312 384 l 1,4,-1
 103.428710938 448 l 1,5,-1
 118.204101562 512 l 1,6,-1
 231.428710938 448 l 1,7,-1
 260.98046875 576 l 1,8,-1
 324.98046875 576 l 1,9,-1
 295.428710938 448 l 1,10,-1
 438.204101562 512 l 1,11,-1
 423.428710938 448 l 1,12,-1
 280.653320312 384 l 1,13,-1
 393.877929688 320 l 1,14,-1
 379.102539062 256 l 1,15,-1
 265.877929688 320 l 1,16,-1
 236.327148438 192 l 1,17,-1
 172.327148438 192 l 1,0,-1
EndSplineSet
Validated: 1
EndChar

StartChar: plus
Encoding: 43 43 14
Width: 576
Flags: W
LayerCount: 2
Back
Fore
SplineSet
221.55078125 128 m 1,0,-1
 265.877929688 320 l 1,1,-1
 73.8779296875 320 l 1,2,-1
 88.6533203125 384 l 1,3,-1
 280.653320312 384 l 1,4,-1
 324.98046875 576 l 1,5,-1
 388.98046875 576 l 1,6,-1
 344.653320312 384 l 1,7,-1
 536.653320312 384 l 1,8,-1
 521.877929688 320 l 1,9,-1
 329.877929688 320 l 1,10,-1
 285.55078125 128 l 1,11,-1
 221.55078125 128 l 1,0,-1
EndSplineSet
Validated: 1
EndChar

StartChar: comma
Encoding: 44 44 15
Width: 256
Flags: W
LayerCount: 2
Back
Fore
SplineSet
17.224609375 -64 m 1,0,-1
 64 0 l 1,1,-1
 93.55078125 128 l 1,2,-1
 157.55078125 128 l 1,3,-1
 128 0 l 1,4,-1
 49.224609375 -64 l 1,5,-1
 17.224609375 -64 l 1,0,-1
EndSplineSet
Validated: 1
EndChar

StartChar: hyphen
Encoding: 45 45 16
Width: 512
Flags: W
LayerCount: 2
Back
Fore
SplineSet
137.877929688 320 m 1,0,-1
 152.653320312 384 l 1,1,-1
 472.653320312 384 l 1,2,-1
 457.877929688 320 l 1,3,-1
 137.877929688 320 l 1,0,-1
EndSplineSet
Validated: 1
EndChar

StartChar: period
Encoding: 46 46 17
Width: 192
Flags: W
LayerCount: 2
Back
Fore
SplineSet
0 0 m 1,0,-1
 29.55078125 128 l 1,1,-1
 93.55078125 128 l 1,2,-1
 64 0 l 1,3,-1
 0 0 l 1,0,-1
EndSplineSet
Validated: 1
EndChar

StartChar: slash
Encoding: 47 47 18
Width: 448
Flags: W
LayerCount: 2
Back
Fore
SplineSet
0 0 m 1,0,-1
 14.775390625 64 l 1,1,-1
 388.98046875 576 l 1,2,-1
 452.98046875 576 l 1,3,-1
 32 0 l 1,4,-1
 0 0 l 1,0,-1
EndSplineSet
Validated: 1
EndChar

StartChar: zero
Encoding: 48 48 19
Width: 512
Flags: W
LayerCount: 2
Back
Fore
SplineSet
270.775390625 64 m 1,0,-1
 317.624023438 85 l 1,1,-1
 349.55078125 128 l 1,2,-1
 423.428710938 448 l 1,3,-1
 411.125 490 l 1,4,-1
 374.204101562 512 l 1,5,-1
 246.204101562 512 l 1,6,-1
 198.125 490 l 1,7,-1
 167.428710938 448 l 1,8,-1
 93.55078125 128 l 1,9,-1
 104.624023438 85 l 1,10,-1
 142.775390625 64 l 1,11,-1
 270.775390625 64 l 1,0,-1
128 0 m 1,12,-1
 71.3876953125 32 l 1,13,-1
 46.775390625 64 l 1,14,-1
 29.55078125 128 l 1,15,-1
 103.428710938 448 l 1,16,-1
 150.204101562 512 l 1,17,-1
 189.592773438 544 l 1,18,-1
 260.98046875 576 l 1,19,-1
 388.98046875 576 l 1,20,-1
 445.592773438 544 l 1,21,-1
 470.204101562 512 l 1,22,-1
 487.428710938 448 l 1,23,-1
 413.55078125 128 l 1,24,-1
 366.775390625 64 l 1,25,-1
 327.387695312 32 l 1,26,-1
 256 0 l 1,27,-1
 128 0 l 1,12,-1
EndSplineSet
Validated: 1
EndChar

StartChar: one
Encoding: 49 49 20
Width: 320
Flags: W
LayerCount: 2
Back
Fore
SplineSet
128 0 m 1,0,-1
 238.81640625 480 l 1,1,-1
 96.041015625 416 l 1,2,-1
 110.81640625 480 l 1,3,-1
 324.98046875 576 l 1,4,-1
 192 0 l 1,5,-1
 128 0 l 1,0,-1
EndSplineSet
Validated: 1
EndChar

StartChar: two
Encoding: 50 50 21
Width: 512
Flags: W
LayerCount: 2
Back
Fore
SplineSet
0 0 m 1,0,-1
 22.1630859375 96 l 1,1,-1
 416.041015625 416 l 1,2,-1
 423.428710938 448 l 1,3,-1
 411.125 490 l 1,4,-1
 374.204101562 512 l 1,5,-1
 246.204101562 512 l 1,6,-1
 198.125 490 l 1,7,-1
 167.428710938 448 l 1,8,-1
 103.428710938 448 l 1,9,-1
 150.204101562 512 l 1,10,-1
 189.592773438 544 l 1,11,-1
 260.98046875 576 l 1,12,-1
 388.98046875 576 l 1,13,-1
 445.592773438 544 l 1,14,-1
 470.204101562 512 l 1,15,-1
 487.428710938 448 l 1,16,-1
 472.653320312 384 l 1,17,-1
 78.775390625 64 l 1,18,-1
 398.775390625 64 l 1,19,-1
 384 0 l 1,20,-1
 0 0 l 1,0,-1
EndSplineSet
Validated: 1
EndChar

StartChar: three
Encoding: 51 51 22
Width: 512
Flags: W
LayerCount: 2
Back
Fore
SplineSet
128 0 m 1,0,-1
 71.3876953125 32 l 1,1,-1
 46.775390625 64 l 1,2,-1
 29.55078125 128 l 1,3,-1
 93.55078125 128 l 1,4,-1
 104.624023438 85 l 1,5,-1
 142.775390625 64 l 1,6,-1
 270.775390625 64 l 1,7,-1
 317.624023438 85 l 1,8,-1
 349.55078125 128 l 1,9,-1
 364.327148438 192 l 1,10,-1
 352.0234375 234 l 1,11,-1
 315.102539062 256 l 1,12,-1
 123.102539062 256 l 1,13,-1
 137.877929688 320 l 1,14,-1
 329.877929688 320 l 1,15,-1
 376.725585938 341 l 1,16,-1
 408.653320312 384 l 1,17,-1
 423.428710938 448 l 1,18,-1
 411.125 490 l 1,19,-1
 374.204101562 512 l 1,20,-1
 246.204101562 512 l 1,21,-1
 198.125 490 l 1,22,-1
 167.428710938 448 l 1,23,-1
 103.428710938 448 l 1,24,-1
 150.204101562 512 l 1,25,-1
 189.592773438 544 l 1,26,-1
 260.98046875 576 l 1,27,-1
 388.98046875 576 l 1,28,-1
 445.592773438 544 l 1,29,-1
 470.204101562 512 l 1,30,-1
 487.428710938 448 l 1,31,-1
 472.653320312 384 l 1,32,-1
 425.877929688 320 l 1,33,-1
 386.490234375 288 l 1,34,-1
 411.102539062 256 l 1,35,-1
 428.327148438 192 l 1,36,-1
 413.55078125 128 l 1,37,-1
 366.775390625 64 l 1,38,-1
 327.387695312 32 l 1,39,-1
 256 0 l 1,40,-1
 128 0 l 1,0,-1
EndSplineSet
Validated: 1
EndChar

StartChar: four
Encoding: 52 52 23
Width: 512
Flags: W
LayerCount: 2
Back
Fore
SplineSet
315.102539062 256 m 1,0,-1
 366.81640625 480 l 1,1,-1
 91.1025390625 256 l 1,2,-1
 315.102539062 256 l 1,0,-1
256 0 m 1,3,-1
 300.327148438 192 l 1,4,-1
 44.3271484375 192 l 1,5,-1
 73.8779296875 320 l 1,6,-1
 388.98046875 576 l 1,7,-1
 452.98046875 576 l 1,8,-1
 379.102539062 256 l 1,9,-1
 443.102539062 256 l 1,10,-1
 428.327148438 192 l 1,11,-1
 364.327148438 192 l 1,12,-1
 320 0 l 1,13,-1
 256 0 l 1,3,-1
EndSplineSet
Validated: 1
EndChar

StartChar: five
Encoding: 53 53 24
Width: 512
Flags: W
LayerCount: 2
Back
Fore
SplineSet
0 0 m 1,0,-1
 14.775390625 64 l 1,1,-1
 270.775390625 64 l 1,2,-1
 317.624023438 85 l 1,3,-1
 349.55078125 128 l 1,4,-1
 379.102539062 256 l 1,5,-1
 366.798828125 298 l 1,6,-1
 329.877929688 320 l 1,7,-1
 73.8779296875 320 l 1,8,-1
 132.98046875 576 l 1,9,-1
 452.98046875 576 l 1,10,-1
 438.204101562 512 l 1,11,-1
 182.204101562 512 l 1,12,-1
 152.653320312 384 l 1,13,-1
 344.653320312 384 l 1,14,-1
 401.265625 352 l 1,15,-1
 425.877929688 320 l 1,16,-1
 443.102539062 256 l 1,17,-1
 413.55078125 128 l 1,18,-1
 366.775390625 64 l 1,19,-1
 327.387695312 32 l 1,20,-1
 256 0 l 1,21,-1
 0 0 l 1,0,-1
EndSplineSet
Validated: 1
EndChar

StartChar: six
Encoding: 54 54 25
Width: 512
Flags: W
LayerCount: 2
Back
Fore
SplineSet
270.775390625 64 m 1,0,-1
 317.624023438 85 l 1,1,-1
 349.55078125 128 l 1,2,-1
 379.102539062 256 l 1,3,-1
 366.798828125 298 l 1,4,-1
 329.877929688 320 l 1,5,-1
 137.877929688 320 l 1,6,-1
 93.55078125 128 l 1,7,-1
 104.624023438 85 l 1,8,-1
 142.775390625 64 l 1,9,-1
 270.775390625 64 l 1,0,-1
128 0 m 1,10,-1
 71.3876953125 32 l 1,11,-1
 46.775390625 64 l 1,12,-1
 29.55078125 128 l 1,13,-1
 88.6533203125 384 l 1,14,-1
 182.204101562 512 l 1,15,-1
 324.98046875 576 l 1,16,-1
 452.98046875 576 l 1,17,-1
 438.204101562 512 l 1,18,-1
 310.204101562 512 l 1,19,-1
 238.81640625 480 l 1,20,-1
 199.428710938 448 l 1,21,-1
 152.653320312 384 l 1,22,-1
 344.653320312 384 l 1,23,-1
 401.265625 352 l 1,24,-1
 425.877929688 320 l 1,25,-1
 443.102539062 256 l 1,26,-1
 413.55078125 128 l 1,27,-1
 366.775390625 64 l 1,28,-1
 327.387695312 32 l 1,29,-1
 256 0 l 1,30,-1
 128 0 l 1,10,-1
EndSplineSet
Validated: 1
EndChar

StartChar: seven
Encoding: 55 55 26
Width: 512
Flags: W
LayerCount: 2
Back
Fore
SplineSet
128 0 m 1,0,-1
 157.55078125 128 l 1,1,-1
 438.204101562 512 l 1,2,-1
 118.204101562 512 l 1,3,-1
 132.98046875 576 l 1,4,-1
 516.98046875 576 l 1,5,-1
 502.204101562 512 l 1,6,-1
 221.55078125 128 l 1,7,-1
 192 0 l 1,8,-1
 128 0 l 1,0,-1
EndSplineSet
Validated: 1
EndChar

StartChar: eight
Encoding: 56 56 27
Width: 512
Flags: W
LayerCount: 2
Back
Fore
SplineSet
270.775390625 64 m 1,0,-1
 317.624023438 85 l 1,1,-1
 349.55078125 128 l 1,2,-1
 364.327148438 192 l 1,3,-1
 352.0234375 234 l 1,4,-1
 315.102539062 256 l 1,5,-1
 187.102539062 256 l 1,6,-1
 139.0234375 234 l 1,7,-1
 108.327148438 192 l 1,8,-1
 93.55078125 128 l 1,9,-1
 104.624023438 85 l 1,10,-1
 142.775390625 64 l 1,11,-1
 270.775390625 64 l 1,0,-1
329.877929688 320 m 1,12,-1
 376.725585938 341 l 1,13,-1
 408.653320312 384 l 1,14,-1
 423.428710938 448 l 1,15,-1
 411.125 490 l 1,16,-1
 374.204101562 512 l 1,17,-1
 246.204101562 512 l 1,18,-1
 198.125 490 l 1,19,-1
 167.428710938 448 l 1,20,-1
 152.653320312 384 l 1,21,-1
 163.725585938 341 l 1,22,-1
 201.877929688 320 l 1,23,-1
 329.877929688 320 l 1,12,-1
128 0 m 1,24,-1
 71.3876953125 32 l 1,25,-1
 46.775390625 64 l 1,26,-1
 29.55078125 128 l 1,27,-1
 44.3271484375 192 l 1,28,-1
 91.1025390625 256 l 1,29,-1
 130.490234375 288 l 1,30,-1
 105.877929688 320 l 1,31,-1
 88.6533203125 384 l 1,32,-1
 103.428710938 448 l 1,33,-1
 150.204101562 512 l 1,34,-1
 189.592773438 544 l 1,35,-1
 260.98046875 576 l 1,36,-1
 388.98046875 576 l 1,37,-1
 445.592773438 544 l 1,38,-1
 470.204101562 512 l 1,39,-1
 487.428710938 448 l 1,40,-1
 472.653320312 384 l 1,41,-1
 425.877929688 320 l 1,42,-1
 386.490234375 288 l 1,43,-1
 411.102539062 256 l 1,44,-1
 428.327148438 192 l 1,45,-1
 413.55078125 128 l 1,46,-1
 366.775390625 64 l 1,47,-1
 327.387695312 32 l 1,48,-1
 256 0 l 1,49,-1
 128 0 l 1,24,-1
EndSplineSet
Validated: 1
EndChar

StartChar: nine
Encoding: 57 57 28
Width: 512
Flags: W
LayerCount: 2
Back
Fore
SplineSet
379.102539062 256 m 1,0,-1
 423.428710938 448 l 1,1,-1
 411.125 490 l 1,2,-1
 374.204101562 512 l 1,3,-1
 246.204101562 512 l 1,4,-1
 198.125 490 l 1,5,-1
 167.428710938 448 l 1,6,-1
 137.877929688 320 l 1,7,-1
 148.950195312 277 l 1,8,-1
 187.102539062 256 l 1,9,-1
 379.102539062 256 l 1,0,-1
64 0 m 1,10,-1
 78.775390625 64 l 1,11,-1
 206.775390625 64 l 1,12,-1
 278.163085938 96 l 1,13,-1
 317.55078125 128 l 1,14,-1
 364.327148438 192 l 1,15,-1
 172.327148438 192 l 1,16,-1
 115.71484375 224 l 1,17,-1
 91.1025390625 256 l 1,18,-1
 73.8779296875 320 l 1,19,-1
 103.428710938 448 l 1,20,-1
 150.204101562 512 l 1,21,-1
 189.592773438 544 l 1,22,-1
 260.98046875 576 l 1,23,-1
 388.98046875 576 l 1,24,-1
 445.592773438 544 l 1,25,-1
 470.204101562 512 l 1,26,-1
 487.428710938 448 l 1,27,-1
 428.327148438 192 l 1,28,-1
 334.775390625 64 l 1,29,-1
 192 0 l 1,30,-1
 64 0 l 1,10,-1
EndSplineSet
Validated: 1
EndChar

StartChar: colon
Encoding: 58 58 29
Width: 256
Flags: W
LayerCount: 2
Back
Fore
SplineSet
64 0 m 1,0,-1
 93.55078125 128 l 1,1,-1
 157.55078125 128 l 1,2,-1
 128 0 l 1,3,-1
 64 0 l 1,0,-1
123.102539062 256 m 1,4,-1
 152.653320312 384 l 1,5,-1
 216.653320312 384 l 1,6,-1
 187.102539062 256 l 1,7,-1
 123.102539062 256 l 1,4,-1
EndSplineSet
Validated: 1
EndChar

StartChar: semicolon
Encoding: 59 59 30
Width: 256
Flags: W
LayerCount: 2
Back
Fore
SplineSet
17.224609375 -64 m 1,0,-1
 64 0 l 1,1,-1
 93.55078125 128 l 1,2,-1
 157.55078125 128 l 1,3,-1
 128 0 l 1,4,-1
 81.224609375 -64 l 1,5,-1
 17.224609375 -64 l 1,0,-1
123.102539062 256 m 1,6,-1
 152.653320312 384 l 1,7,-1
 216.653320312 384 l 1,8,-1
 187.102539062 256 l 1,9,-1
 123.102539062 256 l 1,6,-1
EndSplineSet
Validated: 1
EndChar

StartChar: less
Encoding: 60 60 31
Width: 448
Flags: W
LayerCount: 2
Back
Fore
SplineSet
270.775390625 64 m 1,0,-1
 98.490234375 288 l 1,1,-1
 374.204101562 512 l 1,2,-1
 438.204101562 512 l 1,3,-1
 430.81640625 480 l 1,4,-1
 194.490234375 288 l 1,5,-1
 342.163085938 96 l 1,6,-1
 334.775390625 64 l 1,7,-1
 270.775390625 64 l 1,0,-1
EndSplineSet
Validated: 1
EndChar

StartChar: equal
Encoding: 61 61 32
Width: 512
Flags: W
LayerCount: 2
Back
Fore
SplineSet
108.327148438 192 m 1,0,-1
 123.102539062 256 l 1,1,-1
 443.102539062 256 l 1,2,-1
 428.327148438 192 l 1,3,-1
 108.327148438 192 l 1,0,-1
137.877929688 320 m 1,4,-1
 152.653320312 384 l 1,5,-1
 472.653320312 384 l 1,6,-1
 457.877929688 320 l 1,7,-1
 137.877929688 320 l 1,4,-1
EndSplineSet
Validated: 1
EndChar

StartChar: greater
Encoding: 62 62 33
Width: 448
Flags: W
LayerCount: 2
Back
Fore
SplineSet
14.775390625 64 m 1,0,-1
 22.1630859375 96 l 1,1,-1
 258.490234375 288 l 1,2,-1
 110.81640625 480 l 1,3,-1
 118.204101562 512 l 1,4,-1
 182.204101562 512 l 1,5,-1
 354.490234375 288 l 1,6,-1
 78.775390625 64 l 1,7,-1
 14.775390625 64 l 1,0,-1
EndSplineSet
Validated: 1
EndChar

StartChar: question
Encoding: 63 63 34
Width: 512
Flags: W
LayerCount: 2
Back
Fore
SplineSet
128 0 m 1,0,-1
 157.55078125 128 l 1,1,-1
 221.55078125 128 l 1,2,-1
 192 0 l 1,3,-1
 128 0 l 1,0,-1
172.327148438 192 m 1,4,-1
 219.102539062 256 l 1,5,-1
 258.490234375 288 l 1,6,-1
 376.725585938 341 l 1,7,-1
 408.653320312 384 l 1,8,-1
 423.428710938 448 l 1,9,-1
 310.204101562 512 l 1,10,-1
 246.204101562 512 l 1,11,-1
 198.125 490 l 1,12,-1
 167.428710938 448 l 1,13,-1
 103.428710938 448 l 1,14,-1
 150.204101562 512 l 1,15,-1
 189.592773438 544 l 1,16,-1
 260.98046875 576 l 1,17,-1
 324.98046875 576 l 1,18,-1
 438.204101562 512 l 1,19,-1
 487.428710938 448 l 1,20,-1
 472.653320312 384 l 1,21,-1
 425.877929688 320 l 1,22,-1
 386.490234375 288 l 1,23,-1
 267.0234375 234 l 1,24,-1
 236.327148438 192 l 1,25,-1
 172.327148438 192 l 1,4,-1
EndSplineSet
Validated: 1
EndChar

StartChar: at
Encoding: 64 64 35
Width: 640
Flags: W
LayerCount: 2
Back
Fore
SplineSet
285.55078125 128 m 5,0,-1
 364.327148438 192 l 5,1,-1
 379.102539062 256 l 5,2,-1
 251.102539062 256 l 5,3,-1
 221.55078125 128 l 5,4,-1
 285.55078125 128 l 5,0,-1
177.224609375 -64 m 5,5,-1
 120.612304688 -32 l 5,6,-1
 46.775390625 64 l 5,7,-1
 29.55078125 128 l 5,8,-1
 59.1025390625 256 l 5,9,-1
 105.877929688 320 l 5,10,-1
 224.041015625 416 l 5,11,-1
 295.428710938 448 l 5,12,-1
 423.428710938 448 l 5,13,-1
 480.041015625 416 l 5,14,-1
 553.877929688 320 l 5,15,-1
 571.102539062 256 l 5,16,-1
 534.163085938 96 l 5,17,-1
 494.775390625 64 l 5,18,-1
 430.775390625 64 l 5,19,-1
 381.55078125 128 l 5,20,-1
 349.55078125 128 l 5,21,-1
 270.775390625 64 l 5,22,-1
 206.775390625 64 l 5,23,-1
 157.55078125 128 l 5,24,-1
 187.102539062 256 l 5,25,-1
 265.877929688 320 l 5,26,-1
 393.877929688 320 l 5,27,-1
 443.102539062 256 l 5,28,-1
 413.55078125 128 l 5,29,-1
 477.55078125 128 l 5,30,-1
 507.102539062 256 l 5,31,-1
 408.653320312 384 l 5,32,-1
 280.653320312 384 l 5,33,-1
 123.102539062 256 l 5,34,-1
 93.55078125 128 l 5,35,-1
 192 0 l 5,36,-1
 384 0 l 5,37,-1
 369.224609375 -64 l 5,38,-1
 177.224609375 -64 l 5,5,-1
EndSplineSet
EndChar

StartChar: A
Encoding: 65 65 36
Width: 704
Flags: W
LayerCount: 2
Back
Fore
SplineSet
443.102539062 256 m 1,0,-1
 391.428710938 448 l 1,1,-1
 251.102539062 256 l 1,2,-1
 443.102539062 256 l 1,0,-1
0 0 m 1,3,-1
 420.98046875 576 l 1,4,-1
 576 0 l 1,5,-1
 512 0 l 1,6,-1
 460.327148438 192 l 1,7,-1
 204.327148438 192 l 1,8,-1
 64 0 l 1,9,-1
 0 0 l 1,3,-1
EndSplineSet
Validated: 1
EndChar

StartChar: B
Encoding: 66 66 37
Width: 512
Flags: W
LayerCount: 2
Back
Fore
SplineSet
270.775390625 64 m 1,0,-1
 349.55078125 128 l 1,1,-1
 332.327148438 192 l 1,2,-1
 307.71484375 224 l 1,3,-1
 251.102539062 256 l 1,4,-1
 123.102539062 256 l 1,5,-1
 78.775390625 64 l 1,6,-1
 270.775390625 64 l 1,0,-1
265.877929688 320 m 1,7,-1
 344.653320312 384 l 1,8,-1
 359.428710938 448 l 1,9,-1
 310.204101562 512 l 1,10,-1
 182.204101562 512 l 1,11,-1
 137.877929688 320 l 1,12,-1
 265.877929688 320 l 1,7,-1
0 0 m 1,13,-1
 132.98046875 576 l 1,14,-1
 324.98046875 576 l 1,15,-1
 381.592773438 544 l 1,16,-1
 406.204101562 512 l 1,17,-1
 423.428710938 448 l 1,18,-1
 408.653320312 384 l 1,19,-1
 329.877929688 320 l 1,20,-1
 428.327148438 192 l 1,21,-1
 413.55078125 128 l 1,22,-1
 366.775390625 64 l 1,23,-1
 327.387695312 32 l 1,24,-1
 256 0 l 1,25,-1
 0 0 l 1,13,-1
EndSplineSet
Validated: 1
EndChar

StartChar: C
Encoding: 67 67 38
Width: 512
Flags: W
LayerCount: 2
Back
Fore
SplineSet
192 0 m 1,0,-1
 78.775390625 64 l 1,1,-1
 44.3271484375 192 l 1,2,-1
 88.6533203125 384 l 1,3,-1
 182.204101562 512 l 1,4,-1
 324.98046875 576 l 1,5,-1
 516.98046875 576 l 1,6,-1
 502.204101562 512 l 1,7,-1
 310.204101562 512 l 1,8,-1
 238.81640625 480 l 1,9,-1
 199.428710938 448 l 1,10,-1
 152.653320312 384 l 1,11,-1
 108.327148438 192 l 1,12,-1
 125.55078125 128 l 1,13,-1
 150.163085938 96 l 1,14,-1
 206.775390625 64 l 1,15,-1
 398.775390625 64 l 1,16,-1
 384 0 l 1,17,-1
 192 0 l 1,0,-1
EndSplineSet
Validated: 1
EndChar

StartChar: D
Encoding: 68 68 39
Width: 576
Flags: W
LayerCount: 2
Back
Fore
SplineSet
270.775390625 64 m 1,0,-1
 342.163085938 96 l 1,1,-1
 381.55078125 128 l 1,2,-1
 428.327148438 192 l 1,3,-1
 472.653320312 384 l 1,4,-1
 455.428710938 448 l 1,5,-1
 430.81640625 480 l 1,6,-1
 374.204101562 512 l 1,7,-1
 182.204101562 512 l 1,8,-1
 78.775390625 64 l 1,9,-1
 270.775390625 64 l 1,0,-1
0 0 m 1,10,-1
 132.98046875 576 l 1,11,-1
 388.98046875 576 l 1,12,-1
 502.204101562 512 l 1,13,-1
 536.653320312 384 l 1,14,-1
 492.327148438 192 l 1,15,-1
 398.775390625 64 l 1,16,-1
 256 0 l 1,17,-1
 0 0 l 1,10,-1
EndSplineSet
Validated: 1
EndChar

StartChar: E
Encoding: 69 69 40
Width: 512
Flags: W
LayerCount: 2
Back
Fore
SplineSet
0 0 m 1,0,-1
 132.98046875 576 l 1,1,-1
 516.98046875 576 l 1,2,-1
 502.204101562 512 l 1,3,-1
 182.204101562 512 l 1,4,-1
 137.877929688 320 l 1,5,-1
 393.877929688 320 l 1,6,-1
 379.102539062 256 l 1,7,-1
 123.102539062 256 l 1,8,-1
 78.775390625 64 l 1,9,-1
 398.775390625 64 l 1,10,-1
 384 0 l 1,11,-1
 0 0 l 1,0,-1
EndSplineSet
Validated: 1
EndChar

StartChar: F
Encoding: 70 70 41
Width: 512
Flags: W
LayerCount: 2
Back
Fore
SplineSet
0 0 m 1,0,-1
 132.98046875 576 l 1,1,-1
 516.98046875 576 l 1,2,-1
 502.204101562 512 l 1,3,-1
 182.204101562 512 l 1,4,-1
 137.877929688 320 l 1,5,-1
 393.877929688 320 l 1,6,-1
 379.102539062 256 l 1,7,-1
 123.102539062 256 l 1,8,-1
 64 0 l 1,9,-1
 0 0 l 1,0,-1
EndSplineSet
Validated: 1
EndChar

StartChar: G
Encoding: 71 71 42
Width: 576
Flags: W
LayerCount: 2
Back
Fore
SplineSet
192 0 m 1,0,-1
 78.775390625 64 l 1,1,-1
 44.3271484375 192 l 1,2,-1
 88.6533203125 384 l 1,3,-1
 182.204101562 512 l 1,4,-1
 324.98046875 576 l 1,5,-1
 516.98046875 576 l 1,6,-1
 502.204101562 512 l 1,7,-1
 310.204101562 512 l 1,8,-1
 238.81640625 480 l 1,9,-1
 199.428710938 448 l 1,10,-1
 152.653320312 384 l 1,11,-1
 108.327148438 192 l 1,12,-1
 125.55078125 128 l 1,13,-1
 150.163085938 96 l 1,14,-1
 206.775390625 64 l 1,15,-1
 366.775390625 64 l 1,16,-1
 406.163085938 96 l 1,17,-1
 443.102539062 256 l 1,18,-1
 315.102539062 256 l 1,19,-1
 329.877929688 320 l 1,20,-1
 521.877929688 320 l 1,21,-1
 462.775390625 64 l 1,22,-1
 384 0 l 1,23,-1
 192 0 l 1,0,-1
EndSplineSet
Validated: 1
EndChar

StartChar: H
Encoding: 72 72 43
Width: 512
Flags: W
LayerCount: 2
Back
Fore
SplineSet
0 0 m 1,0,-1
 132.98046875 576 l 1,1,-1
 196.98046875 576 l 1,2,-1
 137.877929688 320 l 1,3,-1
 393.877929688 320 l 1,4,-1
 452.98046875 576 l 1,5,-1
 516.98046875 576 l 1,6,-1
 384 0 l 1,7,-1
 320 0 l 1,8,-1
 379.102539062 256 l 1,9,-1
 123.102539062 256 l 1,10,-1
 64 0 l 1,11,-1
 0 0 l 1,0,-1
EndSplineSet
Validated: 1
EndChar

StartChar: I
Encoding: 73 73 44
Width: 192
Flags: W
LayerCount: 2
Back
Fore
SplineSet
0 0 m 1,0,-1
 132.98046875 576 l 1,1,-1
 196.98046875 576 l 1,2,-1
 64 0 l 1,3,-1
 0 0 l 1,0,-1
EndSplineSet
Validated: 1
EndChar

StartChar: J
Encoding: 74 74 45
Width: 384
Flags: W
LayerCount: 2
Back
Fore
SplineSet
0 0 m 1,0,-1
 14.775390625 64 l 1,1,-1
 142.775390625 64 l 1,2,-1
 221.55078125 128 l 1,3,-1
 324.98046875 576 l 1,4,-1
 388.98046875 576 l 1,5,-1
 285.55078125 128 l 1,6,-1
 238.775390625 64 l 1,7,-1
 199.387695312 32 l 1,8,-1
 128 0 l 1,9,-1
 0 0 l 1,0,-1
EndSplineSet
Validated: 1
EndChar

StartChar: K
Encoding: 75 75 46
Width: 512
Flags: W
LayerCount: 2
Back
Fore
SplineSet
0 0 m 1,0,-1
 132.98046875 576 l 1,1,-1
 196.98046875 576 l 1,2,-1
 137.877929688 320 l 1,3,-1
 452.98046875 576 l 1,4,-1
 516.98046875 576 l 1,5,-1
 509.592773438 544 l 1,6,-1
 194.490234375 288 l 1,7,-1
 391.387695312 32 l 1,8,-1
 384 0 l 1,9,-1
 320 0 l 1,10,-1
 123.102539062 256 l 1,11,-1
 64 0 l 1,12,-1
 0 0 l 1,0,-1
EndSplineSet
Validated: 1
EndChar

StartChar: L
Encoding: 76 76 47
Width: 512
Flags: W
LayerCount: 2
Back
Fore
SplineSet
0 0 m 1,0,-1
 132.98046875 576 l 1,1,-1
 196.98046875 576 l 1,2,-1
 78.775390625 64 l 1,3,-1
 398.775390625 64 l 1,4,-1
 384 0 l 1,5,-1
 0 0 l 1,0,-1
EndSplineSet
Validated: 1
EndChar

StartChar: M
Encoding: 77 77 48
Width: 704
Flags: W
LayerCount: 2
Back
Fore
SplineSet
0 0 m 1,0,-1
 132.98046875 576 l 1,1,-1
 196.98046875 576 l 1,2,-1
 317.55078125 128 l 1,3,-1
 644.98046875 576 l 1,4,-1
 708.98046875 576 l 1,5,-1
 576 0 l 1,6,-1
 512 0 l 1,7,-1
 615.428710938 448 l 1,8,-1
 288 0 l 1,9,-1
 167.428710938 448 l 1,10,-1
 64 0 l 1,11,-1
 0 0 l 1,0,-1
EndSplineSet
Validated: 1
EndChar

StartChar: N
Encoding: 78 78 49
Width: 576
Flags: W
LayerCount: 2
Back
Fore
SplineSet
0 0 m 1,0,-1
 132.98046875 576 l 1,1,-1
 260.98046875 576 l 1,2,-1
 398.775390625 64 l 1,3,-1
 516.98046875 576 l 1,4,-1
 580.98046875 576 l 1,5,-1
 448 0 l 1,6,-1
 352 0 l 1,7,-1
 214.204101562 512 l 1,8,-1
 182.204101562 512 l 1,9,-1
 64 0 l 1,10,-1
 0 0 l 1,0,-1
EndSplineSet
Validated: 1
EndChar

StartChar: O
Encoding: 79 79 50
Width: 576
Flags: W
LayerCount: 2
Back
Fore
SplineSet
270.775390625 64 m 1,0,-1
 342.163085938 96 l 1,1,-1
 381.55078125 128 l 1,2,-1
 428.327148438 192 l 1,3,-1
 472.653320312 384 l 1,4,-1
 455.428710938 448 l 1,5,-1
 430.81640625 480 l 1,6,-1
 374.204101562 512 l 1,7,-1
 310.204101562 512 l 1,8,-1
 238.81640625 480 l 1,9,-1
 199.428710938 448 l 1,10,-1
 152.653320312 384 l 1,11,-1
 108.327148438 192 l 1,12,-1
 125.55078125 128 l 1,13,-1
 150.163085938 96 l 1,14,-1
 206.775390625 64 l 1,15,-1
 270.775390625 64 l 1,0,-1
192 0 m 1,16,-1
 78.775390625 64 l 1,17,-1
 44.3271484375 192 l 1,18,-1
 88.6533203125 384 l 1,19,-1
 182.204101562 512 l 1,20,-1
 324.98046875 576 l 1,21,-1
 388.98046875 576 l 1,22,-1
 502.204101562 512 l 1,23,-1
 536.653320312 384 l 1,24,-1
 492.327148438 192 l 1,25,-1
 398.775390625 64 l 1,26,-1
 256 0 l 1,27,-1
 192 0 l 1,16,-1
EndSplineSet
Validated: 1
EndChar

StartChar: P
Encoding: 80 80 51
Width: 512
Flags: W
LayerCount: 2
Back
Fore
SplineSet
251.102539062 256 m 1,0,-1
 322.490234375 288 l 1,1,-1
 361.877929688 320 l 1,2,-1
 408.653320312 384 l 1,3,-1
 391.428710938 448 l 1,4,-1
 366.81640625 480 l 1,5,-1
 310.204101562 512 l 1,6,-1
 182.204101562 512 l 1,7,-1
 123.102539062 256 l 1,8,-1
 251.102539062 256 l 1,0,-1
0 0 m 1,9,-1
 132.98046875 576 l 1,10,-1
 324.98046875 576 l 1,11,-1
 438.204101562 512 l 1,12,-1
 472.653320312 384 l 1,13,-1
 379.102539062 256 l 1,14,-1
 236.327148438 192 l 1,15,-1
 108.327148438 192 l 1,16,-1
 64 0 l 1,17,-1
 0 0 l 1,9,-1
EndSplineSet
Validated: 1
EndChar

StartChar: Q
Encoding: 81 81 52
Width: 576
Flags: W
LayerCount: 2
Back
Fore
SplineSet
270.775390625 64 m 1,0,-1
 342.163085938 96 l 1,1,-1
 381.55078125 128 l 1,2,-1
 428.327148438 192 l 1,3,-1
 472.653320312 384 l 1,4,-1
 455.428710938 448 l 1,5,-1
 430.81640625 480 l 1,6,-1
 374.204101562 512 l 1,7,-1
 310.204101562 512 l 1,8,-1
 238.81640625 480 l 1,9,-1
 199.428710938 448 l 1,10,-1
 152.653320312 384 l 1,11,-1
 108.327148438 192 l 1,12,-1
 125.55078125 128 l 1,13,-1
 150.163085938 96 l 1,14,-1
 206.775390625 64 l 1,15,-1
 270.775390625 64 l 1,0,-1
354.44921875 -128 m 1,16,-1
 297.836914062 -96 l 1,17,-1
 224 0 l 1,18,-1
 192 0 l 1,19,-1
 78.775390625 64 l 1,20,-1
 44.3271484375 192 l 1,21,-1
 88.6533203125 384 l 1,22,-1
 182.204101562 512 l 1,23,-1
 324.98046875 576 l 1,24,-1
 388.98046875 576 l 1,25,-1
 502.204101562 512 l 1,26,-1
 536.653320312 384 l 1,27,-1
 492.327148438 192 l 1,28,-1
 398.775390625 64 l 1,29,-1
 312.771484375 25 l 1,30,-1
 320 0 l 1,31,-1
 369.224609375 -64 l 1,32,-1
 433.224609375 -64 l 1,33,-1
 418.44921875 -128 l 1,34,-1
 354.44921875 -128 l 1,16,-1
EndSplineSet
Validated: 1
EndChar

StartChar: R
Encoding: 82 82 53
Width: 512
Flags: W
LayerCount: 2
Back
Fore
SplineSet
251.102539062 256 m 1,0,-1
 322.490234375 288 l 1,1,-1
 361.877929688 320 l 1,2,-1
 408.653320312 384 l 1,3,-1
 391.428710938 448 l 1,4,-1
 366.81640625 480 l 1,5,-1
 310.204101562 512 l 1,6,-1
 182.204101562 512 l 1,7,-1
 123.102539062 256 l 1,8,-1
 251.102539062 256 l 1,0,-1
0 0 m 1,9,-1
 132.98046875 576 l 1,10,-1
 324.98046875 576 l 1,11,-1
 438.204101562 512 l 1,12,-1
 472.653320312 384 l 1,13,-1
 379.102539062 256 l 1,14,-1
 283.174804688 213 l 1,15,-1
 398.775390625 64 l 1,16,-1
 384 0 l 1,17,-1
 352 0 l 1,18,-1
 204.327148438 192 l 1,19,-1
 108.327148438 192 l 1,20,-1
 64 0 l 1,21,-1
 0 0 l 1,9,-1
EndSplineSet
Validated: 1
EndChar

StartChar: S
Encoding: 83 83 54
Width: 512
Flags: W
LayerCount: 2
Back
Fore
SplineSet
0 0 m 1,0,-1
 14.775390625 64 l 1,1,-1
 270.775390625 64 l 1,2,-1
 349.55078125 128 l 1,3,-1
 332.327148438 192 l 1,4,-1
 307.71484375 224 l 1,5,-1
 137.877929688 320 l 1,6,-1
 103.428710938 448 l 1,7,-1
 150.204101562 512 l 1,8,-1
 189.592773438 544 l 1,9,-1
 260.98046875 576 l 1,10,-1
 516.98046875 576 l 1,11,-1
 502.204101562 512 l 1,12,-1
 246.204101562 512 l 1,13,-1
 167.428710938 448 l 1,14,-1
 184.653320312 384 l 1,15,-1
 209.265625 352 l 1,16,-1
 379.102539062 256 l 1,17,-1
 413.55078125 128 l 1,18,-1
 366.775390625 64 l 1,19,-1
 327.387695312 32 l 1,20,-1
 256 0 l 1,21,-1
 0 0 l 1,0,-1
EndSplineSet
Validated: 1
EndChar

StartChar: T
Encoding: 84 84 55
Width: 576
Flags: W
LayerCount: 2
Back
Fore
SplineSet
192 0 m 1,0,-1
 310.204101562 512 l 1,1,-1
 118.204101562 512 l 1,2,-1
 132.98046875 576 l 1,3,-1
 580.98046875 576 l 1,4,-1
 566.204101562 512 l 1,5,-1
 374.204101562 512 l 1,6,-1
 256 0 l 1,7,-1
 192 0 l 1,0,-1
EndSplineSet
Validated: 1
EndChar

StartChar: U
Encoding: 85 85 56
Width: 576
Flags: W
LayerCount: 2
Back
Fore
SplineSet
192 0 m 1,0,-1
 78.775390625 64 l 1,1,-1
 44.3271484375 192 l 1,2,-1
 132.98046875 576 l 1,3,-1
 196.98046875 576 l 1,4,-1
 108.327148438 192 l 1,5,-1
 125.55078125 128 l 1,6,-1
 150.163085938 96 l 1,7,-1
 206.775390625 64 l 1,8,-1
 270.775390625 64 l 1,9,-1
 342.163085938 96 l 1,10,-1
 381.55078125 128 l 1,11,-1
 428.327148438 192 l 1,12,-1
 516.98046875 576 l 1,13,-1
 580.98046875 576 l 1,14,-1
 492.327148438 192 l 1,15,-1
 398.775390625 64 l 1,16,-1
 256 0 l 1,17,-1
 192 0 l 1,0,-1
EndSplineSet
Validated: 1
EndChar

StartChar: V
Encoding: 86 86 57
Width: 576
Flags: W
LayerCount: 2
Back
Fore
SplineSet
224 0 m 1,0,-1
 103.428710938 448 l 1,1,-1
 132.98046875 576 l 1,2,-1
 196.98046875 576 l 1,3,-1
 167.428710938 448 l 1,4,-1
 253.55078125 128 l 1,5,-1
 487.428710938 448 l 1,6,-1
 516.98046875 576 l 1,7,-1
 580.98046875 576 l 1,8,-1
 551.428710938 448 l 1,9,-1
 224 0 l 1,10,-1
 224 0 l 1,0,-1
EndSplineSet
Validated: 5
EndChar

StartChar: W
Encoding: 87 87 58
Width: 704
Flags: W
LayerCount: 2
Back
Fore
SplineSet
128 0 m 1,0,-1
 157.55078125 128 l 1,1,-1
 88.6533203125 384 l 1,2,-1
 132.98046875 576 l 1,3,-1
 196.98046875 576 l 1,4,-1
 152.653320312 384 l 1,5,-1
 204.327148438 192 l 1,6,-1
 344.653320312 384 l 1,7,-1
 388.98046875 576 l 1,8,-1
 452.98046875 576 l 1,9,-1
 408.653320312 384 l 1,10,-1
 460.327148438 192 l 1,11,-1
 600.653320312 384 l 1,12,-1
 644.98046875 576 l 1,13,-1
 708.98046875 576 l 1,14,-1
 664.653320312 384 l 1,15,-1
 477.55078125 128 l 1,16,-1
 448 0 l 1,17,-1
 384 0 l 1,18,-1
 413.55078125 128 l 1,19,-1
 361.877929688 320 l 1,20,-1
 221.55078125 128 l 1,21,-1
 192 0 l 1,22,-1
 128 0 l 1,0,-1
EndSplineSet
Validated: 1
EndChar

StartChar: X
Encoding: 88 88 59
Width: 576
Flags: W
LayerCount: 2
Back
Fore
SplineSet
0 0 m 1,0,-1
 22.1630859375 96 l 1,1,-1
 258.490234375 288 l 1,2,-1
 110.81640625 480 l 1,3,-1
 132.98046875 576 l 1,4,-1
 196.98046875 576 l 1,5,-1
 182.204101562 512 l 1,6,-1
 280.653320312 384 l 1,7,-1
 280.422851562 383 l 1,8,-1
 305.265625 352 l 1,9,-1
 502.204101562 512 l 1,10,-1
 516.98046875 576 l 1,11,-1
 580.98046875 576 l 1,12,-1
 558.81640625 480 l 1,13,-1
 322.490234375 288 l 1,14,-1
 470.163085938 96 l 1,15,-1
 448 0 l 1,16,-1
 384 0 l 1,17,-1
 398.775390625 64 l 1,18,-1
 275.71484375 224 l 1,19,-1
 236.327148438 192 l 1,20,-1
 236.327148438 192 l 1,21,-1
 78.775390625 64 l 1,22,-1
 64 0 l 1,23,-1
 0 0 l 1,0,-1
EndSplineSet
Validated: 5
EndChar

StartChar: Y
Encoding: 89 89 60
Width: 576
Flags: W
LayerCount: 2
Back
Fore
SplineSet
192 0 m 1,0,-1
 236.327148438 192 l 1,1,-1
 132.98046875 576 l 1,2,-1
 196.98046875 576 l 1,3,-1
 283.102539062 256 l 1,4,-1
 516.98046875 576 l 1,5,-1
 580.98046875 576 l 1,6,-1
 300.327148438 192 l 1,7,-1
 256 0 l 1,8,-1
 192 0 l 1,0,-1
EndSplineSet
Validated: 1
EndChar

StartChar: Z
Encoding: 90 90 61
Width: 576
Flags: W
LayerCount: 2
Back
Fore
SplineSet
0 0 m 1,0,-1
 22.1630859375 96 l 1,1,-1
 534.204101562 512 l 1,2,-1
 118.204101562 512 l 1,3,-1
 132.98046875 576 l 1,4,-1
 580.98046875 576 l 1,5,-1
 551.428710938 448 l 1,6,-1
 78.775390625 64 l 1,7,-1
 462.775390625 64 l 1,8,-1
 448 0 l 1,9,-1
 0 0 l 1,0,-1
EndSplineSet
Validated: 1
EndChar

StartChar: bracketleft
Encoding: 91 91 62
Width: 320
Flags: W
LayerCount: 2
Back
Fore
SplineSet
-14.775390625 -64 m 1,0,-1
 147.755859375 640 l 1,1,-1
 339.755859375 640 l 1,2,-1
 324.98046875 576 l 1,3,-1
 196.98046875 576 l 1,4,-1
 64 0 l 1,5,-1
 192 0 l 1,6,-1
 177.224609375 -64 l 1,7,-1
 -14.775390625 -64 l 1,0,-1
EndSplineSet
Validated: 1
EndChar

StartChar: backslash
Encoding: 92 92 63
Width: 448
Flags: W
LayerCount: 2
Back
Fore
SplineSet
288 0 m 1,0,-1
 132.98046875 576 l 1,1,-1
 196.98046875 576 l 1,2,-1
 334.775390625 64 l 1,3,-1
 320 0 l 1,4,-1
 288 0 l 1,0,-1
EndSplineSet
Validated: 1
EndChar

StartChar: bracketright
Encoding: 93 93 64
Width: 320
Flags: W
LayerCount: 2
Back
Fore
SplineSet
-14.775390625 -64 m 1,0,-1
 0 0 l 1,1,-1
 128 0 l 1,2,-1
 260.98046875 576 l 1,3,-1
 132.98046875 576 l 1,4,-1
 147.755859375 640 l 1,5,-1
 339.755859375 640 l 1,6,-1
 177.224609375 -64 l 1,7,-1
 -14.775390625 -64 l 1,0,-1
EndSplineSet
Validated: 1
EndChar

StartChar: asciicircum
Encoding: 94 94 65
Width: 448
Flags: W
LayerCount: 2
Back
Fore
SplineSet
103.428710938 448 m 1,0,-1
 300.368164062 608 l 1,1,-1
 423.428710938 448 l 1,2,-1
 359.428710938 448 l 1,3,-1
 310.204101562 512 l 1,4,-1
 310.204101562 512 l 1,5,-1
 285.592773438 544 l 1,6,-1
 167.428710938 448 l 1,7,-1
 103.428710938 448 l 1,0,-1
EndSplineSet
Validated: 5
EndChar

StartChar: underscore
Encoding: 95 95 66
Width: 512
Flags: W
LayerCount: 2
Back
Fore
SplineSet
-14.775390625 -64 m 1,0,-1
 0 0 l 1,1,-1
 384 0 l 1,2,-1
 369.224609375 -64 l 1,3,-1
 -14.775390625 -64 l 1,0,-1
EndSplineSet
Validated: 1
EndChar

StartChar: grave
Encoding: 96 96 67
Width: 384
Flags: W
LayerCount: 2
Back
Fore
SplineSet
310.204101562 512 m 1,0,-1
 140.368164062 608 l 1,1,-1
 147.755859375 640 l 1,2,-1
 211.755859375 640 l 1,3,-1
 381.592773438 544 l 1,4,-1
 374.204101562 512 l 1,5,-1
 310.204101562 512 l 1,0,-1
EndSplineSet
Validated: 1
EndChar

StartChar: a
Encoding: 97 97 68
Width: 512
Flags: W
LayerCount: 2
Back
Fore
SplineSet
206.775390625 64 m 1,0,-1
 349.55078125 128 l 1,1,-1
 364.327148438 192 l 1,2,-1
 172.327148438 192 l 1,3,-1
 124.248046875 170 l 1,4,-1
 93.55078125 128 l 1,5,-1
 104.624023438 85 l 1,6,-1
 142.775390625 64 l 1,7,-1
 206.775390625 64 l 1,0,-1
128 0 m 1,8,-1
 71.3876953125 32 l 1,9,-1
 46.775390625 64 l 1,10,-1
 29.55078125 128 l 1,11,-1
 76.3271484375 192 l 1,12,-1
 115.71484375 224 l 1,13,-1
 187.102539062 256 l 1,14,-1
 379.102539062 256 l 1,15,-1
 393.877929688 320 l 1,16,-1
 381.57421875 362 l 1,17,-1
 344.653320312 384 l 1,18,-1
 152.653320312 384 l 1,19,-1
 167.428710938 448 l 1,20,-1
 359.428710938 448 l 1,21,-1
 416.041015625 416 l 1,22,-1
 440.653320312 384 l 1,23,-1
 457.877929688 320 l 1,24,-1
 384 0 l 1,25,-1
 320 0 l 1,26,-1
 334.775390625 64 l 1,27,-1
 192 0 l 1,28,-1
 128 0 l 1,8,-1
EndSplineSet
Validated: 1
EndChar

StartChar: b
Encoding: 98 98 69
Width: 512
Flags: W
LayerCount: 2
Back
Fore
SplineSet
206.775390625 64 m 1,0,-1
 278.163085938 96 l 1,1,-1
 317.55078125 128 l 1,2,-1
 364.327148438 192 l 1,3,-1
 393.877929688 320 l 1,4,-1
 344.653320312 384 l 1,5,-1
 280.653320312 384 l 1,6,-1
 137.877929688 320 l 1,7,-1
 78.775390625 64 l 1,8,-1
 206.775390625 64 l 1,0,-1
0 0 m 1,9,-1
 132.98046875 576 l 1,10,-1
 196.98046875 576 l 1,11,-1
 152.653320312 384 l 1,12,-1
 295.428710938 448 l 1,13,-1
 359.428710938 448 l 1,14,-1
 416.041015625 416 l 1,15,-1
 440.653320312 384 l 1,16,-1
 457.877929688 320 l 1,17,-1
 428.327148438 192 l 1,18,-1
 334.775390625 64 l 1,19,-1
 192 0 l 1,20,-1
 0 0 l 1,9,-1
EndSplineSet
Validated: 1
EndChar

StartChar: c
Encoding: 99 99 70
Width: 448
Flags: W
LayerCount: 2
Back
Fore
SplineSet
192 0 m 1,0,-1
 78.775390625 64 l 1,1,-1
 44.3271484375 192 l 1,2,-1
 59.1025390625 256 l 1,3,-1
 152.653320312 384 l 1,4,-1
 295.428710938 448 l 1,5,-1
 423.428710938 448 l 1,6,-1
 408.653320312 384 l 1,7,-1
 280.653320312 384 l 1,8,-1
 209.265625 352 l 1,9,-1
 169.877929688 320 l 1,10,-1
 123.102539062 256 l 1,11,-1
 108.327148438 192 l 1,12,-1
 125.55078125 128 l 1,13,-1
 150.163085938 96 l 1,14,-1
 206.775390625 64 l 1,15,-1
 334.775390625 64 l 1,16,-1
 320 0 l 1,17,-1
 192 0 l 1,0,-1
EndSplineSet
Validated: 1
EndChar

StartChar: d
Encoding: 100 100 71
Width: 512
Flags: W
LayerCount: 2
Back
Fore
SplineSet
206.775390625 64 m 1,0,-1
 349.55078125 128 l 1,1,-1
 408.653320312 384 l 1,2,-1
 280.653320312 384 l 1,3,-1
 209.265625 352 l 1,4,-1
 169.877929688 320 l 1,5,-1
 123.102539062 256 l 1,6,-1
 93.55078125 128 l 1,7,-1
 142.775390625 64 l 1,8,-1
 206.775390625 64 l 1,0,-1
128 0 m 1,9,-1
 71.3876953125 32 l 1,10,-1
 46.775390625 64 l 1,11,-1
 29.55078125 128 l 1,12,-1
 59.1025390625 256 l 1,13,-1
 152.653320312 384 l 1,14,-1
 295.428710938 448 l 1,15,-1
 423.428710938 448 l 1,16,-1
 452.98046875 576 l 1,17,-1
 516.98046875 576 l 1,18,-1
 384 0 l 1,19,-1
 320 0 l 1,20,-1
 334.775390625 64 l 1,21,-1
 192 0 l 1,22,-1
 128 0 l 1,9,-1
EndSplineSet
Validated: 1
EndChar

StartChar: e
Encoding: 101 101 72
Width: 512
Flags: W
LayerCount: 2
Back
Fore
SplineSet
379.102539062 256 m 1,0,-1
 393.877929688 320 l 1,1,-1
 381.57421875 362 l 1,2,-1
 344.653320312 384 l 1,3,-1
 280.653320312 384 l 1,4,-1
 209.265625 352 l 1,5,-1
 169.877929688 320 l 1,6,-1
 123.102539062 256 l 1,7,-1
 379.102539062 256 l 1,0,-1
128 0 m 1,8,-1
 71.3876953125 32 l 1,9,-1
 46.775390625 64 l 1,10,-1
 29.55078125 128 l 1,11,-1
 59.1025390625 256 l 1,12,-1
 152.653320312 384 l 1,13,-1
 295.428710938 448 l 1,14,-1
 359.428710938 448 l 1,15,-1
 416.041015625 416 l 1,16,-1
 440.653320312 384 l 1,17,-1
 457.877929688 320 l 1,18,-1
 428.327148438 192 l 1,19,-1
 108.327148438 192 l 1,20,-1
 93.55078125 128 l 1,21,-1
 104.624023438 85 l 1,22,-1
 142.775390625 64 l 1,23,-1
 398.775390625 64 l 1,24,-1
 384 0 l 1,25,-1
 128 0 l 1,8,-1
EndSplineSet
Validated: 1
EndChar

StartChar: f
Encoding: 102 102 73
Width: 448
Flags: W
LayerCount: 2
Back
Fore
SplineSet
64 0 m 1,0,-1
 152.653320312 384 l 1,1,-1
 88.6533203125 384 l 1,2,-1
 103.428710938 448 l 1,3,-1
 167.428710938 448 l 1,4,-1
 214.204101562 512 l 1,5,-1
 253.592773438 544 l 1,6,-1
 324.98046875 576 l 1,7,-1
 452.98046875 576 l 1,8,-1
 438.204101562 512 l 1,9,-1
 310.204101562 512 l 1,10,-1
 262.125 490 l 1,11,-1
 231.428710938 448 l 1,12,-1
 359.428710938 448 l 1,13,-1
 344.653320312 384 l 1,14,-1
 216.653320312 384 l 1,15,-1
 128 0 l 1,16,-1
 64 0 l 1,0,-1
EndSplineSet
Validated: 1
EndChar

StartChar: g
Encoding: 103 103 74
Width: 512
Flags: W
LayerCount: 2
Back
Fore
SplineSet
206.775390625 64 m 1,0,-1
 349.55078125 128 l 1,1,-1
 408.653320312 384 l 1,2,-1
 280.653320312 384 l 1,3,-1
 209.265625 352 l 1,4,-1
 169.877929688 320 l 1,5,-1
 123.102539062 256 l 1,6,-1
 93.55078125 128 l 1,7,-1
 142.775390625 64 l 1,8,-1
 206.775390625 64 l 1,0,-1
19.6728515625 -192 m 1,9,-1
 34.44921875 -128 l 1,10,-1
 162.44921875 -128 l 1,11,-1
 233.836914062 -96 l 1,12,-1
 273.224609375 -64 l 1,13,-1
 320 0 l 1,14,-1
 334.775390625 64 l 1,15,-1
 192 0 l 1,16,-1
 128 0 l 1,17,-1
 71.3876953125 32 l 1,18,-1
 46.775390625 64 l 1,19,-1
 29.55078125 128 l 1,20,-1
 59.1025390625 256 l 1,21,-1
 152.653320312 384 l 1,22,-1
 295.428710938 448 l 1,23,-1
 487.428710938 448 l 1,24,-1
 384 0 l 1,25,-1
 290.44921875 -128 l 1,26,-1
 147.672851562 -192 l 1,27,-1
 19.6728515625 -192 l 1,9,-1
EndSplineSet
Validated: 1
EndChar

StartChar: h
Encoding: 104 104 75
Width: 512
Flags: W
LayerCount: 2
Back
Fore
SplineSet
0 0 m 1,0,-1
 132.98046875 576 l 1,1,-1
 196.98046875 576 l 1,2,-1
 152.653320312 384 l 1,3,-1
 295.428710938 448 l 1,4,-1
 359.428710938 448 l 1,5,-1
 416.041015625 416 l 1,6,-1
 440.653320312 384 l 1,7,-1
 457.877929688 320 l 1,8,-1
 384 0 l 1,9,-1
 320 0 l 1,10,-1
 393.877929688 320 l 1,11,-1
 344.653320312 384 l 1,12,-1
 280.653320312 384 l 1,13,-1
 137.877929688 320 l 1,14,-1
 64 0 l 1,15,-1
 0 0 l 1,0,-1
EndSplineSet
Validated: 1
EndChar

StartChar: i
Encoding: 105 105 76
Width: 192
Flags: W
LayerCount: 2
Back
Fore
SplineSet
0 0 m 1,0,-1
 103.428710938 448 l 1,1,-1
 167.428710938 448 l 1,2,-1
 64 0 l 1,3,-1
 0 0 l 1,0,-1
118.204101562 512 m 1,4,-1
 132.98046875 576 l 1,5,-1
 196.98046875 576 l 1,6,-1
 182.204101562 512 l 1,7,-1
 118.204101562 512 l 1,4,-1
EndSplineSet
Validated: 1
EndChar

StartChar: j
Encoding: 106 106 77
Width: 320
Flags: W
LayerCount: 2
Back
Fore
SplineSet
-29.55078125 -128 m 1,0,-1
 -14.775390625 -64 l 1,1,-1
 49.224609375 -64 l 1,2,-1
 96.3037109375 -42 l 1,3,-1
 128 0 l 1,4,-1
 231.428710938 448 l 1,5,-1
 295.428710938 448 l 1,6,-1
 192 0 l 1,7,-1
 145.224609375 -64 l 1,8,-1
 105.836914062 -96 l 1,9,-1
 34.44921875 -128 l 1,10,-1
 -29.55078125 -128 l 1,0,-1
246.204101562 512 m 1,11,-1
 260.98046875 576 l 1,12,-1
 324.98046875 576 l 1,13,-1
 310.204101562 512 l 1,14,-1
 246.204101562 512 l 1,11,-1
EndSplineSet
Validated: 1
EndChar

StartChar: k
Encoding: 107 107 78
Width: 448
Flags: W
LayerCount: 2
Back
Fore
SplineSet
0 0 m 1,0,-1
 132.98046875 576 l 1,1,-1
 196.98046875 576 l 1,2,-1
 123.102539062 256 l 1,3,-1
 359.428710938 448 l 1,4,-1
 423.428710938 448 l 1,5,-1
 416.041015625 416 l 1,6,-1
 199.408203125 240 l 1,7,-1
 334.775390625 64 l 1,8,-1
 320 0 l 1,9,-1
 288 0 l 1,10,-1
 115.71484375 224 l 1,11,-1
 64 0 l 1,12,-1
 0 0 l 1,0,-1
EndSplineSet
Validated: 1
EndChar

StartChar: l
Encoding: 108 108 79
Width: 192
Flags: W
LayerCount: 2
Back
Fore
SplineSet
0 0 m 1,0,-1
 132.98046875 576 l 1,1,-1
 196.98046875 576 l 1,2,-1
 64 0 l 1,3,-1
 0 0 l 1,0,-1
EndSplineSet
Validated: 1
EndChar

StartChar: m
Encoding: 109 109 80
Width: 704
Flags: W
LayerCount: 2
Back
Fore
SplineSet
0 0 m 1,0,-1
 103.428710938 448 l 1,1,-1
 167.428710938 448 l 1,2,-1
 152.653320312 384 l 1,3,-1
 295.428710938 448 l 1,4,-1
 352.041015625 416 l 1,5,-1
 376.653320312 384 l 1,6,-1
 379.65234375 371 l 1,7,-1
 551.428710938 448 l 1,8,-1
 608.041015625 416 l 1,9,-1
 632.653320312 384 l 1,10,-1
 649.877929688 320 l 1,11,-1
 576 0 l 1,12,-1
 512 0 l 1,13,-1
 585.877929688 320 l 1,14,-1
 573.57421875 362 l 1,15,-1
 536.653320312 384 l 1,16,-1
 393.877929688 320 l 1,17,-1
 320 0 l 1,18,-1
 256 0 l 1,19,-1
 329.877929688 320 l 1,20,-1
 317.57421875 362 l 1,21,-1
 280.653320312 384 l 1,22,-1
 137.877929688 320 l 1,23,-1
 64 0 l 1,24,-1
 0 0 l 1,0,-1
EndSplineSet
Validated: 1
EndChar

StartChar: n
Encoding: 110 110 81
Width: 512
Flags: W
LayerCount: 2
Back
Fore
SplineSet
0 0 m 1,0,-1
 103.428710938 448 l 1,1,-1
 167.428710938 448 l 1,2,-1
 152.653320312 384 l 1,3,-1
 295.428710938 448 l 1,4,-1
 359.428710938 448 l 1,5,-1
 416.041015625 416 l 1,6,-1
 440.653320312 384 l 1,7,-1
 457.877929688 320 l 1,8,-1
 384 0 l 1,9,-1
 320 0 l 1,10,-1
 393.877929688 320 l 1,11,-1
 344.653320312 384 l 1,12,-1
 280.653320312 384 l 1,13,-1
 137.877929688 320 l 1,14,-1
 64 0 l 1,15,-1
 0 0 l 1,0,-1
EndSplineSet
Validated: 1
EndChar

StartChar: o
Encoding: 111 111 82
Width: 576
Flags: W
LayerCount: 2
Back
Fore
SplineSet
270.775390625 64 m 1,0,-1
 342.163085938 96 l 1,1,-1
 381.55078125 128 l 1,2,-1
 428.327148438 192 l 1,3,-1
 443.102539062 256 l 1,4,-1
 425.877929688 320 l 1,5,-1
 401.265625 352 l 1,6,-1
 344.653320312 384 l 1,7,-1
 280.653320312 384 l 1,8,-1
 209.265625 352 l 1,9,-1
 169.877929688 320 l 1,10,-1
 123.102539062 256 l 1,11,-1
 108.327148438 192 l 1,12,-1
 125.55078125 128 l 1,13,-1
 150.163085938 96 l 1,14,-1
 206.775390625 64 l 1,15,-1
 270.775390625 64 l 1,0,-1
192 0 m 1,16,-1
 78.775390625 64 l 1,17,-1
 44.3271484375 192 l 1,18,-1
 59.1025390625 256 l 1,19,-1
 152.653320312 384 l 1,20,-1
 295.428710938 448 l 1,21,-1
 359.428710938 448 l 1,22,-1
 472.653320312 384 l 1,23,-1
 507.102539062 256 l 1,24,-1
 492.327148438 192 l 1,25,-1
 398.775390625 64 l 1,26,-1
 256 0 l 1,27,-1
 192 0 l 1,16,-1
EndSplineSet
Validated: 1
EndChar

StartChar: p
Encoding: 112 112 83
Width: 512
Flags: W
LayerCount: 2
Back
Fore
SplineSet
206.775390625 64 m 1,0,-1
 278.163085938 96 l 1,1,-1
 317.55078125 128 l 1,2,-1
 364.327148438 192 l 1,3,-1
 393.877929688 320 l 1,4,-1
 381.57421875 362 l 1,5,-1
 344.653320312 384 l 1,6,-1
 280.653320312 384 l 1,7,-1
 137.877929688 320 l 1,8,-1
 78.775390625 64 l 1,9,-1
 206.775390625 64 l 1,0,-1
-44.3271484375 -192 m 1,10,-1
 103.428710938 448 l 1,11,-1
 167.428710938 448 l 1,12,-1
 152.653320312 384 l 1,13,-1
 295.428710938 448 l 1,14,-1
 359.428710938 448 l 1,15,-1
 416.041015625 416 l 1,16,-1
 440.653320312 384 l 1,17,-1
 457.877929688 320 l 1,18,-1
 428.327148438 192 l 1,19,-1
 334.775390625 64 l 1,20,-1
 192 0 l 1,21,-1
 64 0 l 1,22,-1
 19.6728515625 -192 l 1,23,-1
 -44.3271484375 -192 l 1,10,-1
EndSplineSet
Validated: 1
EndChar

StartChar: q
Encoding: 113 113 84
Width: 512
Flags: W
LayerCount: 2
Back
Fore
SplineSet
206.775390625 64 m 1,0,-1
 349.55078125 128 l 1,1,-1
 408.653320312 384 l 1,2,-1
 280.653320312 384 l 1,3,-1
 209.265625 352 l 1,4,-1
 169.877929688 320 l 1,5,-1
 123.102539062 256 l 1,6,-1
 93.55078125 128 l 1,7,-1
 104.624023438 85 l 1,8,-1
 142.775390625 64 l 1,9,-1
 206.775390625 64 l 1,0,-1
275.672851562 -192 m 1,10,-1
 334.775390625 64 l 1,11,-1
 192 0 l 1,12,-1
 128 0 l 1,13,-1
 71.3876953125 32 l 1,14,-1
 46.775390625 64 l 1,15,-1
 29.55078125 128 l 1,16,-1
 59.1025390625 256 l 1,17,-1
 152.653320312 384 l 1,18,-1
 295.428710938 448 l 1,19,-1
 487.428710938 448 l 1,20,-1
 339.672851562 -192 l 1,21,-1
 275.672851562 -192 l 1,10,-1
EndSplineSet
Validated: 1
EndChar

StartChar: r
Encoding: 114 114 85
Width: 384
Flags: W
LayerCount: 2
Back
Fore
SplineSet
0 0 m 1,0,-1
 103.428710938 448 l 1,1,-1
 167.428710938 448 l 1,2,-1
 152.653320312 384 l 1,3,-1
 295.428710938 448 l 1,4,-1
 359.428710938 448 l 1,5,-1
 344.653320312 384 l 1,6,-1
 280.653320312 384 l 1,7,-1
 209.265625 352 l 1,8,-1
 169.877929688 320 l 1,9,-1
 123.102539062 256 l 1,10,-1
 64 0 l 1,11,-1
 0 0 l 1,0,-1
EndSplineSet
Validated: 1
EndChar

StartChar: s
Encoding: 115 115 86
Width: 448
Flags: W
LayerCount: 2
Back
Fore
SplineSet
0 0 m 1,0,-1
 14.775390625 64 l 1,1,-1
 206.775390625 64 l 1,2,-1
 253.624023438 85 l 1,3,-1
 285.55078125 128 l 1,4,-1
 273.248046875 170 l 1,5,-1
 236.327148438 192 l 1,6,-1
 172.327148438 192 l 1,7,-1
 115.71484375 224 l 1,8,-1
 91.1025390625 256 l 1,9,-1
 73.8779296875 320 l 1,10,-1
 120.653320312 384 l 1,11,-1
 160.041015625 416 l 1,12,-1
 231.428710938 448 l 1,13,-1
 423.428710938 448 l 1,14,-1
 408.653320312 384 l 1,15,-1
 216.653320312 384 l 1,16,-1
 168.57421875 362 l 1,17,-1
 137.877929688 320 l 1,18,-1
 148.950195312 277 l 1,19,-1
 187.102539062 256 l 1,20,-1
 251.102539062 256 l 1,21,-1
 307.71484375 224 l 1,22,-1
 332.327148438 192 l 1,23,-1
 349.55078125 128 l 1,24,-1
 302.775390625 64 l 1,25,-1
 263.387695312 32 l 1,26,-1
 192 0 l 1,27,-1
 0 0 l 1,0,-1
EndSplineSet
Validated: 1
EndChar

StartChar: t
Encoding: 116 116 87
Width: 448
Flags: W
LayerCount: 2
Back
Fore
SplineSet
192 0 m 1,0,-1
 135.387695312 32 l 1,1,-1
 110.775390625 64 l 1,2,-1
 93.55078125 128 l 1,3,-1
 152.653320312 384 l 1,4,-1
 88.6533203125 384 l 1,5,-1
 103.428710938 448 l 1,6,-1
 167.428710938 448 l 1,7,-1
 196.98046875 576 l 1,8,-1
 260.98046875 576 l 1,9,-1
 231.428710938 448 l 1,10,-1
 423.428710938 448 l 1,11,-1
 408.653320312 384 l 1,12,-1
 216.653320312 384 l 1,13,-1
 157.55078125 128 l 1,14,-1
 168.624023438 85 l 1,15,-1
 206.775390625 64 l 1,16,-1
 334.775390625 64 l 1,17,-1
 320 0 l 1,18,-1
 192 0 l 1,0,-1
EndSplineSet
Validated: 1
EndChar

StartChar: u
Encoding: 117 117 88
Width: 512
Flags: W
LayerCount: 2
Back
Fore
SplineSet
128 0 m 1,0,-1
 71.3876953125 32 l 1,1,-1
 46.775390625 64 l 1,2,-1
 29.55078125 128 l 1,3,-1
 103.428710938 448 l 1,4,-1
 167.428710938 448 l 1,5,-1
 93.55078125 128 l 1,6,-1
 104.624023438 85 l 1,7,-1
 142.775390625 64 l 1,8,-1
 206.775390625 64 l 1,9,-1
 349.55078125 128 l 1,10,-1
 423.428710938 448 l 1,11,-1
 487.428710938 448 l 1,12,-1
 384 0 l 1,13,-1
 320 0 l 1,14,-1
 334.775390625 64 l 1,15,-1
 192 0 l 1,16,-1
 128 0 l 1,0,-1
EndSplineSet
Validated: 1
EndChar

StartChar: v
Encoding: 118 118 89
Width: 512
Flags: W
LayerCount: 2
Back
Fore
SplineSet
160 0 m 1,0,-1
 73.8779296875 320 l 1,1,-1
 103.428710938 448 l 1,2,-1
 167.428710938 448 l 1,3,-1
 137.877929688 320 l 1,4,-1
 198.163085938 96 l 1,5,-1
 455.428710938 448 l 1,6,-1
 487.428710938 448 l 1,7,-1
 472.653320312 384 l 1,8,-1
 192 0 l 1,9,-1
 160 0 l 1,0,-1
EndSplineSet
Validated: 1
EndChar

StartChar: w
Encoding: 119 119 90
Width: 704
Flags: W
LayerCount: 2
Back
Fore
SplineSet
160 0 m 1,0,-1
 73.8779296875 320 l 1,1,-1
 103.428710938 448 l 1,2,-1
 167.428710938 448 l 1,3,-1
 137.877929688 320 l 1,4,-1
 189.55078125 128 l 1,5,-1
 329.877929688 320 l 1,6,-1
 359.428710938 448 l 1,7,-1
 423.428710938 448 l 1,8,-1
 393.877929688 320 l 1,9,-1
 445.55078125 128 l 1,10,-1
 585.877929688 320 l 1,11,-1
 615.428710938 448 l 1,12,-1
 679.428710938 448 l 1,13,-1
 649.877929688 320 l 1,14,-1
 416 0 l 1,15,-1
 347.102539062 256 l 1,16,-1
 160 0 l 1,17,-1
 160 0 l 1,0,-1
EndSplineSet
Validated: 5
EndChar

StartChar: x
Encoding: 120 120 91
Width: 512
Flags: W
LayerCount: 2
Back
Fore
SplineSet
0 0 m 1,0,-1
 14.775390625 64 l 1,1,-1
 172.327148438 192 l 1,2,-1
 172.327148438 192 l 1,3,-1
 211.71484375 224 l 1,4,-1
 88.6533203125 384 l 1,5,-1
 103.428710938 448 l 1,6,-1
 135.428710938 448 l 1,7,-1
 258.490234375 288 l 1,8,-1
 455.428710938 448 l 1,9,-1
 487.428710938 448 l 1,10,-1
 472.653320312 384 l 1,11,-1
 275.71484375 224 l 1,12,-1
 299.327148438 192 l 1,13,-1
 300.327148438 192 l 1,14,-1
 398.775390625 64 l 1,15,-1
 384 0 l 1,16,-1
 352 0 l 1,17,-1
 228.938476562 160 l 1,18,-1
 32 0 l 1,19,-1
 0 0 l 1,0,-1
EndSplineSet
Validated: 5
EndChar

StartChar: y
Encoding: 121 121 92
Width: 512
Flags: W
LayerCount: 2
Back
Fore
SplineSet
-108.327148438 -192 m 1,0,-1
 -93.55078125 -128 l 1,1,-1
 -29.55078125 -128 l 1,2,-1
 41.8369140625 -96 l 1,3,-1
 81.224609375 -64 l 1,4,-1
 128 0 l 1,5,-1
 142.775390625 64 l 1,6,-1
 73.8779296875 320 l 1,7,-1
 103.428710938 448 l 1,8,-1
 167.428710938 448 l 1,9,-1
 137.877929688 320 l 1,10,-1
 198.163085938 96 l 1,11,-1
 455.428710938 448 l 1,12,-1
 487.428710938 448 l 1,13,-1
 472.653320312 384 l 1,14,-1
 98.44921875 -128 l 1,15,-1
 -44.3271484375 -192 l 1,16,-1
 -108.327148438 -192 l 1,0,-1
EndSplineSet
Validated: 1
EndChar

StartChar: z
Encoding: 122 122 93
Width: 448
Flags: W
LayerCount: 2
Back
Fore
SplineSet
0 0 m 1,0,-1
 22.1630859375 96 l 1,1,-1
 376.653320312 384 l 1,2,-1
 88.6533203125 384 l 1,3,-1
 103.428710938 448 l 1,4,-1
 423.428710938 448 l 1,5,-1
 393.877929688 320 l 1,6,-1
 78.775390625 64 l 1,7,-1
 334.775390625 64 l 1,8,-1
 320 0 l 1,9,-1
 0 0 l 1,0,-1
EndSplineSet
Validated: 1
EndChar

StartChar: braceleft
Encoding: 123 123 94
Width: 320
Flags: W
LayerCount: 2
Back
Fore
SplineSet
113.224609375 -64 m 1,0,-1
 64 0 l 1,1,-1
 115.71484375 224 l 1,2,-1
 59.1025390625 256 l 1,3,-1
 73.8779296875 320 l 1,4,-1
 145.265625 352 l 1,5,-1
 196.98046875 576 l 1,6,-1
 275.755859375 640 l 1,7,-1
 339.755859375 640 l 1,8,-1
 324.98046875 576 l 1,9,-1
 260.98046875 576 l 1,10,-1
 209.265625 352 l 1,11,-1
 137.877929688 320 l 1,12,-1
 123.102539062 256 l 1,13,-1
 179.71484375 224 l 1,14,-1
 128 0 l 1,15,-1
 192 0 l 1,16,-1
 177.224609375 -64 l 1,17,-1
 113.224609375 -64 l 1,0,-1
EndSplineSet
Validated: 1
EndChar

StartChar: bar
Encoding: 124 124 95
Width: 192
Flags: W
LayerCount: 2
Back
Fore
SplineSet
-14.775390625 -64 m 1,0,-1
 147.755859375 640 l 1,1,-1
 211.755859375 640 l 1,2,-1
 49.224609375 -64 l 1,3,-1
 -14.775390625 -64 l 1,0,-1
EndSplineSet
Validated: 1
EndChar

StartChar: braceright
Encoding: 125 125 96
Width: 320
Flags: W
LayerCount: 2
Back
Fore
SplineSet
-14.775390625 -64 m 1,0,-1
 0 0 l 1,1,-1
 64 0 l 1,2,-1
 115.71484375 224 l 1,3,-1
 187.102539062 256 l 1,4,-1
 201.877929688 320 l 1,5,-1
 145.265625 352 l 1,6,-1
 196.98046875 576 l 1,7,-1
 132.98046875 576 l 1,8,-1
 147.755859375 640 l 1,9,-1
 211.755859375 640 l 1,10,-1
 260.98046875 576 l 1,11,-1
 209.265625 352 l 1,12,-1
 265.877929688 320 l 1,13,-1
 251.102539062 256 l 1,14,-1
 179.71484375 224 l 1,15,-1
 128 0 l 1,16,-1
 49.224609375 -64 l 1,17,-1
 -14.775390625 -64 l 1,0,-1
EndSplineSet
Validated: 1
EndChar

StartChar: asciitilde
Encoding: 126 126 97
Width: 512
Flags: W
LayerCount: 2
Back
Fore
SplineSet
150.204101562 512 m 1,0,-1
 164.98046875 576 l 1,1,-1
 204.368164062 608 l 1,2,-1
 275.755859375 640 l 1,3,-1
 388.98046875 576 l 1,4,-1
 460.368164062 608 l 1,5,-1
 499.755859375 640 l 1,6,-1
 484.98046875 576 l 1,7,-1
 445.592773438 544 l 1,8,-1
 374.204101562 512 l 1,9,-1
 260.98046875 576 l 1,10,-1
 189.592773438 544 l 1,11,-1
 150.204101562 512 l 1,12,-1
 150.204101562 512 l 1,0,-1
EndSplineSet
Validated: 5
EndChar

StartChar: exclamdown
Encoding: 161 161 98
Width: 192
Flags: W
LayerCount: 2
Back
Fore
SplineSet
0 0 m 1,0,-1
 88.6533203125 384 l 1,1,-1
 152.653320312 384 l 1,2,-1
 64 0 l 1,3,-1
 0 0 l 1,0,-1
103.428710938 448 m 1,4,-1
 132.98046875 576 l 1,5,-1
 196.98046875 576 l 1,6,-1
 167.428710938 448 l 1,7,-1
 103.428710938 448 l 1,4,-1
EndSplineSet
Validated: 1
EndChar

StartChar: cent
Encoding: 162 162 99
Width: 448
Flags: W
LayerCount: 2
Back
Fore
SplineSet
193.245117188 144 m 1,0,-1
 259.735351562 432 l 1,1,-1
 224.041015625 416 l 1,2,-1
 184.653320312 384 l 1,3,-1
 137.877929688 320 l 1,4,-1
 123.102539062 256 l 1,5,-1
 140.327148438 192 l 1,6,-1
 164.938476562 160 l 1,7,-1
 193.245117188 144 l 1,8,-1
 193.245117188 144 l 1,0,-1
160 0 m 1,9,-1
 174.775390625 64 l 1,10,-1
 150.163085938 96 l 1,11,-1
 93.55078125 128 l 1,12,-1
 59.1025390625 256 l 1,13,-1
 73.8779296875 320 l 1,14,-1
 167.428710938 448 l 1,15,-1
 238.81640625 480 l 1,16,-1
 278.204101562 512 l 1,17,-1
 292.98046875 576 l 1,18,-1
 356.98046875 576 l 1,19,-1
 342.204101562 512 l 1,20,-1
 438.204101562 512 l 1,21,-1
 423.428710938 448 l 1,22,-1
 327.428710938 448 l 1,23,-1
 253.55078125 128 l 1,24,-1
 349.55078125 128 l 1,25,-1
 334.775390625 64 l 1,26,-1
 238.775390625 64 l 1,27,-1
 224 0 l 1,28,-1
 160 0 l 1,9,-1
EndSplineSet
Validated: 5
EndChar

StartChar: sterling
Encoding: 163 163 100
Width: 512
Flags: W
LayerCount: 2
Back
Fore
SplineSet
0 0 m 1,0,-1
 7.3876953125 32 l 1,1,-1
 86.1630859375 96 l 1,2,-1
 123.102539062 256 l 1,3,-1
 59.1025390625 256 l 1,4,-1
 73.8779296875 320 l 1,5,-1
 137.877929688 320 l 1,6,-1
 152.653320312 384 l 1,7,-1
 246.204101562 512 l 1,8,-1
 388.98046875 576 l 1,9,-1
 516.98046875 576 l 1,10,-1
 502.204101562 512 l 1,11,-1
 374.204101562 512 l 1,12,-1
 302.81640625 480 l 1,13,-1
 263.428710938 448 l 1,14,-1
 216.653320312 384 l 1,15,-1
 201.877929688 320 l 1,16,-1
 329.877929688 320 l 1,17,-1
 315.102539062 256 l 1,18,-1
 187.102539062 256 l 1,19,-1
 157.55078125 128 l 1,20,-1
 221.55078125 128 l 1,21,-1
 334.775390625 64 l 1,22,-1
 398.775390625 64 l 1,23,-1
 384 0 l 1,24,-1
 320 0 l 1,25,-1
 206.775390625 64 l 1,26,-1
 142.775390625 64 l 1,27,-1
 94.6962890625 42 l 1,28,-1
 64 0 l 1,29,-1
 0 0 l 1,0,-1
EndSplineSet
Validated: 1
EndChar

StartChar: currency
Encoding: 164 164 101
Width: 512
Flags: W
LayerCount: 2
Back
Fore
SplineSet
300.327148438 192 m 1,0,-1
 347.174804688 213 l 1,1,-1
 379.102539062 256 l 1,2,-1
 393.877929688 320 l 1,3,-1
 381.57421875 362 l 1,4,-1
 344.653320312 384 l 1,5,-1
 280.653320312 384 l 1,6,-1
 232.57421875 362 l 1,7,-1
 232.57421875 362 l 1,8,-1
 201.877929688 320 l 1,9,-1
 187.102539062 256 l 1,10,-1
 198.174804688 213 l 1,11,-1
 198.174804688 213 l 1,12,-1
 236.327148438 192 l 1,13,-1
 300.327148438 192 l 1,0,-1
93.55078125 128 m 1,14,-1
 108.327148438 192 l 1,15,-1
 136.096679688 204 l 1,16,-1
 123.102539062 256 l 1,17,-1
 137.877929688 320 l 1,18,-1
 174.65234375 371 l 1,19,-1
 152.653320312 384 l 1,20,-1
 167.428710938 448 l 1,21,-1
 231.428710938 448 l 1,22,-1
 237.426757812 422 l 1,23,-1
 295.428710938 448 l 1,24,-1
 359.428710938 448 l 1,25,-1
 404.426757812 422 l 1,26,-1
 423.428710938 448 l 1,27,-1
 487.428710938 448 l 1,28,-1
 472.653320312 384 l 1,29,-1
 443.65234375 371 l 1,30,-1
 457.877929688 320 l 1,31,-1
 443.102539062 256 l 1,32,-1
 405.096679688 204 l 1,33,-1
 428.327148438 192 l 1,34,-1
 413.55078125 128 l 1,35,-1
 349.55078125 128 l 1,36,-1
 342.323242188 153 l 1,37,-1
 285.55078125 128 l 1,38,-1
 221.55078125 128 l 1,39,-1
 175.323242188 153 l 1,40,-1
 157.55078125 128 l 1,41,-1
 93.55078125 128 l 1,14,-1
EndSplineSet
Validated: 5
EndChar

StartChar: yen
Encoding: 165 165 102
Width: 576
Flags: W
LayerCount: 2
Back
Fore
SplineSet
192 0 m 1,0,-1
 206.775390625 64 l 1,1,-1
 78.775390625 64 l 1,2,-1
 93.55078125 128 l 1,3,-1
 221.55078125 128 l 1,4,-1
 236.327148438 192 l 1,5,-1
 108.327148438 192 l 1,6,-1
 123.102539062 256 l 1,7,-1
 219.102539062 256 l 1,8,-1
 132.98046875 576 l 1,9,-1
 196.98046875 576 l 1,10,-1
 283.102539062 256 l 1,11,-1
 516.98046875 576 l 1,12,-1
 580.98046875 576 l 1,13,-1
 347.102539062 256 l 1,14,-1
 443.102539062 256 l 1,15,-1
 428.327148438 192 l 1,16,-1
 300.327148438 192 l 1,17,-1
 285.55078125 128 l 1,18,-1
 413.55078125 128 l 1,19,-1
 398.775390625 64 l 1,20,-1
 270.775390625 64 l 1,21,-1
 256 0 l 1,22,-1
 192 0 l 1,0,-1
EndSplineSet
Validated: 1
EndChar

StartChar: brokenbar
Encoding: 166 166 103
Width: 192
Flags: W
LayerCount: 2
Back
Fore
SplineSet
-14.775390625 -64 m 1,0,-1
 59.1025390625 256 l 1,1,-1
 123.102539062 256 l 1,2,-1
 49.224609375 -64 l 1,3,-1
 -14.775390625 -64 l 1,0,-1
73.8779296875 320 m 1,4,-1
 147.755859375 640 l 1,5,-1
 211.755859375 640 l 1,6,-1
 137.877929688 320 l 1,7,-1
 73.8779296875 320 l 1,4,-1
EndSplineSet
Validated: 1
EndChar

StartChar: section
Encoding: 167 167 104
Width: 384
Flags: W
LayerCount: 2
Back
Fore
SplineSet
-14.775390625 -64 m 1,0,-1
 0 0 l 1,1,-1
 128 0 l 1,2,-1
 174.848632812 21 l 1,3,-1
 206.775390625 64 l 1,4,-1
 189.55078125 128 l 1,5,-1
 66.490234375 288 l 1,6,-1
 81.265625 352 l 1,7,-1
 120.653320312 384 l 1,8,-1
 152.653320312 384 l 1,9,-1
 137.877929688 320 l 1,10,-1
 236.327148438 192 l 1,11,-1
 270.775390625 64 l 1,12,-1
 224 0 l 1,13,-1
 184.612304688 -32 l 1,14,-1
 113.224609375 -64 l 1,15,-1
 -14.775390625 -64 l 1,0,-1
236.327148438 192 m 1,16,-1
 251.102539062 256 l 1,17,-1
 152.653320312 384 l 1,18,-1
 118.204101562 512 l 1,19,-1
 164.98046875 576 l 1,20,-1
 204.368164062 608 l 1,21,-1
 275.755859375 640 l 1,22,-1
 403.755859375 640 l 1,23,-1
 388.98046875 576 l 1,24,-1
 260.98046875 576 l 1,25,-1
 212.901367188 554 l 1,26,-1
 182.204101562 512 l 1,27,-1
 199.428710938 448 l 1,28,-1
 322.490234375 288 l 1,29,-1
 307.71484375 224 l 1,30,-1
 268.327148438 192 l 1,31,-1
 236.327148438 192 l 1,16,-1
EndSplineSet
Validated: 5
EndChar

StartChar: dieresis
Encoding: 168 168 105
Width: 448
Flags: W
LayerCount: 2
Back
Fore
SplineSet
182.204101562 512 m 1,0,1
 155.204101562 512 155.204101562 512 140.360351562 530 c 0,2,3
 126.747070312 549 126.747070312 549 132.98046875 576 c 0,4,5
 138.982421875 602 138.982421875 602 161.369140625 621 c 0,6,7
 184.755859375 640 184.755859375 640 211.755859375 640 c 0,8,9
 237.755859375 640 237.755859375 640 252.369140625 621 c 256,10,11
 266.982421875 602 266.982421875 602 260.98046875 576 c 0,12,13
 254.747070312 549 254.747070312 549 231.360351562 530 c 0,14,15
 208.204101562 512 208.204101562 512 182.204101562 512 c 1,16,-1
 182.204101562 512 l 1,0,1
374.204101562 512 m 1,17,18
 347.204101562 512 347.204101562 512 332.360351562 530 c 0,19,20
 318.747070312 549 318.747070312 549 324.98046875 576 c 0,21,22
 330.982421875 602 330.982421875 602 353.369140625 621 c 0,23,24
 376.755859375 640 376.755859375 640 403.755859375 640 c 0,25,26
 429.755859375 640 429.755859375 640 444.369140625 621 c 256,27,28
 458.982421875 602 458.982421875 602 452.98046875 576 c 0,29,30
 446.747070312 549 446.747070312 549 423.360351562 530 c 0,31,32
 400.204101562 512 400.204101562 512 374.204101562 512 c 1,33,-1
 374.204101562 512 l 1,17,18
EndSplineSet
Validated: 37
EndChar

StartChar: copyright
Encoding: 169 169 106
Width: 576
Flags: W
LayerCount: 2
Back
Fore
SplineSet
221.55078125 128 m 1,0,-1
 172.327148438 192 l 1,1,-1
 216.653320312 384 l 1,2,-1
 295.428710938 448 l 1,3,-1
 359.428710938 448 l 1,4,-1
 408.653320312 384 l 1,5,-1
 393.877929688 320 l 1,6,-1
 329.877929688 320 l 1,7,-1
 344.653320312 384 l 1,8,-1
 280.653320312 384 l 1,9,-1
 236.327148438 192 l 1,10,-1
 300.327148438 192 l 1,11,-1
 315.102539062 256 l 1,12,-1
 379.102539062 256 l 1,13,-1
 364.327148438 192 l 1,14,-1
 285.55078125 128 l 1,15,-1
 221.55078125 128 l 1,0,-1
270.775390625 64 m 1,16,-1
 342.163085938 96 l 1,17,-1
 381.55078125 128 l 1,18,-1
 428.327148438 192 l 1,19,-1
 472.653320312 384 l 1,20,-1
 455.428710938 448 l 1,21,-1
 430.81640625 480 l 1,22,-1
 374.204101562 512 l 1,23,-1
 310.204101562 512 l 1,24,-1
 238.81640625 480 l 1,25,-1
 199.428710938 448 l 1,26,-1
 152.653320312 384 l 1,27,-1
 108.327148438 192 l 1,28,-1
 125.55078125 128 l 1,29,-1
 150.163085938 96 l 1,30,-1
 206.775390625 64 l 1,31,-1
 270.775390625 64 l 1,16,-1
192 0 m 1,32,-1
 78.775390625 64 l 1,33,-1
 44.3271484375 192 l 1,34,-1
 88.6533203125 384 l 1,35,-1
 182.204101562 512 l 1,36,-1
 324.98046875 576 l 1,37,-1
 388.98046875 576 l 1,38,-1
 502.204101562 512 l 1,39,-1
 536.653320312 384 l 1,40,-1
 492.327148438 192 l 1,41,-1
 398.775390625 64 l 1,42,-1
 256 0 l 1,43,-1
 192 0 l 1,32,-1
EndSplineSet
Validated: 1
EndChar

StartChar: ordfeminine
Encoding: 170 170 107
Width: 320
Flags: W
LayerCount: 2
Back
Fore
SplineSet
201.877929688 320 m 1,0,-1
 216.653320312 384 l 1,1,-1
 152.653320312 384 l 1,2,-1
 137.877929688 320 l 1,3,-1
 201.877929688 320 l 1,0,-1
123.102539062 256 m 1,4,-1
 73.8779296875 320 l 1,5,-1
 88.6533203125 384 l 1,6,-1
 167.428710938 448 l 1,7,-1
 231.428710938 448 l 1,8,-1
 246.204101562 512 l 1,9,-1
 118.204101562 512 l 1,10,-1
 196.98046875 576 l 1,11,-1
 260.98046875 576 l 1,12,-1
 310.204101562 512 l 1,13,-1
 251.102539062 256 l 1,14,-1
 123.102539062 256 l 1,4,-1
EndSplineSet
Validated: 1
EndChar

StartChar: guillemotleft
Encoding: 171 171 108
Width: 512
Flags: W
LayerCount: 2
Back
Fore
SplineSet
110.775390625 64 m 1,0,-1
 59.1025390625 256 l 1,1,-1
 199.428710938 448 l 1,2,-1
 263.428710938 448 l 1,3,-1
 123.102539062 256 l 1,4,-1
 174.775390625 64 l 1,5,-1
 110.775390625 64 l 1,0,-1
302.775390625 64 m 1,6,-1
 251.102539062 256 l 1,7,-1
 391.428710938 448 l 1,8,-1
 455.428710938 448 l 1,9,-1
 315.102539062 256 l 1,10,-1
 366.775390625 64 l 1,11,-1
 302.775390625 64 l 1,6,-1
EndSplineSet
Validated: 1
EndChar

StartChar: logicalnot
Encoding: 172 172 109
Width: 576
Flags: W
LayerCount: 2
Back
Fore
SplineSet
413.55078125 128 m 1,0,-1
 457.877929688 320 l 1,1,-1
 73.8779296875 320 l 1,2,-1
 88.6533203125 384 l 1,3,-1
 536.653320312 384 l 1,4,-1
 477.55078125 128 l 1,5,-1
 413.55078125 128 l 1,0,-1
EndSplineSet
Validated: 1
EndChar

StartChar: registered
Encoding: 174 174 110
Width: 576
Flags: W
LayerCount: 2
Back
Fore
SplineSet
157.55078125 128 m 1,0,-1
 231.428710938 448 l 1,1,-1
 359.428710938 448 l 1,2,-1
 408.653320312 384 l 1,3,-1
 393.877929688 320 l 1,4,-1
 329.877929688 320 l 1,5,-1
 344.653320312 384 l 1,6,-1
 280.653320312 384 l 1,7,-1
 265.877929688 320 l 1,8,-1
 329.877929688 320 l 1,9,-1
 379.102539062 256 l 1,10,-1
 349.55078125 128 l 1,11,-1
 285.55078125 128 l 1,12,-1
 315.102539062 256 l 1,13,-1
 251.102539062 256 l 1,14,-1
 221.55078125 128 l 1,15,-1
 157.55078125 128 l 1,0,-1
270.775390625 64 m 1,16,-1
 342.163085938 96 l 1,17,-1
 381.55078125 128 l 1,18,-1
 428.327148438 192 l 1,19,-1
 472.653320312 384 l 1,20,-1
 455.428710938 448 l 1,21,-1
 430.81640625 480 l 1,22,-1
 374.204101562 512 l 1,23,-1
 310.204101562 512 l 1,24,-1
 238.81640625 480 l 1,25,-1
 199.428710938 448 l 1,26,-1
 152.653320312 384 l 1,27,-1
 108.327148438 192 l 1,28,-1
 125.55078125 128 l 1,29,-1
 150.163085938 96 l 1,30,-1
 206.775390625 64 l 1,31,-1
 270.775390625 64 l 1,16,-1
192 0 m 1,32,-1
 78.775390625 64 l 1,33,-1
 44.3271484375 192 l 1,34,-1
 88.6533203125 384 l 1,35,-1
 182.204101562 512 l 1,36,-1
 324.98046875 576 l 1,37,-1
 388.98046875 576 l 1,38,-1
 502.204101562 512 l 1,39,-1
 536.653320312 384 l 1,40,-1
 492.327148438 192 l 1,41,-1
 398.775390625 64 l 1,42,-1
 256 0 l 1,43,-1
 192 0 l 1,32,-1
EndSplineSet
Validated: 5
EndChar

StartChar: macron
Encoding: 175 175 111
Width: 448
Flags: W
LayerCount: 2
Back
Fore
SplineSet
118.204101562 512 m 1,0,-1
 132.98046875 576 l 1,1,-1
 452.98046875 576 l 1,2,-1
 438.204101562 512 l 1,3,-1
 118.204101562 512 l 1,0,-1
EndSplineSet
Validated: 1
EndChar

StartChar: degree
Encoding: 176 176 112
Width: 384
Flags: W
LayerCount: 2
Back
Fore
SplineSet
216.653320312 384 m 1,0,1
 242.653320312 384 242.653320312 384 265.80859375 402 c 0,2,3
 289.1953125 421 289.1953125 421 295.428710938 448 c 0,4,5
 301.431640625 474 301.431640625 474 286.818359375 493 c 256,6,7
 272.204101562 512 272.204101562 512 246.204101562 512 c 0,8,9
 219.204101562 512 219.204101562 512 195.818359375 493 c 0,10,11
 173.431640625 474 173.431640625 474 167.428710938 448 c 0,12,13
 161.1953125 421 161.1953125 421 174.80859375 402 c 0,14,15
 189.653320312 384 189.653320312 384 216.653320312 384 c 1,16,-1
 216.653320312 384 l 1,0,1
201.877929688 320 m 1,17,-1
 145.265625 352 l 1,18,-1
 120.653320312 384 l 1,19,-1
 103.428710938 448 l 1,20,-1
 150.204101562 512 l 1,21,-1
 189.592773438 544 l 1,22,-1
 260.98046875 576 l 1,23,-1
 317.592773438 544 l 1,24,-1
 342.204101562 512 l 1,25,-1
 359.428710938 448 l 1,26,-1
 312.653320312 384 l 1,27,-1
 273.265625 352 l 1,28,-1
 201.877929688 320 l 1,29,-1
 201.877929688 320 l 1,17,-1
EndSplineSet
Validated: 37
EndChar

StartChar: plusminus
Encoding: 177 177 113
Width: 576
Flags: W
LayerCount: 2
Back
Fore
SplineSet
0 0 m 1,0,-1
 14.775390625 64 l 1,1,-1
 462.775390625 64 l 1,2,-1
 448 0 l 1,3,-1
 0 0 l 1,0,-1
221.55078125 128 m 1,4,-1
 265.877929688 320 l 1,5,-1
 73.8779296875 320 l 1,6,-1
 88.6533203125 384 l 1,7,-1
 280.653320312 384 l 1,8,-1
 324.98046875 576 l 1,9,-1
 388.98046875 576 l 1,10,-1
 344.653320312 384 l 1,11,-1
 536.653320312 384 l 1,12,-1
 521.877929688 320 l 1,13,-1
 329.877929688 320 l 1,14,-1
 285.55078125 128 l 1,15,-1
 221.55078125 128 l 1,4,-1
EndSplineSet
Validated: 1
EndChar

StartChar: uni00B2
Encoding: 178 178 114
Width: 320
Flags: W
LayerCount: 2
Back
Fore
SplineSet
59.1025390625 256 m 1,0,-1
 246.204101562 512 l 1,1,-1
 182.204101562 512 l 1,2,-1
 110.81640625 480 l 1,3,-1
 118.204101562 512 l 1,4,-1
 196.98046875 576 l 1,5,-1
 260.98046875 576 l 1,6,-1
 310.204101562 512 l 1,7,-1
 169.877929688 320 l 1,8,-1
 265.877929688 320 l 1,9,-1
 251.102539062 256 l 1,10,-1
 59.1025390625 256 l 1,0,-1
EndSplineSet
Validated: 1
EndChar

StartChar: uni00B3
Encoding: 179 179 115
Width: 320
Flags: W
LayerCount: 2
Back
Fore
SplineSet
123.102539062 256 m 1,0,-1
 73.8779296875 320 l 1,1,-1
 201.877929688 320 l 1,2,-1
 216.653320312 384 l 1,3,-1
 152.653320312 384 l 1,4,-1
 167.428710938 448 l 1,5,-1
 231.428710938 448 l 1,6,-1
 246.204101562 512 l 1,7,-1
 118.204101562 512 l 1,8,-1
 196.98046875 576 l 1,9,-1
 260.98046875 576 l 1,10,-1
 310.204101562 512 l 1,11,-1
 295.428710938 448 l 1,12,-1
 294.428710938 448 l 1,13,-1
 256.041015625 416 l 1,14,-1
 280.653320312 384 l 1,15,-1
 265.877929688 320 l 1,16,-1
 187.102539062 256 l 1,17,-1
 123.102539062 256 l 1,0,-1
EndSplineSet
Validated: 1
EndChar

StartChar: acute
Encoding: 180 180 116
Width: 448
Flags: W
LayerCount: 2
Back
Fore
SplineSet
182.204101562 512 m 1,0,-1
 189.592773438 544 l 1,1,-1
 403.755859375 640 l 1,2,-1
 467.755859375 640 l 1,3,-1
 460.368164062 608 l 1,4,-1
 246.204101562 512 l 1,5,-1
 182.204101562 512 l 1,0,-1
EndSplineSet
Validated: 1
EndChar

StartChar: mu
Encoding: 181 181 117
Width: 512
Flags: W
LayerCount: 2
Back
Fore
SplineSet
-44.3271484375 -192 m 1,0,-1
 103.428710938 448 l 1,1,-1
 167.428710938 448 l 1,2,-1
 93.55078125 128 l 1,3,-1
 104.624023438 85 l 1,4,-1
 142.775390625 64 l 1,5,-1
 206.775390625 64 l 1,6,-1
 349.55078125 128 l 1,7,-1
 423.428710938 448 l 1,8,-1
 487.428710938 448 l 1,9,-1
 384 0 l 1,10,-1
 320 0 l 1,11,-1
 334.775390625 64 l 1,12,-1
 192 0 l 1,13,-1
 128 0 l 1,14,-1
 71.3876953125 32 l 1,15,-1
 19.6728515625 -192 l 1,16,-1
 -44.3271484375 -192 l 1,0,-1
EndSplineSet
Validated: 1
EndChar

StartChar: paragraph
Encoding: 182 182 118
Width: 512
Flags: W
LayerCount: 2
Back
Fore
SplineSet
192 0 m 1,0,-1
 236.327148438 192 l 1,1,-1
 123.102539062 256 l 1,2,-1
 88.6533203125 384 l 1,3,-1
 182.204101562 512 l 1,4,-1
 324.98046875 576 l 1,5,-1
 516.98046875 576 l 1,6,-1
 384 0 l 1,7,-1
 320 0 l 1,8,-1
 438.204101562 512 l 1,9,-1
 374.204101562 512 l 1,10,-1
 256 0 l 1,11,-1
 192 0 l 1,0,-1
EndSplineSet
Validated: 1
EndChar

StartChar: periodcentered
Encoding: 183 183 119
Width: 320
Flags: W
LayerCount: 2
Back
Fore
SplineSet
187.102539062 256 m 1,0,1
 160.102539062 256 160.102539062 256 145.2578125 274 c 0,2,3
 131.64453125 293 131.64453125 293 137.877929688 320 c 0,4,5
 143.880859375 346 143.880859375 346 166.266601562 365 c 0,6,7
 189.653320312 384 189.653320312 384 216.653320312 384 c 0,8,9
 242.653320312 384 242.653320312 384 257.266601562 365 c 256,10,11
 271.880859375 346 271.880859375 346 265.877929688 320 c 0,12,13
 259.64453125 293 259.64453125 293 236.2578125 274 c 0,14,15
 213.102539062 256 213.102539062 256 187.102539062 256 c 1,16,-1
 187.102539062 256 l 1,0,1
EndSplineSet
Validated: 37
EndChar

StartChar: cedilla
Encoding: 184 184 120
Width: 256
Flags: W
LayerCount: 2
Back
Fore
SplineSet
-36.9384765625 -160 m 1,0,-1
 -29.55078125 -128 l 1,1,-1
 41.8369140625 -96 l 1,2,-1
 49.224609375 -64 l 1,3,-1
 -7.3876953125 -32 l 1,4,-1
 0 0 l 1,5,-1
 64 0 l 1,6,-1
 120.612304688 -32 l 1,7,-1
 98.44921875 -128 l 1,8,-1
 27.0615234375 -160 l 1,9,-1
 -36.9384765625 -160 l 1,0,-1
EndSplineSet
Validated: 1
EndChar

StartChar: uni00B9
Encoding: 185 185 121
Width: 256
Flags: W
LayerCount: 2
Back
Fore
SplineSet
123.102539062 256 m 1,0,-1
 182.204101562 512 l 1,1,-1
 118.204101562 512 l 1,2,-1
 125.592773438 544 l 1,3,-1
 196.98046875 576 l 1,4,-1
 260.98046875 576 l 1,5,-1
 187.102539062 256 l 1,6,-1
 123.102539062 256 l 1,0,-1
EndSplineSet
Validated: 1
EndChar

StartChar: ordmasculine
Encoding: 186 186 122
Width: 320
Flags: W
LayerCount: 2
Back
Fore
SplineSet
201.877929688 320 m 1,0,-1
 246.204101562 512 l 1,1,-1
 182.204101562 512 l 1,2,-1
 137.877929688 320 l 1,3,-1
 201.877929688 320 l 1,0,-1
123.102539062 256 m 1,4,-1
 73.8779296875 320 l 1,5,-1
 118.204101562 512 l 1,6,-1
 196.98046875 576 l 1,7,-1
 260.98046875 576 l 1,8,-1
 310.204101562 512 l 1,9,-1
 265.877929688 320 l 1,10,-1
 187.102539062 256 l 1,11,-1
 123.102539062 256 l 1,4,-1
EndSplineSet
Validated: 1
EndChar

StartChar: guillemotright
Encoding: 187 187 123
Width: 512
Flags: W
LayerCount: 2
Back
Fore
SplineSet
46.775390625 64 m 1,0,-1
 187.102539062 256 l 1,1,-1
 135.428710938 448 l 1,2,-1
 199.428710938 448 l 1,3,-1
 251.102539062 256 l 1,4,-1
 110.775390625 64 l 1,5,-1
 46.775390625 64 l 1,0,-1
238.775390625 64 m 1,6,-1
 379.102539062 256 l 1,7,-1
 327.428710938 448 l 1,8,-1
 391.428710938 448 l 1,9,-1
 443.102539062 256 l 1,10,-1
 302.775390625 64 l 1,11,-1
 238.775390625 64 l 1,6,-1
EndSplineSet
Validated: 1
EndChar

StartChar: onequarter
Encoding: 188 188 124
Width: 640
Flags: W
LayerCount: 2
Back
Fore
SplineSet
448 0 m 1,0,-1
 477.55078125 128 l 1,1,-1
 349.55078125 128 l 1,2,-1
 393.877929688 320 l 1,3,-1
 457.877929688 320 l 1,4,-1
 428.327148438 192 l 1,5,-1
 492.327148438 192 l 1,6,-1
 521.877929688 320 l 1,7,-1
 585.877929688 320 l 1,8,-1
 512 0 l 1,9,-1
 448 0 l 1,0,-1
123.102539062 256 m 1,10,-1
 182.204101562 512 l 1,11,-1
 118.204101562 512 l 1,12,-1
 125.592773438 544 l 1,13,-1
 196.98046875 576 l 1,14,-1
 260.98046875 576 l 1,15,-1
 187.102539062 256 l 1,16,-1
 123.102539062 256 l 1,10,-1
32 0 m 1,17,-1
 452.98046875 576 l 1,18,-1
 516.98046875 576 l 1,19,-1
 96 0 l 1,20,-1
 32 0 l 1,17,-1
EndSplineSet
Validated: 1
EndChar

StartChar: onehalf
Encoding: 189 189 125
Width: 576
Flags: W
LayerCount: 2
Back
Fore
SplineSet
256 0 m 1,0,-1
 443.102539062 256 l 1,1,-1
 379.102539062 256 l 1,2,-1
 307.71484375 224 l 1,3,-1
 315.102539062 256 l 1,4,-1
 393.877929688 320 l 1,5,-1
 457.877929688 320 l 1,6,-1
 507.102539062 256 l 1,7,-1
 366.775390625 64 l 1,8,-1
 462.775390625 64 l 1,9,-1
 448 0 l 1,10,-1
 256 0 l 1,0,-1
123.102539062 256 m 1,11,-1
 182.204101562 512 l 1,12,-1
 118.204101562 512 l 1,13,-1
 125.592773438 544 l 1,14,-1
 196.98046875 576 l 1,15,-1
 260.98046875 576 l 1,16,-1
 187.102539062 256 l 1,17,-1
 123.102539062 256 l 1,11,-1
32 0 m 1,18,-1
 452.98046875 576 l 1,19,-1
 516.98046875 576 l 1,20,-1
 96 0 l 1,21,-1
 32 0 l 1,18,-1
EndSplineSet
Validated: 1
EndChar

StartChar: threequarters
Encoding: 190 190 126
Width: 640
Flags: W
LayerCount: 2
Back
Fore
SplineSet
448 0 m 1,0,-1
 477.55078125 128 l 1,1,-1
 349.55078125 128 l 1,2,-1
 393.877929688 320 l 1,3,-1
 457.877929688 320 l 1,4,-1
 428.327148438 192 l 1,5,-1
 492.327148438 192 l 1,6,-1
 521.877929688 320 l 1,7,-1
 585.877929688 320 l 1,8,-1
 512 0 l 1,9,-1
 448 0 l 1,0,-1
123.102539062 256 m 1,10,-1
 73.8779296875 320 l 1,11,-1
 201.877929688 320 l 1,12,-1
 216.653320312 384 l 1,13,-1
 152.653320312 384 l 1,14,-1
 167.428710938 448 l 1,15,-1
 231.428710938 448 l 1,16,-1
 246.204101562 512 l 1,17,-1
 118.204101562 512 l 1,18,-1
 196.98046875 576 l 1,19,-1
 260.98046875 576 l 1,20,-1
 310.204101562 512 l 1,21,-1
 295.428710938 448 l 1,22,-1
 294.428710938 448 l 1,23,-1
 256.041015625 416 l 1,24,-1
 280.653320312 384 l 1,25,-1
 265.877929688 320 l 1,26,-1
 187.102539062 256 l 1,27,-1
 123.102539062 256 l 1,10,-1
64 0 m 1,28,-1
 484.98046875 576 l 1,29,-1
 548.98046875 576 l 1,30,-1
 128 0 l 1,31,-1
 64 0 l 1,28,-1
EndSplineSet
Validated: 1
EndChar

StartChar: questiondown
Encoding: 191 191 127
Width: 512
Flags: W
LayerCount: 2
Back
Fore
SplineSet
192 0 m 1,0,-1
 78.775390625 64 l 1,1,-1
 29.55078125 128 l 1,2,-1
 44.3271484375 192 l 1,3,-1
 91.1025390625 256 l 1,4,-1
 130.490234375 288 l 1,5,-1
 248.725585938 341 l 1,6,-1
 280.653320312 384 l 1,7,-1
 344.653320312 384 l 1,8,-1
 297.877929688 320 l 1,9,-1
 258.490234375 288 l 1,10,-1
 139.0234375 234 l 1,11,-1
 108.327148438 192 l 1,12,-1
 93.55078125 128 l 1,13,-1
 206.775390625 64 l 1,14,-1
 270.775390625 64 l 1,15,-1
 317.624023438 85 l 1,16,-1
 349.55078125 128 l 1,17,-1
 413.55078125 128 l 1,18,-1
 366.775390625 64 l 1,19,-1
 327.387695312 32 l 1,20,-1
 256 0 l 1,21,-1
 192 0 l 1,0,-1
295.428710938 448 m 1,22,-1
 324.98046875 576 l 1,23,-1
 388.98046875 576 l 1,24,-1
 359.428710938 448 l 1,25,-1
 295.428710938 448 l 1,22,-1
EndSplineSet
Validated: 1
EndChar

StartChar: Agrave
Encoding: 192 192 128
Width: 704
Flags: W
LayerCount: 2
Back
Fore
SplineSet
443.102539062 256 m 1,0,-1
 391.428710938 448 l 1,1,-1
 251.102539062 256 l 1,2,-1
 443.102539062 256 l 1,0,-1
0 0 m 1,3,-1
 420.98046875 576 l 1,4,-1
 576 0 l 1,5,-1
 512 0 l 1,6,-1
 460.327148438 192 l 1,7,-1
 204.327148438 192 l 1,8,-1
 64 0 l 1,9,-1
 0 0 l 1,3,-1
467.755859375 640 m 1,10,-1
 297.918945312 736 l 1,11,-1
 305.306640625 768 l 1,12,-1
 369.306640625 768 l 1,13,-1
 539.143554688 672 l 1,14,-1
 531.755859375 640 l 1,15,-1
 467.755859375 640 l 1,10,-1
EndSplineSet
Validated: 1
EndChar

StartChar: Aacute
Encoding: 193 193 129
Width: 704
Flags: W
LayerCount: 2
Back
Fore
SplineSet
443.102539062 256 m 1,0,-1
 391.428710938 448 l 1,1,-1
 251.102539062 256 l 1,2,-1
 443.102539062 256 l 1,0,-1
0 0 m 1,3,-1
 420.98046875 576 l 1,4,-1
 576 0 l 1,5,-1
 512 0 l 1,6,-1
 460.327148438 192 l 1,7,-1
 204.327148438 192 l 1,8,-1
 64 0 l 1,9,-1
 0 0 l 1,3,-1
339.755859375 640 m 1,10,-1
 347.143554688 672 l 1,11,-1
 561.306640625 768 l 1,12,-1
 625.306640625 768 l 1,13,-1
 617.918945312 736 l 1,14,-1
 403.755859375 640 l 1,15,-1
 339.755859375 640 l 1,10,-1
EndSplineSet
Validated: 1
EndChar

StartChar: Acircumflex
Encoding: 194 194 130
Width: 704
Flags: W
LayerCount: 2
Back
Fore
SplineSet
443.102539062 256 m 1,0,-1
 391.428710938 448 l 1,1,-1
 251.102539062 256 l 1,2,-1
 443.102539062 256 l 1,0,-1
0 0 m 1,3,-1
 420.98046875 576 l 1,4,-1
 576 0 l 1,5,-1
 512 0 l 1,6,-1
 460.327148438 192 l 1,7,-1
 204.327148438 192 l 1,8,-1
 64 0 l 1,9,-1
 0 0 l 1,3,-1
260.98046875 576 m 1,10,-1
 457.918945312 736 l 1,11,-1
 580.98046875 576 l 1,12,-1
 516.98046875 576 l 1,13,-1
 467.755859375 640 l 1,14,-1
 467.755859375 640 l 1,15,-1
 443.143554688 672 l 1,16,-1
 324.98046875 576 l 1,17,-1
 260.98046875 576 l 1,10,-1
EndSplineSet
Validated: 1
EndChar

StartChar: Atilde
Encoding: 195 195 131
Width: 704
Flags: W
LayerCount: 2
Back
Fore
SplineSet
443.102539062 256 m 1,0,-1
 391.428710938 448 l 1,1,-1
 251.102539062 256 l 1,2,-1
 443.102539062 256 l 1,0,-1
0 0 m 1,3,-1
 420.98046875 576 l 1,4,-1
 576 0 l 1,5,-1
 512 0 l 1,6,-1
 460.327148438 192 l 1,7,-1
 204.327148438 192 l 1,8,-1
 64 0 l 1,9,-1
 0 0 l 1,3,-1
275.755859375 640 m 1,10,-1
 290.53125 704 l 1,11,-1
 329.918945312 736 l 1,12,-1
 401.306640625 768 l 1,13,-1
 514.53125 704 l 1,14,-1
 585.918945312 736 l 1,15,-1
 625.306640625 768 l 1,16,-1
 610.53125 704 l 1,17,-1
 571.143554688 672 l 1,18,-1
 499.755859375 640 l 1,19,-1
 386.53125 704 l 1,20,-1
 315.143554688 672 l 1,21,-1
 275.755859375 640 l 1,22,-1
 275.755859375 640 l 1,10,-1
EndSplineSet
Validated: 5
EndChar

StartChar: Adieresis
Encoding: 196 196 132
Width: 704
Flags: W
LayerCount: 2
Back
Fore
SplineSet
443.102539062 256 m 1,0,-1
 391.428710938 448 l 1,1,-1
 251.102539062 256 l 1,2,-1
 443.102539062 256 l 1,0,-1
0 0 m 1,3,-1
 420.98046875 576 l 1,4,-1
 576 0 l 1,5,-1
 512 0 l 1,6,-1
 460.327148438 192 l 1,7,-1
 204.327148438 192 l 1,8,-1
 64 0 l 1,9,-1
 0 0 l 1,3,-1
339.755859375 640 m 1,10,11
 312.755859375 640 312.755859375 640 297.911132812 658 c 0,12,13
 284.297851562 677 284.297851562 677 290.53125 704 c 0,14,15
 296.534179688 730 296.534179688 730 318.919921875 749 c 0,16,17
 342.306640625 768 342.306640625 768 369.306640625 768 c 0,18,19
 395.306640625 768 395.306640625 768 409.919921875 749 c 256,20,21
 424.534179688 730 424.534179688 730 418.53125 704 c 0,22,23
 412.297851562 677 412.297851562 677 388.911132812 658 c 0,24,25
 365.755859375 640 365.755859375 640 339.755859375 640 c 1,26,-1
 339.755859375 640 l 1,10,11
531.755859375 640 m 1,27,28
 504.755859375 640 504.755859375 640 489.911132812 658 c 0,29,30
 476.297851562 677 476.297851562 677 482.53125 704 c 0,31,32
 488.534179688 730 488.534179688 730 510.919921875 749 c 0,33,34
 534.306640625 768 534.306640625 768 561.306640625 768 c 0,35,36
 587.306640625 768 587.306640625 768 601.919921875 749 c 256,37,38
 616.534179688 730 616.534179688 730 610.53125 704 c 0,39,40
 604.297851562 677 604.297851562 677 580.911132812 658 c 0,41,42
 557.755859375 640 557.755859375 640 531.755859375 640 c 1,43,-1
 531.755859375 640 l 1,27,28
EndSplineSet
Validated: 37
EndChar

StartChar: Aring
Encoding: 197 197 133
Width: 704
Flags: W
LayerCount: 2
Back
Fore
SplineSet
443.102539062 256 m 1,0,-1
 391.428710938 448 l 1,1,-1
 251.102539062 256 l 1,2,-1
 443.102539062 256 l 1,0,-1
0 0 m 1,3,-1
 420.98046875 576 l 1,4,-1
 576 0 l 1,5,-1
 512 0 l 1,6,-1
 460.327148438 192 l 1,7,-1
 204.327148438 192 l 1,8,-1
 64 0 l 1,9,-1
 0 0 l 1,3,-1
467.755859375 640 m 1,10,-1
 482.53125 704 l 1,11,-1
 418.53125 704 l 1,12,-1
 403.755859375 640 l 1,13,-1
 467.755859375 640 l 1,10,-1
388.98046875 576 m 1,14,-1
 339.755859375 640 l 1,15,-1
 354.53125 704 l 1,16,-1
 433.306640625 768 l 1,17,-1
 497.306640625 768 l 1,18,-1
 546.53125 704 l 1,19,-1
 531.755859375 640 l 1,20,-1
 452.98046875 576 l 1,21,-1
 388.98046875 576 l 1,14,-1
EndSplineSet
Validated: 5
EndChar

StartChar: AE
Encoding: 198 198 134
Width: 704
Flags: W
LayerCount: 2
Back
Fore
SplineSet
379.102539062 256 m 1,0,-1
 438.204101562 512 l 1,1,-1
 251.102539062 256 l 1,2,-1
 379.102539062 256 l 1,0,-1
0 0 m 1,3,-1
 420.98046875 576 l 1,4,-1
 708.98046875 576 l 1,5,-1
 694.204101562 512 l 1,6,-1
 502.204101562 512 l 1,7,-1
 457.877929688 320 l 1,8,-1
 649.877929688 320 l 1,9,-1
 635.102539062 256 l 1,10,-1
 443.102539062 256 l 1,11,-1
 398.775390625 64 l 1,12,-1
 590.775390625 64 l 1,13,-1
 576 0 l 1,14,-1
 320 0 l 1,15,-1
 364.327148438 192 l 1,16,-1
 204.327148438 192 l 1,17,-1
 64 0 l 1,18,-1
 0 0 l 1,3,-1
EndSplineSet
Validated: 1
EndChar

StartChar: Ccedilla
Encoding: 199 199 135
Width: 512
Flags: W
LayerCount: 2
Back
Fore
SplineSet
155.061523438 -160 m 1,0,-1
 162.44921875 -128 l 1,1,-1
 233.836914062 -96 l 1,2,-1
 241.224609375 -64 l 1,3,-1
 184.612304688 -32 l 1,4,-1
 192 0 l 1,5,-1
 78.775390625 64 l 1,6,-1
 44.3271484375 192 l 1,7,-1
 88.6533203125 384 l 1,8,-1
 182.204101562 512 l 1,9,-1
 324.98046875 576 l 1,10,-1
 516.98046875 576 l 1,11,-1
 502.204101562 512 l 1,12,-1
 310.204101562 512 l 1,13,-1
 238.81640625 480 l 1,14,-1
 199.428710938 448 l 1,15,-1
 152.653320312 384 l 1,16,-1
 108.327148438 192 l 1,17,-1
 125.55078125 128 l 1,18,-1
 150.163085938 96 l 1,19,-1
 206.775390625 64 l 1,20,-1
 398.775390625 64 l 1,21,-1
 384 0 l 1,22,-1
 256 0 l 1,23,-1
 312.612304688 -32 l 1,24,-1
 290.44921875 -128 l 1,25,-1
 219.061523438 -160 l 1,26,-1
 155.061523438 -160 l 1,0,-1
EndSplineSet
Validated: 1
EndChar

StartChar: Egrave
Encoding: 200 200 136
Width: 512
Flags: W
LayerCount: 2
Back
Fore
SplineSet
0 0 m 1,0,-1
 132.98046875 576 l 1,1,-1
 516.98046875 576 l 1,2,-1
 502.204101562 512 l 1,3,-1
 182.204101562 512 l 1,4,-1
 137.877929688 320 l 1,5,-1
 393.877929688 320 l 1,6,-1
 379.102539062 256 l 1,7,-1
 123.102539062 256 l 1,8,-1
 78.775390625 64 l 1,9,-1
 398.775390625 64 l 1,10,-1
 384 0 l 1,11,-1
 0 0 l 1,0,-1
403.755859375 640 m 1,12,-1
 233.918945312 736 l 1,13,-1
 241.306640625 768 l 1,14,-1
 305.306640625 768 l 1,15,-1
 475.143554688 672 l 1,16,-1
 467.755859375 640 l 1,17,-1
 403.755859375 640 l 1,12,-1
EndSplineSet
Validated: 1
EndChar

StartChar: Eacute
Encoding: 201 201 137
Width: 512
Flags: W
LayerCount: 2
Back
Fore
SplineSet
0 0 m 1,0,-1
 132.98046875 576 l 1,1,-1
 516.98046875 576 l 1,2,-1
 502.204101562 512 l 1,3,-1
 182.204101562 512 l 1,4,-1
 137.877929688 320 l 1,5,-1
 393.877929688 320 l 1,6,-1
 379.102539062 256 l 1,7,-1
 123.102539062 256 l 1,8,-1
 78.775390625 64 l 1,9,-1
 398.775390625 64 l 1,10,-1
 384 0 l 1,11,-1
 0 0 l 1,0,-1
211.755859375 640 m 1,12,-1
 219.143554688 672 l 1,13,-1
 433.306640625 768 l 1,14,-1
 497.306640625 768 l 1,15,-1
 489.918945312 736 l 1,16,-1
 275.755859375 640 l 1,17,-1
 211.755859375 640 l 1,12,-1
EndSplineSet
Validated: 1
EndChar

StartChar: Ecircumflex
Encoding: 202 202 138
Width: 512
Flags: W
LayerCount: 2
Back
Fore
SplineSet
0 0 m 1,0,-1
 132.98046875 576 l 1,1,-1
 516.98046875 576 l 1,2,-1
 502.204101562 512 l 1,3,-1
 182.204101562 512 l 1,4,-1
 137.877929688 320 l 1,5,-1
 393.877929688 320 l 1,6,-1
 379.102539062 256 l 1,7,-1
 123.102539062 256 l 1,8,-1
 78.775390625 64 l 1,9,-1
 398.775390625 64 l 1,10,-1
 384 0 l 1,11,-1
 0 0 l 1,0,-1
179.755859375 640 m 1,12,-1
 376.694335938 800 l 1,13,-1
 499.755859375 640 l 1,14,-1
 435.755859375 640 l 1,15,-1
 386.53125 704 l 1,16,-1
 386.53125 704 l 1,17,-1
 361.918945312 736 l 1,18,-1
 243.755859375 640 l 1,19,-1
 179.755859375 640 l 1,12,-1
EndSplineSet
Validated: 1
EndChar

StartChar: Edieresis
Encoding: 203 203 139
Width: 512
Flags: W
LayerCount: 2
Back
Fore
SplineSet
0 0 m 1,0,-1
 132.98046875 576 l 1,1,-1
 516.98046875 576 l 1,2,-1
 502.204101562 512 l 1,3,-1
 182.204101562 512 l 1,4,-1
 137.877929688 320 l 1,5,-1
 393.877929688 320 l 1,6,-1
 379.102539062 256 l 1,7,-1
 123.102539062 256 l 1,8,-1
 78.775390625 64 l 1,9,-1
 398.775390625 64 l 1,10,-1
 384 0 l 1,11,-1
 0 0 l 1,0,-1
243.755859375 640 m 1,12,13
 216.755859375 640 216.755859375 640 201.911132812 658 c 0,14,15
 188.297851562 677 188.297851562 677 194.53125 704 c 0,16,17
 200.534179688 730 200.534179688 730 222.919921875 749 c 0,18,19
 246.306640625 768 246.306640625 768 273.306640625 768 c 0,20,21
 299.306640625 768 299.306640625 768 313.919921875 749 c 256,22,23
 328.534179688 730 328.534179688 730 322.53125 704 c 0,24,25
 316.297851562 677 316.297851562 677 292.911132812 658 c 0,26,27
 269.755859375 640 269.755859375 640 243.755859375 640 c 1,28,-1
 243.755859375 640 l 1,12,13
435.755859375 640 m 1,29,30
 408.755859375 640 408.755859375 640 393.911132812 658 c 0,31,32
 380.297851562 677 380.297851562 677 386.53125 704 c 0,33,34
 392.534179688 730 392.534179688 730 414.919921875 749 c 0,35,36
 438.306640625 768 438.306640625 768 465.306640625 768 c 0,37,38
 491.306640625 768 491.306640625 768 505.919921875 749 c 256,39,40
 520.534179688 730 520.534179688 730 514.53125 704 c 0,41,42
 508.297851562 677 508.297851562 677 484.911132812 658 c 0,43,44
 461.755859375 640 461.755859375 640 435.755859375 640 c 1,45,-1
 435.755859375 640 l 1,29,30
EndSplineSet
Validated: 37
EndChar

StartChar: Igrave
Encoding: 204 204 140
Width: 320
Flags: W
LayerCount: 2
Back
Fore
SplineSet
64 0 m 1,0,-1
 196.98046875 576 l 1,1,-1
 260.98046875 576 l 1,2,-1
 128 0 l 1,3,-1
 64 0 l 1,0,-1
275.755859375 640 m 1,4,-1
 105.918945312 736 l 1,5,-1
 113.306640625 768 l 1,6,-1
 177.306640625 768 l 1,7,-1
 347.143554688 672 l 1,8,-1
 339.755859375 640 l 1,9,-1
 275.755859375 640 l 1,4,-1
EndSplineSet
Validated: 1
EndChar

StartChar: Iacute
Encoding: 205 205 141
Width: 384
Flags: W
LayerCount: 2
Back
Fore
SplineSet
64 0 m 1,0,-1
 196.98046875 576 l 1,1,-1
 260.98046875 576 l 1,2,-1
 128 0 l 1,3,-1
 64 0 l 1,0,-1
147.755859375 640 m 1,4,-1
 155.143554688 672 l 1,5,-1
 369.306640625 768 l 1,6,-1
 433.306640625 768 l 1,7,-1
 425.918945312 736 l 1,8,-1
 211.755859375 640 l 1,9,-1
 147.755859375 640 l 1,4,-1
EndSplineSet
Validated: 1
EndChar

StartChar: Icircumflex
Encoding: 206 206 142
Width: 448
Flags: W
LayerCount: 2
Back
Fore
SplineSet
128 0 m 1,0,-1
 260.98046875 576 l 1,1,-1
 324.98046875 576 l 1,2,-1
 192 0 l 1,3,-1
 128 0 l 1,0,-1
147.755859375 640 m 1,4,-1
 344.694335938 800 l 1,5,-1
 467.755859375 640 l 1,6,-1
 403.755859375 640 l 1,7,-1
 354.53125 704 l 1,8,-1
 354.53125 704 l 1,9,-1
 329.918945312 736 l 1,10,-1
 211.755859375 640 l 1,11,-1
 147.755859375 640 l 1,4,-1
EndSplineSet
Validated: 1
EndChar

StartChar: Idieresis
Encoding: 207 207 143
Width: 448
Flags: W
LayerCount: 2
Back
Fore
SplineSet
128 0 m 1,0,-1
 260.98046875 576 l 1,1,-1
 324.98046875 576 l 1,2,-1
 192 0 l 1,3,-1
 128 0 l 1,0,-1
211.755859375 640 m 1,4,5
 184.755859375 640 184.755859375 640 169.911132812 658 c 0,6,7
 156.297851562 677 156.297851562 677 162.53125 704 c 0,8,9
 168.534179688 730 168.534179688 730 190.919921875 749 c 0,10,11
 214.306640625 768 214.306640625 768 241.306640625 768 c 0,12,13
 267.306640625 768 267.306640625 768 281.919921875 749 c 256,14,15
 296.534179688 730 296.534179688 730 290.53125 704 c 0,16,17
 284.297851562 677 284.297851562 677 260.911132812 658 c 0,18,19
 237.755859375 640 237.755859375 640 211.755859375 640 c 1,20,-1
 211.755859375 640 l 1,4,5
403.755859375 640 m 1,21,22
 376.755859375 640 376.755859375 640 361.911132812 658 c 0,23,24
 348.297851562 677 348.297851562 677 354.53125 704 c 0,25,26
 360.534179688 730 360.534179688 730 382.919921875 749 c 0,27,28
 406.306640625 768 406.306640625 768 433.306640625 768 c 0,29,30
 459.306640625 768 459.306640625 768 473.919921875 749 c 256,31,32
 488.534179688 730 488.534179688 730 482.53125 704 c 0,33,34
 476.297851562 677 476.297851562 677 452.911132812 658 c 0,35,36
 429.755859375 640 429.755859375 640 403.755859375 640 c 1,37,-1
 403.755859375 640 l 1,21,22
EndSplineSet
Validated: 37
EndChar

StartChar: Eth
Encoding: 208 208 144
Width: 640
Flags: W
LayerCount: 2
Back
Fore
SplineSet
334.775390625 64 m 1,0,-1
 406.163085938 96 l 1,1,-1
 445.55078125 128 l 1,2,-1
 492.327148438 192 l 1,3,-1
 536.653320312 384 l 1,4,-1
 519.428710938 448 l 1,5,-1
 494.81640625 480 l 1,6,-1
 438.204101562 512 l 1,7,-1
 246.204101562 512 l 1,8,-1
 201.877929688 320 l 1,9,-1
 329.877929688 320 l 1,10,-1
 315.102539062 256 l 1,11,-1
 187.102539062 256 l 1,12,-1
 142.775390625 64 l 1,13,-1
 334.775390625 64 l 1,0,-1
64 0 m 1,14,-1
 123.102539062 256 l 1,15,-1
 59.1025390625 256 l 1,16,-1
 73.8779296875 320 l 1,17,-1
 137.877929688 320 l 1,18,-1
 196.98046875 576 l 1,19,-1
 452.98046875 576 l 1,20,-1
 566.204101562 512 l 1,21,-1
 600.653320312 384 l 1,22,-1
 556.327148438 192 l 1,23,-1
 462.775390625 64 l 1,24,-1
 320 0 l 1,25,-1
 64 0 l 1,14,-1
EndSplineSet
Validated: 1
EndChar

StartChar: Ntilde
Encoding: 209 209 145
Width: 576
Flags: W
LayerCount: 2
Back
Fore
SplineSet
0 0 m 1,0,-1
 132.98046875 576 l 1,1,-1
 260.98046875 576 l 1,2,-1
 398.775390625 64 l 1,3,-1
 516.98046875 576 l 1,4,-1
 580.98046875 576 l 1,5,-1
 448 0 l 1,6,-1
 352 0 l 1,7,-1
 214.204101562 512 l 1,8,-1
 182.204101562 512 l 1,9,-1
 64 0 l 1,10,-1
 0 0 l 1,0,-1
211.755859375 640 m 1,11,-1
 226.53125 704 l 1,12,-1
 265.918945312 736 l 1,13,-1
 337.306640625 768 l 1,14,-1
 450.53125 704 l 1,15,-1
 521.918945312 736 l 1,16,-1
 561.306640625 768 l 1,17,-1
 546.53125 704 l 1,18,-1
 507.143554688 672 l 1,19,-1
 435.755859375 640 l 1,20,-1
 322.53125 704 l 1,21,-1
 251.143554688 672 l 1,22,-1
 211.755859375 640 l 1,23,-1
 211.755859375 640 l 1,11,-1
EndSplineSet
Validated: 5
EndChar

StartChar: Ograve
Encoding: 210 210 146
Width: 576
Flags: W
LayerCount: 2
Back
Fore
SplineSet
270.775390625 64 m 1,0,-1
 342.163085938 96 l 1,1,-1
 381.55078125 128 l 1,2,-1
 428.327148438 192 l 1,3,-1
 472.653320312 384 l 1,4,-1
 455.428710938 448 l 1,5,-1
 430.81640625 480 l 1,6,-1
 374.204101562 512 l 1,7,-1
 310.204101562 512 l 1,8,-1
 238.81640625 480 l 1,9,-1
 199.428710938 448 l 1,10,-1
 152.653320312 384 l 1,11,-1
 108.327148438 192 l 1,12,-1
 125.55078125 128 l 1,13,-1
 150.163085938 96 l 1,14,-1
 206.775390625 64 l 1,15,-1
 270.775390625 64 l 1,0,-1
192 0 m 1,16,-1
 78.775390625 64 l 1,17,-1
 44.3271484375 192 l 1,18,-1
 88.6533203125 384 l 1,19,-1
 182.204101562 512 l 1,20,-1
 324.98046875 576 l 1,21,-1
 388.98046875 576 l 1,22,-1
 502.204101562 512 l 1,23,-1
 536.653320312 384 l 1,24,-1
 492.327148438 192 l 1,25,-1
 398.775390625 64 l 1,26,-1
 256 0 l 1,27,-1
 192 0 l 1,16,-1
403.755859375 640 m 1,28,-1
 233.918945312 736 l 1,29,-1
 241.306640625 768 l 1,30,-1
 305.306640625 768 l 1,31,-1
 475.143554688 672 l 1,32,-1
 467.755859375 640 l 1,33,-1
 403.755859375 640 l 1,28,-1
EndSplineSet
Validated: 1
EndChar

StartChar: Oacute
Encoding: 211 211 147
Width: 576
Flags: W
LayerCount: 2
Back
Fore
SplineSet
270.775390625 64 m 1,0,-1
 342.163085938 96 l 1,1,-1
 381.55078125 128 l 1,2,-1
 428.327148438 192 l 1,3,-1
 472.653320312 384 l 1,4,-1
 455.428710938 448 l 1,5,-1
 430.81640625 480 l 1,6,-1
 374.204101562 512 l 1,7,-1
 310.204101562 512 l 1,8,-1
 238.81640625 480 l 1,9,-1
 199.428710938 448 l 1,10,-1
 152.653320312 384 l 1,11,-1
 108.327148438 192 l 1,12,-1
 125.55078125 128 l 1,13,-1
 150.163085938 96 l 1,14,-1
 206.775390625 64 l 1,15,-1
 270.775390625 64 l 1,0,-1
192 0 m 1,16,-1
 78.775390625 64 l 1,17,-1
 44.3271484375 192 l 1,18,-1
 88.6533203125 384 l 1,19,-1
 182.204101562 512 l 1,20,-1
 324.98046875 576 l 1,21,-1
 388.98046875 576 l 1,22,-1
 502.204101562 512 l 1,23,-1
 536.653320312 384 l 1,24,-1
 492.327148438 192 l 1,25,-1
 398.775390625 64 l 1,26,-1
 256 0 l 1,27,-1
 192 0 l 1,16,-1
275.755859375 640 m 1,28,-1
 283.143554688 672 l 1,29,-1
 497.306640625 768 l 1,30,-1
 561.306640625 768 l 1,31,-1
 553.918945312 736 l 1,32,-1
 339.755859375 640 l 1,33,-1
 275.755859375 640 l 1,28,-1
EndSplineSet
Validated: 1
EndChar

StartChar: Ocircumflex
Encoding: 212 212 148
Width: 576
Flags: W
LayerCount: 2
Back
Fore
SplineSet
270.775390625 64 m 1,0,-1
 342.163085938 96 l 1,1,-1
 381.55078125 128 l 1,2,-1
 428.327148438 192 l 1,3,-1
 472.653320312 384 l 1,4,-1
 455.428710938 448 l 1,5,-1
 430.81640625 480 l 1,6,-1
 374.204101562 512 l 1,7,-1
 310.204101562 512 l 1,8,-1
 238.81640625 480 l 1,9,-1
 199.428710938 448 l 1,10,-1
 152.653320312 384 l 1,11,-1
 108.327148438 192 l 1,12,-1
 125.55078125 128 l 1,13,-1
 150.163085938 96 l 1,14,-1
 206.775390625 64 l 1,15,-1
 270.775390625 64 l 1,0,-1
192 0 m 1,16,-1
 78.775390625 64 l 1,17,-1
 44.3271484375 192 l 1,18,-1
 88.6533203125 384 l 1,19,-1
 182.204101562 512 l 1,20,-1
 324.98046875 576 l 1,21,-1
 388.98046875 576 l 1,22,-1
 502.204101562 512 l 1,23,-1
 536.653320312 384 l 1,24,-1
 492.327148438 192 l 1,25,-1
 398.775390625 64 l 1,26,-1
 256 0 l 1,27,-1
 192 0 l 1,16,-1
211.755859375 640 m 1,28,-1
 408.694335938 800 l 1,29,-1
 531.755859375 640 l 1,30,-1
 467.755859375 640 l 1,31,-1
 418.53125 704 l 1,32,-1
 418.53125 704 l 1,33,-1
 393.918945312 736 l 1,34,-1
 275.755859375 640 l 1,35,-1
 211.755859375 640 l 1,28,-1
EndSplineSet
Validated: 1
EndChar

StartChar: Otilde
Encoding: 213 213 149
Width: 576
Flags: W
LayerCount: 2
Back
Fore
SplineSet
270.775390625 64 m 1,0,-1
 342.163085938 96 l 1,1,-1
 381.55078125 128 l 1,2,-1
 428.327148438 192 l 1,3,-1
 472.653320312 384 l 1,4,-1
 455.428710938 448 l 1,5,-1
 430.81640625 480 l 1,6,-1
 374.204101562 512 l 1,7,-1
 310.204101562 512 l 1,8,-1
 238.81640625 480 l 1,9,-1
 199.428710938 448 l 1,10,-1
 152.653320312 384 l 1,11,-1
 108.327148438 192 l 1,12,-1
 125.55078125 128 l 1,13,-1
 150.163085938 96 l 1,14,-1
 206.775390625 64 l 1,15,-1
 270.775390625 64 l 1,0,-1
192 0 m 1,16,-1
 78.775390625 64 l 1,17,-1
 44.3271484375 192 l 1,18,-1
 88.6533203125 384 l 1,19,-1
 182.204101562 512 l 1,20,-1
 324.98046875 576 l 1,21,-1
 388.98046875 576 l 1,22,-1
 502.204101562 512 l 1,23,-1
 536.653320312 384 l 1,24,-1
 492.327148438 192 l 1,25,-1
 398.775390625 64 l 1,26,-1
 256 0 l 1,27,-1
 192 0 l 1,16,-1
211.755859375 640 m 1,28,-1
 226.53125 704 l 1,29,-1
 265.918945312 736 l 1,30,-1
 337.306640625 768 l 1,31,-1
 450.53125 704 l 1,32,-1
 521.918945312 736 l 1,33,-1
 561.306640625 768 l 1,34,-1
 546.53125 704 l 1,35,-1
 507.143554688 672 l 1,36,-1
 435.755859375 640 l 1,37,-1
 322.53125 704 l 1,38,-1
 251.143554688 672 l 1,39,-1
 211.755859375 640 l 1,40,-1
 211.755859375 640 l 1,28,-1
EndSplineSet
Validated: 5
EndChar

StartChar: Odieresis
Encoding: 214 214 150
Width: 576
Flags: W
LayerCount: 2
Back
Fore
SplineSet
270.775390625 64 m 1,0,-1
 342.163085938 96 l 1,1,-1
 381.55078125 128 l 1,2,-1
 428.327148438 192 l 1,3,-1
 472.653320312 384 l 1,4,-1
 455.428710938 448 l 1,5,-1
 430.81640625 480 l 1,6,-1
 374.204101562 512 l 1,7,-1
 310.204101562 512 l 1,8,-1
 238.81640625 480 l 1,9,-1
 199.428710938 448 l 1,10,-1
 152.653320312 384 l 1,11,-1
 108.327148438 192 l 1,12,-1
 125.55078125 128 l 1,13,-1
 150.163085938 96 l 1,14,-1
 206.775390625 64 l 1,15,-1
 270.775390625 64 l 1,0,-1
192 0 m 1,16,-1
 78.775390625 64 l 1,17,-1
 44.3271484375 192 l 1,18,-1
 88.6533203125 384 l 1,19,-1
 182.204101562 512 l 1,20,-1
 324.98046875 576 l 1,21,-1
 388.98046875 576 l 1,22,-1
 502.204101562 512 l 1,23,-1
 536.653320312 384 l 1,24,-1
 492.327148438 192 l 1,25,-1
 398.775390625 64 l 1,26,-1
 256 0 l 1,27,-1
 192 0 l 1,16,-1
275.755859375 640 m 1,28,29
 248.755859375 640 248.755859375 640 233.911132812 658 c 0,30,31
 220.297851562 677 220.297851562 677 226.53125 704 c 0,32,33
 232.534179688 730 232.534179688 730 254.919921875 749 c 0,34,35
 278.306640625 768 278.306640625 768 305.306640625 768 c 0,36,37
 331.306640625 768 331.306640625 768 345.919921875 749 c 256,38,39
 360.534179688 730 360.534179688 730 354.53125 704 c 0,40,41
 348.297851562 677 348.297851562 677 324.911132812 658 c 0,42,43
 301.755859375 640 301.755859375 640 275.755859375 640 c 1,44,-1
 275.755859375 640 l 1,28,29
467.755859375 640 m 1,45,46
 440.755859375 640 440.755859375 640 425.911132812 658 c 0,47,48
 412.297851562 677 412.297851562 677 418.53125 704 c 0,49,50
 424.534179688 730 424.534179688 730 446.919921875 749 c 0,51,52
 470.306640625 768 470.306640625 768 497.306640625 768 c 0,53,54
 523.306640625 768 523.306640625 768 537.919921875 749 c 256,55,56
 552.534179688 730 552.534179688 730 546.53125 704 c 0,57,58
 540.297851562 677 540.297851562 677 516.911132812 658 c 0,59,60
 493.755859375 640 493.755859375 640 467.755859375 640 c 1,61,-1
 467.755859375 640 l 1,45,46
EndSplineSet
Validated: 37
EndChar

StartChar: multiply
Encoding: 215 215 151
Width: 512
Flags: W
LayerCount: 2
Back
Fore
SplineSet
22.1630859375 96 m 1,0,-1
 36.9384765625 160 l 1,1,-1
 214.18359375 304 l 1,2,-1
 103.428710938 448 l 1,3,-1
 118.204101562 512 l 1,4,-1
 150.204101562 512 l 1,5,-1
 273.265625 352 l 1,6,-1
 470.204101562 512 l 1,7,-1
 502.204101562 512 l 1,8,-1
 487.428710938 448 l 1,9,-1
 310.18359375 304 l 1,10,-1
 420.938476562 160 l 1,11,-1
 406.163085938 96 l 1,12,-1
 374.163085938 96 l 1,13,-1
 251.102539062 256 l 1,14,-1
 54.1630859375 96 l 1,15,-1
 22.1630859375 96 l 1,0,-1
EndSplineSet
Validated: 1
EndChar

StartChar: Oslash
Encoding: 216 216 152
Width: 576
Flags: W
LayerCount: 2
Back
Fore
SplineSet
270.775390625 64 m 1,0,-1
 342.163085938 96 l 1,1,-1
 381.55078125 128 l 1,2,-1
 428.327148438 192 l 1,3,-1
 472.653320312 384 l 1,4,-1
 130.471679688 106 l 1,5,-1
 206.775390625 64 l 1,6,-1
 270.775390625 64 l 1,0,-1
113.248046875 170 m 1,7,-1
 455.428710938 448 l 1,8,-1
 430.81640625 480 l 1,9,-1
 374.204101562 512 l 1,10,-1
 310.204101562 512 l 1,11,-1
 238.81640625 480 l 1,12,-1
 199.428710938 448 l 1,13,-1
 152.653320312 384 l 1,14,-1
 108.327148438 192 l 1,15,-1
 113.248046875 170 l 1,16,-1
 113.248046875 170 l 1,7,-1
192 0 m 1,17,-1
 78.775390625 64 l 1,18,-1
 39.3876953125 32 l 1,19,-1
 7.3876953125 32 l 1,20,-1
 22.1630859375 96 l 1,21,-1
 61.55078125 128 l 1,22,-1
 44.3271484375 192 l 1,23,-1
 88.6533203125 384 l 1,24,-1
 182.204101562 512 l 1,25,-1
 324.98046875 576 l 1,26,-1
 388.98046875 576 l 1,27,-1
 502.204101562 512 l 1,28,-1
 507.125 490 l 1,29,-1
 534.204101562 512 l 1,30,-1
 566.204101562 512 l 1,31,-1
 551.428710938 448 l 1,32,-1
 524.349609375 426 l 1,33,-1
 536.653320312 384 l 1,34,-1
 492.327148438 192 l 1,35,-1
 398.775390625 64 l 1,36,-1
 256 0 l 1,37,-1
 192 0 l 1,17,-1
EndSplineSet
Validated: 5
EndChar

StartChar: Ugrave
Encoding: 217 217 153
Width: 576
Flags: W
LayerCount: 2
Back
Fore
SplineSet
192 0 m 1,0,-1
 78.775390625 64 l 1,1,-1
 44.3271484375 192 l 1,2,-1
 132.98046875 576 l 1,3,-1
 196.98046875 576 l 1,4,-1
 108.327148438 192 l 1,5,-1
 125.55078125 128 l 1,6,-1
 150.163085938 96 l 1,7,-1
 206.775390625 64 l 1,8,-1
 270.775390625 64 l 1,9,-1
 342.163085938 96 l 1,10,-1
 381.55078125 128 l 1,11,-1
 428.327148438 192 l 1,12,-1
 516.98046875 576 l 1,13,-1
 580.98046875 576 l 1,14,-1
 492.327148438 192 l 1,15,-1
 398.775390625 64 l 1,16,-1
 256 0 l 1,17,-1
 192 0 l 1,0,-1
403.755859375 640 m 1,18,-1
 233.918945312 736 l 1,19,-1
 241.306640625 768 l 1,20,-1
 305.306640625 768 l 1,21,-1
 475.143554688 672 l 1,22,-1
 467.755859375 640 l 1,23,-1
 403.755859375 640 l 1,18,-1
EndSplineSet
Validated: 1
EndChar

StartChar: Uacute
Encoding: 218 218 154
Width: 576
Flags: W
LayerCount: 2
Back
Fore
SplineSet
192 0 m 1,0,-1
 78.775390625 64 l 1,1,-1
 44.3271484375 192 l 1,2,-1
 132.98046875 576 l 1,3,-1
 196.98046875 576 l 1,4,-1
 108.327148438 192 l 1,5,-1
 125.55078125 128 l 1,6,-1
 150.163085938 96 l 1,7,-1
 206.775390625 64 l 1,8,-1
 270.775390625 64 l 1,9,-1
 342.163085938 96 l 1,10,-1
 381.55078125 128 l 1,11,-1
 428.327148438 192 l 1,12,-1
 516.98046875 576 l 1,13,-1
 580.98046875 576 l 1,14,-1
 492.327148438 192 l 1,15,-1
 398.775390625 64 l 1,16,-1
 256 0 l 1,17,-1
 192 0 l 1,0,-1
275.755859375 640 m 1,18,-1
 283.143554688 672 l 1,19,-1
 497.306640625 768 l 1,20,-1
 561.306640625 768 l 1,21,-1
 553.918945312 736 l 1,22,-1
 339.755859375 640 l 1,23,-1
 275.755859375 640 l 1,18,-1
EndSplineSet
Validated: 1
EndChar

StartChar: Ucircumflex
Encoding: 219 219 155
Width: 576
Flags: W
LayerCount: 2
Back
Fore
SplineSet
192 0 m 1,0,-1
 78.775390625 64 l 1,1,-1
 44.3271484375 192 l 1,2,-1
 132.98046875 576 l 1,3,-1
 196.98046875 576 l 1,4,-1
 108.327148438 192 l 1,5,-1
 125.55078125 128 l 1,6,-1
 150.163085938 96 l 1,7,-1
 206.775390625 64 l 1,8,-1
 270.775390625 64 l 1,9,-1
 342.163085938 96 l 1,10,-1
 381.55078125 128 l 1,11,-1
 428.327148438 192 l 1,12,-1
 516.98046875 576 l 1,13,-1
 580.98046875 576 l 1,14,-1
 492.327148438 192 l 1,15,-1
 398.775390625 64 l 1,16,-1
 256 0 l 1,17,-1
 192 0 l 1,0,-1
211.755859375 640 m 1,18,-1
 408.694335938 800 l 1,19,-1
 531.755859375 640 l 1,20,-1
 467.755859375 640 l 1,21,-1
 418.53125 704 l 1,22,-1
 418.53125 704 l 1,23,-1
 393.918945312 736 l 1,24,-1
 275.755859375 640 l 1,25,-1
 211.755859375 640 l 1,18,-1
EndSplineSet
Validated: 1
EndChar

StartChar: Udieresis
Encoding: 220 220 156
Width: 576
Flags: W
LayerCount: 2
Back
Fore
SplineSet
192 0 m 1,0,-1
 78.775390625 64 l 1,1,-1
 44.3271484375 192 l 1,2,-1
 132.98046875 576 l 1,3,-1
 196.98046875 576 l 1,4,-1
 108.327148438 192 l 1,5,-1
 125.55078125 128 l 1,6,-1
 150.163085938 96 l 1,7,-1
 206.775390625 64 l 1,8,-1
 270.775390625 64 l 1,9,-1
 342.163085938 96 l 1,10,-1
 381.55078125 128 l 1,11,-1
 428.327148438 192 l 1,12,-1
 516.98046875 576 l 1,13,-1
 580.98046875 576 l 1,14,-1
 492.327148438 192 l 1,15,-1
 398.775390625 64 l 1,16,-1
 256 0 l 1,17,-1
 192 0 l 1,0,-1
275.755859375 640 m 1,18,19
 248.755859375 640 248.755859375 640 233.911132812 658 c 0,20,21
 220.297851562 677 220.297851562 677 226.53125 704 c 0,22,23
 232.534179688 730 232.534179688 730 254.919921875 749 c 0,24,25
 278.306640625 768 278.306640625 768 305.306640625 768 c 0,26,27
 331.306640625 768 331.306640625 768 345.919921875 749 c 256,28,29
 360.534179688 730 360.534179688 730 354.53125 704 c 0,30,31
 348.297851562 677 348.297851562 677 324.911132812 658 c 0,32,33
 301.755859375 640 301.755859375 640 275.755859375 640 c 1,34,-1
 275.755859375 640 l 1,18,19
467.755859375 640 m 1,35,36
 440.755859375 640 440.755859375 640 425.911132812 658 c 0,37,38
 412.297851562 677 412.297851562 677 418.53125 704 c 0,39,40
 424.534179688 730 424.534179688 730 446.919921875 749 c 0,41,42
 470.306640625 768 470.306640625 768 497.306640625 768 c 0,43,44
 523.306640625 768 523.306640625 768 537.919921875 749 c 256,45,46
 552.534179688 730 552.534179688 730 546.53125 704 c 0,47,48
 540.297851562 677 540.297851562 677 516.911132812 658 c 0,49,50
 493.755859375 640 493.755859375 640 467.755859375 640 c 1,51,-1
 467.755859375 640 l 1,35,36
EndSplineSet
Validated: 37
EndChar

StartChar: Yacute
Encoding: 221 221 157
Width: 576
Flags: W
LayerCount: 2
Back
Fore
SplineSet
192 0 m 1,0,-1
 236.327148438 192 l 1,1,-1
 132.98046875 576 l 1,2,-1
 196.98046875 576 l 1,3,-1
 283.102539062 256 l 1,4,-1
 516.98046875 576 l 1,5,-1
 580.98046875 576 l 1,6,-1
 300.327148438 192 l 1,7,-1
 256 0 l 1,8,-1
 192 0 l 1,0,-1
275.755859375 640 m 1,9,-1
 283.143554688 672 l 1,10,-1
 497.306640625 768 l 1,11,-1
 561.306640625 768 l 1,12,-1
 553.918945312 736 l 1,13,-1
 339.755859375 640 l 1,14,-1
 275.755859375 640 l 1,9,-1
EndSplineSet
Validated: 1
EndChar

StartChar: Thorn
Encoding: 222 222 158
Width: 512
Flags: W
LayerCount: 2
Back
Fore
SplineSet
236.327148438 192 m 1,0,-1
 307.71484375 224 l 1,1,-1
 347.102539062 256 l 1,2,-1
 393.877929688 320 l 1,3,-1
 376.653320312 384 l 1,4,-1
 352.041015625 416 l 1,5,-1
 295.428710938 448 l 1,6,-1
 167.428710938 448 l 1,7,-1
 108.327148438 192 l 1,8,-1
 236.327148438 192 l 1,0,-1
0 0 m 1,9,-1
 132.98046875 576 l 1,10,-1
 196.98046875 576 l 1,11,-1
 182.204101562 512 l 1,12,-1
 310.204101562 512 l 1,13,-1
 423.428710938 448 l 1,14,-1
 457.877929688 320 l 1,15,-1
 364.327148438 192 l 1,16,-1
 221.55078125 128 l 1,17,-1
 93.55078125 128 l 1,18,-1
 64 0 l 1,19,-1
 0 0 l 1,9,-1
EndSplineSet
Validated: 1
EndChar

StartChar: germandbls
Encoding: 223 223 159
Width: 512
Flags: W
LayerCount: 2
Back
Fore
SplineSet
0 0 m 1,0,-1
 103.428710938 448 l 1,1,-1
 150.204101562 512 l 1,2,-1
 189.592773438 544 l 1,3,-1
 260.98046875 576 l 1,4,-1
 324.98046875 576 l 1,5,-1
 381.592773438 544 l 1,6,-1
 406.204101562 512 l 1,7,-1
 423.428710938 448 l 1,8,-1
 376.653320312 384 l 1,9,-1
 297.877929688 320 l 1,10,-1
 420.938476562 160 l 1,11,-1
 413.55078125 128 l 1,12,-1
 366.775390625 64 l 1,13,-1
 327.387695312 32 l 1,14,-1
 256 0 l 1,15,-1
 128 0 l 1,16,-1
 142.775390625 64 l 1,17,-1
 270.775390625 64 l 1,18,-1
 317.624023438 85 l 1,19,-1
 349.55078125 128 l 1,20,-1
 251.102539062 256 l 1,21,-1
 233.877929688 320 l 1,22,-1
 280.653320312 384 l 1,23,-1
 327.501953125 405 l 1,24,-1
 359.428710938 448 l 1,25,-1
 347.125 490 l 1,26,-1
 310.204101562 512 l 1,27,-1
 246.204101562 512 l 1,28,-1
 198.125 490 l 1,29,-1
 167.428710938 448 l 1,30,-1
 64 0 l 1,31,-1
 0 0 l 1,0,-1
EndSplineSet
Validated: 1
EndChar

StartChar: agrave
Encoding: 224 224 160
Width: 512
Flags: W
LayerCount: 2
Back
Fore
SplineSet
206.775390625 64 m 1,0,-1
 349.55078125 128 l 1,1,-1
 364.327148438 192 l 1,2,-1
 172.327148438 192 l 1,3,-1
 124.248046875 170 l 1,4,-1
 93.55078125 128 l 1,5,-1
 104.624023438 85 l 1,6,-1
 142.775390625 64 l 1,7,-1
 206.775390625 64 l 1,0,-1
128 0 m 1,8,-1
 71.3876953125 32 l 1,9,-1
 46.775390625 64 l 1,10,-1
 29.55078125 128 l 1,11,-1
 76.3271484375 192 l 1,12,-1
 115.71484375 224 l 1,13,-1
 187.102539062 256 l 1,14,-1
 379.102539062 256 l 1,15,-1
 393.877929688 320 l 1,16,-1
 381.57421875 362 l 1,17,-1
 344.653320312 384 l 1,18,-1
 152.653320312 384 l 1,19,-1
 167.428710938 448 l 1,20,-1
 359.428710938 448 l 1,21,-1
 416.041015625 416 l 1,22,-1
 440.653320312 384 l 1,23,-1
 457.877929688 320 l 1,24,-1
 384 0 l 1,25,-1
 320 0 l 1,26,-1
 334.775390625 64 l 1,27,-1
 192 0 l 1,28,-1
 128 0 l 1,8,-1
374.204101562 512 m 1,29,-1
 204.368164062 608 l 1,30,-1
 211.755859375 640 l 1,31,-1
 275.755859375 640 l 1,32,-1
 445.592773438 544 l 1,33,-1
 438.204101562 512 l 1,34,-1
 374.204101562 512 l 1,29,-1
EndSplineSet
Validated: 1
EndChar

StartChar: aacute
Encoding: 225 225 161
Width: 512
Flags: W
LayerCount: 2
Back
Fore
SplineSet
206.775390625 64 m 1,0,-1
 349.55078125 128 l 1,1,-1
 364.327148438 192 l 1,2,-1
 172.327148438 192 l 1,3,-1
 124.248046875 170 l 1,4,-1
 93.55078125 128 l 1,5,-1
 104.624023438 85 l 1,6,-1
 142.775390625 64 l 1,7,-1
 206.775390625 64 l 1,0,-1
128 0 m 1,8,-1
 71.3876953125 32 l 1,9,-1
 46.775390625 64 l 1,10,-1
 29.55078125 128 l 1,11,-1
 76.3271484375 192 l 1,12,-1
 115.71484375 224 l 1,13,-1
 187.102539062 256 l 1,14,-1
 379.102539062 256 l 1,15,-1
 393.877929688 320 l 1,16,-1
 381.57421875 362 l 1,17,-1
 344.653320312 384 l 1,18,-1
 152.653320312 384 l 1,19,-1
 167.428710938 448 l 1,20,-1
 359.428710938 448 l 1,21,-1
 416.041015625 416 l 1,22,-1
 440.653320312 384 l 1,23,-1
 457.877929688 320 l 1,24,-1
 384 0 l 1,25,-1
 320 0 l 1,26,-1
 334.775390625 64 l 1,27,-1
 192 0 l 1,28,-1
 128 0 l 1,8,-1
182.204101562 512 m 1,29,-1
 189.592773438 544 l 1,30,-1
 403.755859375 640 l 1,31,-1
 467.755859375 640 l 1,32,-1
 460.368164062 608 l 1,33,-1
 246.204101562 512 l 1,34,-1
 182.204101562 512 l 1,29,-1
EndSplineSet
Validated: 1
EndChar

StartChar: acircumflex
Encoding: 226 226 162
Width: 512
Flags: W
LayerCount: 2
Back
Fore
SplineSet
206.775390625 64 m 1,0,-1
 349.55078125 128 l 1,1,-1
 364.327148438 192 l 1,2,-1
 172.327148438 192 l 1,3,-1
 124.248046875 170 l 1,4,-1
 93.55078125 128 l 1,5,-1
 104.624023438 85 l 1,6,-1
 142.775390625 64 l 1,7,-1
 206.775390625 64 l 1,0,-1
128 0 m 1,8,-1
 71.3876953125 32 l 1,9,-1
 46.775390625 64 l 1,10,-1
 29.55078125 128 l 1,11,-1
 76.3271484375 192 l 1,12,-1
 115.71484375 224 l 1,13,-1
 187.102539062 256 l 1,14,-1
 379.102539062 256 l 1,15,-1
 393.877929688 320 l 1,16,-1
 381.57421875 362 l 1,17,-1
 344.653320312 384 l 1,18,-1
 152.653320312 384 l 1,19,-1
 167.428710938 448 l 1,20,-1
 359.428710938 448 l 1,21,-1
 416.041015625 416 l 1,22,-1
 440.653320312 384 l 1,23,-1
 457.877929688 320 l 1,24,-1
 384 0 l 1,25,-1
 320 0 l 1,26,-1
 334.775390625 64 l 1,27,-1
 192 0 l 1,28,-1
 128 0 l 1,8,-1
182.204101562 512 m 1,29,-1
 379.143554688 672 l 1,30,-1
 502.204101562 512 l 1,31,-1
 438.204101562 512 l 1,32,-1
 388.98046875 576 l 1,33,-1
 388.98046875 576 l 1,34,-1
 364.368164062 608 l 1,35,-1
 246.204101562 512 l 1,36,-1
 182.204101562 512 l 1,29,-1
EndSplineSet
Validated: 5
EndChar

StartChar: atilde
Encoding: 227 227 163
Width: 512
Flags: W
LayerCount: 2
Back
Fore
SplineSet
206.775390625 64 m 1,0,-1
 349.55078125 128 l 1,1,-1
 364.327148438 192 l 1,2,-1
 172.327148438 192 l 1,3,-1
 124.248046875 170 l 1,4,-1
 93.55078125 128 l 1,5,-1
 104.624023438 85 l 1,6,-1
 142.775390625 64 l 1,7,-1
 206.775390625 64 l 1,0,-1
128 0 m 1,8,-1
 71.3876953125 32 l 1,9,-1
 46.775390625 64 l 1,10,-1
 29.55078125 128 l 1,11,-1
 76.3271484375 192 l 1,12,-1
 115.71484375 224 l 1,13,-1
 187.102539062 256 l 1,14,-1
 379.102539062 256 l 1,15,-1
 393.877929688 320 l 1,16,-1
 381.57421875 362 l 1,17,-1
 344.653320312 384 l 1,18,-1
 152.653320312 384 l 1,19,-1
 167.428710938 448 l 1,20,-1
 359.428710938 448 l 1,21,-1
 416.041015625 416 l 1,22,-1
 440.653320312 384 l 1,23,-1
 457.877929688 320 l 1,24,-1
 384 0 l 1,25,-1
 320 0 l 1,26,-1
 334.775390625 64 l 1,27,-1
 192 0 l 1,28,-1
 128 0 l 1,8,-1
150.204101562 512 m 1,29,-1
 164.98046875 576 l 1,30,-1
 204.368164062 608 l 1,31,-1
 275.755859375 640 l 1,32,-1
 388.98046875 576 l 1,33,-1
 460.368164062 608 l 1,34,-1
 499.755859375 640 l 1,35,-1
 484.98046875 576 l 1,36,-1
 445.592773438 544 l 1,37,-1
 374.204101562 512 l 1,38,-1
 260.98046875 576 l 1,39,-1
 189.592773438 544 l 1,40,-1
 150.204101562 512 l 1,41,-1
 150.204101562 512 l 1,29,-1
EndSplineSet
Validated: 5
EndChar

StartChar: adieresis
Encoding: 228 228 164
Width: 512
Flags: W
LayerCount: 2
Back
Fore
SplineSet
206.775390625 64 m 1,0,-1
 349.55078125 128 l 1,1,-1
 364.327148438 192 l 1,2,-1
 172.327148438 192 l 1,3,-1
 124.248046875 170 l 1,4,-1
 93.55078125 128 l 1,5,-1
 104.624023438 85 l 1,6,-1
 142.775390625 64 l 1,7,-1
 206.775390625 64 l 1,0,-1
128 0 m 1,8,-1
 71.3876953125 32 l 1,9,-1
 46.775390625 64 l 1,10,-1
 29.55078125 128 l 1,11,-1
 76.3271484375 192 l 1,12,-1
 115.71484375 224 l 1,13,-1
 187.102539062 256 l 1,14,-1
 379.102539062 256 l 1,15,-1
 393.877929688 320 l 1,16,-1
 381.57421875 362 l 1,17,-1
 344.653320312 384 l 1,18,-1
 152.653320312 384 l 1,19,-1
 167.428710938 448 l 1,20,-1
 359.428710938 448 l 1,21,-1
 416.041015625 416 l 1,22,-1
 440.653320312 384 l 1,23,-1
 457.877929688 320 l 1,24,-1
 384 0 l 1,25,-1
 320 0 l 1,26,-1
 334.775390625 64 l 1,27,-1
 192 0 l 1,28,-1
 128 0 l 1,8,-1
246.204101562 512 m 1,29,30
 219.204101562 512 219.204101562 512 204.360351562 530 c 0,31,32
 190.747070312 549 190.747070312 549 196.98046875 576 c 0,33,34
 202.982421875 602 202.982421875 602 225.369140625 621 c 0,35,36
 248.755859375 640 248.755859375 640 275.755859375 640 c 0,37,38
 301.755859375 640 301.755859375 640 316.369140625 621 c 256,39,40
 330.982421875 602 330.982421875 602 324.98046875 576 c 0,41,42
 318.747070312 549 318.747070312 549 295.360351562 530 c 0,43,44
 272.204101562 512 272.204101562 512 246.204101562 512 c 1,45,-1
 246.204101562 512 l 1,29,30
438.204101562 512 m 1,46,47
 411.204101562 512 411.204101562 512 396.360351562 530 c 0,48,49
 382.747070312 549 382.747070312 549 388.98046875 576 c 0,50,51
 394.982421875 602 394.982421875 602 417.369140625 621 c 0,52,53
 440.755859375 640 440.755859375 640 467.755859375 640 c 0,54,55
 493.755859375 640 493.755859375 640 508.369140625 621 c 256,56,57
 522.982421875 602 522.982421875 602 516.98046875 576 c 0,58,59
 510.747070312 549 510.747070312 549 487.360351562 530 c 0,60,61
 464.204101562 512 464.204101562 512 438.204101562 512 c 1,62,-1
 438.204101562 512 l 1,46,47
EndSplineSet
Validated: 37
EndChar

StartChar: aring
Encoding: 229 229 165
Width: 512
Flags: W
LayerCount: 2
Back
Fore
SplineSet
206.775390625 64 m 1,0,-1
 349.55078125 128 l 1,1,-1
 364.327148438 192 l 1,2,-1
 172.327148438 192 l 1,3,-1
 124.248046875 170 l 1,4,-1
 93.55078125 128 l 1,5,-1
 104.624023438 85 l 1,6,-1
 142.775390625 64 l 1,7,-1
 206.775390625 64 l 1,0,-1
128 0 m 1,8,-1
 71.3876953125 32 l 1,9,-1
 46.775390625 64 l 1,10,-1
 29.55078125 128 l 1,11,-1
 76.3271484375 192 l 1,12,-1
 115.71484375 224 l 1,13,-1
 187.102539062 256 l 1,14,-1
 379.102539062 256 l 1,15,-1
 393.877929688 320 l 1,16,-1
 381.57421875 362 l 1,17,-1
 344.653320312 384 l 1,18,-1
 152.653320312 384 l 1,19,-1
 167.428710938 448 l 1,20,-1
 359.428710938 448 l 1,21,-1
 416.041015625 416 l 1,22,-1
 440.653320312 384 l 1,23,-1
 457.877929688 320 l 1,24,-1
 384 0 l 1,25,-1
 320 0 l 1,26,-1
 334.775390625 64 l 1,27,-1
 192 0 l 1,28,-1
 128 0 l 1,8,-1
324.98046875 576 m 1,29,-1
 339.755859375 640 l 1,30,-1
 275.755859375 640 l 1,31,-1
 260.98046875 576 l 1,32,-1
 324.98046875 576 l 1,29,-1
246.204101562 512 m 1,33,-1
 196.98046875 576 l 1,34,-1
 211.755859375 640 l 1,35,-1
 290.53125 704 l 1,36,-1
 354.53125 704 l 1,37,-1
 403.755859375 640 l 1,38,-1
 388.98046875 576 l 1,39,-1
 310.204101562 512 l 1,40,-1
 246.204101562 512 l 1,33,-1
EndSplineSet
Validated: 1
EndChar

StartChar: ae
Encoding: 230 230 166
Width: 704
Flags: W
LayerCount: 2
Back
Fore
SplineSet
142.775390625 64 m 1,0,-1
 285.55078125 128 l 1,1,-1
 300.327148438 192 l 1,2,-1
 172.327148438 192 l 1,3,-1
 124.248046875 170 l 1,4,-1
 93.55078125 128 l 1,5,-1
 104.624023438 85 l 1,6,-1
 142.775390625 64 l 1,7,-1
 142.775390625 64 l 1,0,-1
571.102539062 256 m 1,8,-1
 585.877929688 320 l 1,9,-1
 573.57421875 362 l 1,10,-1
 536.653320312 384 l 1,11,-1
 465.265625 352 l 1,12,-1
 425.877929688 320 l 1,13,-1
 379.102539062 256 l 1,14,-1
 571.102539062 256 l 1,8,-1
128 0 m 1,15,-1
 71.3876953125 32 l 1,16,-1
 46.775390625 64 l 1,17,-1
 29.55078125 128 l 1,18,-1
 76.3271484375 192 l 1,19,-1
 115.71484375 224 l 1,20,-1
 187.102539062 256 l 1,21,-1
 315.102539062 256 l 1,22,-1
 329.877929688 320 l 1,23,-1
 317.57421875 362 l 1,24,-1
 280.653320312 384 l 1,25,-1
 152.653320312 384 l 1,26,-1
 167.428710938 448 l 1,27,-1
 295.428710938 448 l 1,28,-1
 352.041015625 416 l 1,29,-1
 376.653320312 384 l 1,30,-1
 385.265625 352 l 1,31,-1
 408.653320312 384 l 1,32,-1
 551.428710938 448 l 1,33,-1
 608.041015625 416 l 1,34,-1
 632.653320312 384 l 1,35,-1
 649.877929688 320 l 1,36,-1
 620.327148438 192 l 1,37,-1
 364.327148438 192 l 1,38,-1
 349.55078125 128 l 1,39,-1
 360.624023438 85 l 1,40,-1
 398.775390625 64 l 1,41,-1
 590.775390625 64 l 1,42,-1
 576 0 l 1,43,-1
 384 0 l 1,44,-1
 270.775390625 64 l 1,45,-1
 128 0 l 1,46,-1
 128 0 l 1,15,-1
EndSplineSet
Validated: 5
EndChar

StartChar: ccedilla
Encoding: 231 231 167
Width: 448
Flags: W
LayerCount: 2
Back
Fore
SplineSet
91.0615234375 -160 m 1,0,-1
 98.44921875 -128 l 1,1,-1
 169.836914062 -96 l 1,2,-1
 177.224609375 -64 l 1,3,-1
 120.612304688 -32 l 1,4,-1
 128 0 l 1,5,-1
 192 0 l 1,6,-1
 248.612304688 -32 l 1,7,-1
 226.44921875 -128 l 1,8,-1
 155.061523438 -160 l 1,9,-1
 91.0615234375 -160 l 1,0,-1
192 0 m 1,10,-1
 78.775390625 64 l 1,11,-1
 44.3271484375 192 l 1,12,-1
 59.1025390625 256 l 1,13,-1
 152.653320312 384 l 1,14,-1
 295.428710938 448 l 1,15,-1
 423.428710938 448 l 1,16,-1
 408.653320312 384 l 1,17,-1
 280.653320312 384 l 1,18,-1
 209.265625 352 l 1,19,-1
 169.877929688 320 l 1,20,-1
 123.102539062 256 l 1,21,-1
 108.327148438 192 l 1,22,-1
 125.55078125 128 l 1,23,-1
 150.163085938 96 l 1,24,-1
 206.775390625 64 l 1,25,-1
 334.775390625 64 l 1,26,-1
 320 0 l 1,27,-1
 192 0 l 1,10,-1
EndSplineSet
Validated: 5
EndChar

StartChar: egrave
Encoding: 232 232 168
Width: 512
Flags: W
LayerCount: 2
Back
Fore
SplineSet
379.102539062 256 m 1,0,-1
 393.877929688 320 l 1,1,-1
 381.57421875 362 l 1,2,-1
 344.653320312 384 l 1,3,-1
 280.653320312 384 l 1,4,-1
 209.265625 352 l 1,5,-1
 169.877929688 320 l 1,6,-1
 123.102539062 256 l 1,7,-1
 379.102539062 256 l 1,0,-1
128 0 m 1,8,-1
 71.3876953125 32 l 1,9,-1
 46.775390625 64 l 1,10,-1
 29.55078125 128 l 1,11,-1
 59.1025390625 256 l 1,12,-1
 152.653320312 384 l 1,13,-1
 295.428710938 448 l 1,14,-1
 359.428710938 448 l 1,15,-1
 416.041015625 416 l 1,16,-1
 440.653320312 384 l 1,17,-1
 457.877929688 320 l 1,18,-1
 428.327148438 192 l 1,19,-1
 108.327148438 192 l 1,20,-1
 93.55078125 128 l 1,21,-1
 104.624023438 85 l 1,22,-1
 142.775390625 64 l 1,23,-1
 398.775390625 64 l 1,24,-1
 384 0 l 1,25,-1
 128 0 l 1,8,-1
374.204101562 512 m 1,26,-1
 204.368164062 608 l 1,27,-1
 211.755859375 640 l 1,28,-1
 275.755859375 640 l 1,29,-1
 445.592773438 544 l 1,30,-1
 438.204101562 512 l 1,31,-1
 374.204101562 512 l 1,26,-1
EndSplineSet
Validated: 1
EndChar

StartChar: eacute
Encoding: 233 233 169
Width: 512
Flags: W
LayerCount: 2
Back
Fore
SplineSet
379.102539062 256 m 1,0,-1
 393.877929688 320 l 1,1,-1
 381.57421875 362 l 1,2,-1
 344.653320312 384 l 1,3,-1
 280.653320312 384 l 1,4,-1
 209.265625 352 l 1,5,-1
 169.877929688 320 l 1,6,-1
 123.102539062 256 l 1,7,-1
 379.102539062 256 l 1,0,-1
128 0 m 1,8,-1
 71.3876953125 32 l 1,9,-1
 46.775390625 64 l 1,10,-1
 29.55078125 128 l 1,11,-1
 59.1025390625 256 l 1,12,-1
 152.653320312 384 l 1,13,-1
 295.428710938 448 l 1,14,-1
 359.428710938 448 l 1,15,-1
 416.041015625 416 l 1,16,-1
 440.653320312 384 l 1,17,-1
 457.877929688 320 l 1,18,-1
 428.327148438 192 l 1,19,-1
 108.327148438 192 l 1,20,-1
 93.55078125 128 l 1,21,-1
 104.624023438 85 l 1,22,-1
 142.775390625 64 l 1,23,-1
 398.775390625 64 l 1,24,-1
 384 0 l 1,25,-1
 128 0 l 1,8,-1
182.204101562 512 m 1,26,-1
 189.592773438 544 l 1,27,-1
 403.755859375 640 l 1,28,-1
 467.755859375 640 l 1,29,-1
 460.368164062 608 l 1,30,-1
 246.204101562 512 l 1,31,-1
 182.204101562 512 l 1,26,-1
EndSplineSet
Validated: 1
EndChar

StartChar: ecircumflex
Encoding: 234 234 170
Width: 512
Flags: W
LayerCount: 2
Back
Fore
SplineSet
379.102539062 256 m 1,0,-1
 393.877929688 320 l 1,1,-1
 381.57421875 362 l 1,2,-1
 344.653320312 384 l 1,3,-1
 280.653320312 384 l 1,4,-1
 209.265625 352 l 1,5,-1
 169.877929688 320 l 1,6,-1
 123.102539062 256 l 1,7,-1
 379.102539062 256 l 1,0,-1
128 0 m 1,8,-1
 71.3876953125 32 l 1,9,-1
 46.775390625 64 l 1,10,-1
 29.55078125 128 l 1,11,-1
 59.1025390625 256 l 1,12,-1
 152.653320312 384 l 1,13,-1
 295.428710938 448 l 1,14,-1
 359.428710938 448 l 1,15,-1
 416.041015625 416 l 1,16,-1
 440.653320312 384 l 1,17,-1
 457.877929688 320 l 1,18,-1
 428.327148438 192 l 1,19,-1
 108.327148438 192 l 1,20,-1
 93.55078125 128 l 1,21,-1
 104.624023438 85 l 1,22,-1
 142.775390625 64 l 1,23,-1
 398.775390625 64 l 1,24,-1
 384 0 l 1,25,-1
 128 0 l 1,8,-1
182.204101562 512 m 1,26,-1
 379.143554688 672 l 1,27,-1
 502.204101562 512 l 1,28,-1
 438.204101562 512 l 1,29,-1
 388.98046875 576 l 1,30,-1
 388.98046875 576 l 1,31,-1
 364.368164062 608 l 1,32,-1
 246.204101562 512 l 1,33,-1
 182.204101562 512 l 1,26,-1
EndSplineSet
Validated: 5
EndChar

StartChar: edieresis
Encoding: 235 235 171
Width: 512
Flags: W
LayerCount: 2
Back
Fore
SplineSet
379.102539062 256 m 1,0,-1
 393.877929688 320 l 1,1,-1
 381.57421875 362 l 1,2,-1
 344.653320312 384 l 1,3,-1
 280.653320312 384 l 1,4,-1
 209.265625 352 l 1,5,-1
 169.877929688 320 l 1,6,-1
 123.102539062 256 l 1,7,-1
 379.102539062 256 l 1,0,-1
128 0 m 1,8,-1
 71.3876953125 32 l 1,9,-1
 46.775390625 64 l 1,10,-1
 29.55078125 128 l 1,11,-1
 59.1025390625 256 l 1,12,-1
 152.653320312 384 l 1,13,-1
 295.428710938 448 l 1,14,-1
 359.428710938 448 l 1,15,-1
 416.041015625 416 l 1,16,-1
 440.653320312 384 l 1,17,-1
 457.877929688 320 l 1,18,-1
 428.327148438 192 l 1,19,-1
 108.327148438 192 l 1,20,-1
 93.55078125 128 l 1,21,-1
 104.624023438 85 l 1,22,-1
 142.775390625 64 l 1,23,-1
 398.775390625 64 l 1,24,-1
 384 0 l 1,25,-1
 128 0 l 1,8,-1
246.204101562 512 m 1,26,27
 219.204101562 512 219.204101562 512 204.360351562 530 c 0,28,29
 190.747070312 549 190.747070312 549 196.98046875 576 c 0,30,31
 202.982421875 602 202.982421875 602 225.369140625 621 c 0,32,33
 248.755859375 640 248.755859375 640 275.755859375 640 c 0,34,35
 301.755859375 640 301.755859375 640 316.369140625 621 c 256,36,37
 330.982421875 602 330.982421875 602 324.98046875 576 c 0,38,39
 318.747070312 549 318.747070312 549 295.360351562 530 c 0,40,41
 272.204101562 512 272.204101562 512 246.204101562 512 c 1,42,-1
 246.204101562 512 l 1,26,27
438.204101562 512 m 1,43,44
 411.204101562 512 411.204101562 512 396.360351562 530 c 0,45,46
 382.747070312 549 382.747070312 549 388.98046875 576 c 0,47,48
 394.982421875 602 394.982421875 602 417.369140625 621 c 0,49,50
 440.755859375 640 440.755859375 640 467.755859375 640 c 0,51,52
 493.755859375 640 493.755859375 640 508.369140625 621 c 256,53,54
 522.982421875 602 522.982421875 602 516.98046875 576 c 0,55,56
 510.747070312 549 510.747070312 549 487.360351562 530 c 0,57,58
 464.204101562 512 464.204101562 512 438.204101562 512 c 1,59,-1
 438.204101562 512 l 1,43,44
EndSplineSet
Validated: 37
EndChar

StartChar: igrave
Encoding: 236 236 172
Width: 384
Flags: W
LayerCount: 2
Back
Fore
SplineSet
128 0 m 1,0,-1
 231.428710938 448 l 1,1,-1
 295.428710938 448 l 1,2,-1
 192 0 l 1,3,-1
 128 0 l 1,0,-1
310.204101562 512 m 1,4,-1
 140.368164062 608 l 1,5,-1
 147.755859375 640 l 1,6,-1
 211.755859375 640 l 1,7,-1
 381.592773438 544 l 1,8,-1
 374.204101562 512 l 1,9,-1
 310.204101562 512 l 1,4,-1
EndSplineSet
Validated: 1
EndChar

StartChar: iacute
Encoding: 237 237 173
Width: 384
Flags: W
LayerCount: 2
Back
Fore
SplineSet
64 0 m 1,0,-1
 167.428710938 448 l 1,1,-1
 231.428710938 448 l 1,2,-1
 128 0 l 1,3,-1
 64 0 l 1,0,-1
118.204101562 512 m 1,4,-1
 125.592773438 544 l 1,5,-1
 339.755859375 640 l 1,6,-1
 403.755859375 640 l 1,7,-1
 396.368164062 608 l 1,8,-1
 182.204101562 512 l 1,9,-1
 118.204101562 512 l 1,4,-1
EndSplineSet
Validated: 1
EndChar

StartChar: icircumflex
Encoding: 238 238 174
Width: 448
Flags: W
LayerCount: 2
Back
Fore
SplineSet
128 0 m 1,0,-1
 231.428710938 448 l 1,1,-1
 295.428710938 448 l 1,2,-1
 192 0 l 1,3,-1
 128 0 l 1,0,-1
118.204101562 512 m 1,4,-1
 315.143554688 672 l 1,5,-1
 438.204101562 512 l 1,6,-1
 374.204101562 512 l 1,7,-1
 324.98046875 576 l 1,8,-1
 324.98046875 576 l 1,9,-1
 300.368164062 608 l 1,10,-1
 182.204101562 512 l 1,11,-1
 118.204101562 512 l 1,4,-1
EndSplineSet
Validated: 5
EndChar

StartChar: idieresis
Encoding: 239 239 175
Width: 448
Flags: W
LayerCount: 2
Back
Fore
SplineSet
128 0 m 1,0,-1
 231.428710938 448 l 1,1,-1
 295.428710938 448 l 1,2,-1
 192 0 l 1,3,-1
 128 0 l 1,0,-1
182.204101562 512 m 1,4,5
 155.204101562 512 155.204101562 512 140.360351562 530 c 0,6,7
 126.747070312 549 126.747070312 549 132.98046875 576 c 0,8,9
 138.982421875 602 138.982421875 602 161.369140625 621 c 0,10,11
 184.755859375 640 184.755859375 640 211.755859375 640 c 0,12,13
 237.755859375 640 237.755859375 640 252.369140625 621 c 256,14,15
 266.982421875 602 266.982421875 602 260.98046875 576 c 0,16,17
 254.747070312 549 254.747070312 549 231.360351562 530 c 0,18,19
 208.204101562 512 208.204101562 512 182.204101562 512 c 1,20,-1
 182.204101562 512 l 1,4,5
374.204101562 512 m 1,21,22
 347.204101562 512 347.204101562 512 332.360351562 530 c 0,23,24
 318.747070312 549 318.747070312 549 324.98046875 576 c 0,25,26
 330.982421875 602 330.982421875 602 353.369140625 621 c 0,27,28
 376.755859375 640 376.755859375 640 403.755859375 640 c 0,29,30
 429.755859375 640 429.755859375 640 444.369140625 621 c 256,31,32
 458.982421875 602 458.982421875 602 452.98046875 576 c 0,33,34
 446.747070312 549 446.747070312 549 423.360351562 530 c 0,35,36
 400.204101562 512 400.204101562 512 374.204101562 512 c 1,37,-1
 374.204101562 512 l 1,21,22
EndSplineSet
Validated: 37
EndChar

StartChar: eth
Encoding: 240 240 176
Width: 576
Flags: W
LayerCount: 2
Back
Fore
SplineSet
206.775390625 64 m 1,0,-1
 278.163085938 96 l 1,1,-1
 317.55078125 128 l 1,2,-1
 364.327148438 192 l 1,3,-1
 393.877929688 320 l 1,4,-1
 265.877929688 320 l 1,5,-1
 194.490234375 288 l 1,6,-1
 155.102539062 256 l 1,7,-1
 108.327148438 192 l 1,8,-1
 93.55078125 128 l 1,9,-1
 142.775390625 64 l 1,10,-1
 206.775390625 64 l 1,0,-1
128 0 m 1,11,-1
 71.3876953125 32 l 1,12,-1
 46.775390625 64 l 1,13,-1
 29.55078125 128 l 1,14,-1
 44.3271484375 192 l 1,15,-1
 137.877929688 320 l 1,16,-1
 280.653320312 384 l 1,17,-1
 408.653320312 384 l 1,18,-1
 423.428710938 448 l 1,19,-1
 295.428710938 448 l 1,20,-1
 310.204101562 512 l 1,21,-1
 438.204101562 512 l 1,22,-1
 452.98046875 576 l 1,23,-1
 516.98046875 576 l 1,24,-1
 502.204101562 512 l 1,25,-1
 566.204101562 512 l 1,26,-1
 551.428710938 448 l 1,27,-1
 487.428710938 448 l 1,28,-1
 428.327148438 192 l 1,29,-1
 334.775390625 64 l 1,30,-1
 192 0 l 1,31,-1
 128 0 l 1,11,-1
EndSplineSet
Validated: 1
EndChar

StartChar: ntilde
Encoding: 241 241 177
Width: 512
Flags: W
LayerCount: 2
Back
Fore
SplineSet
0 0 m 1,0,-1
 103.428710938 448 l 1,1,-1
 167.428710938 448 l 1,2,-1
 152.653320312 384 l 1,3,-1
 295.428710938 448 l 1,4,-1
 359.428710938 448 l 1,5,-1
 416.041015625 416 l 1,6,-1
 440.653320312 384 l 1,7,-1
 457.877929688 320 l 1,8,-1
 384 0 l 1,9,-1
 320 0 l 1,10,-1
 393.877929688 320 l 1,11,-1
 344.653320312 384 l 1,12,-1
 280.653320312 384 l 1,13,-1
 137.877929688 320 l 1,14,-1
 64 0 l 1,15,-1
 0 0 l 1,0,-1
150.204101562 512 m 1,16,-1
 164.98046875 576 l 1,17,-1
 204.368164062 608 l 1,18,-1
 275.755859375 640 l 1,19,-1
 388.98046875 576 l 1,20,-1
 460.368164062 608 l 1,21,-1
 499.755859375 640 l 1,22,-1
 484.98046875 576 l 1,23,-1
 445.592773438 544 l 1,24,-1
 374.204101562 512 l 1,25,-1
 260.98046875 576 l 1,26,-1
 189.592773438 544 l 1,27,-1
 150.204101562 512 l 1,28,-1
 150.204101562 512 l 1,16,-1
EndSplineSet
Validated: 5
EndChar

StartChar: ograve
Encoding: 242 242 178
Width: 576
Flags: W
LayerCount: 2
Back
Fore
SplineSet
270.775390625 64 m 1,0,-1
 342.163085938 96 l 1,1,-1
 381.55078125 128 l 1,2,-1
 428.327148438 192 l 1,3,-1
 443.102539062 256 l 1,4,-1
 425.877929688 320 l 1,5,-1
 401.265625 352 l 1,6,-1
 344.653320312 384 l 1,7,-1
 280.653320312 384 l 1,8,-1
 209.265625 352 l 1,9,-1
 169.877929688 320 l 1,10,-1
 123.102539062 256 l 1,11,-1
 108.327148438 192 l 1,12,-1
 125.55078125 128 l 1,13,-1
 150.163085938 96 l 1,14,-1
 206.775390625 64 l 1,15,-1
 270.775390625 64 l 1,0,-1
192 0 m 1,16,-1
 78.775390625 64 l 1,17,-1
 44.3271484375 192 l 1,18,-1
 59.1025390625 256 l 1,19,-1
 152.653320312 384 l 1,20,-1
 295.428710938 448 l 1,21,-1
 359.428710938 448 l 1,22,-1
 472.653320312 384 l 1,23,-1
 507.102539062 256 l 1,24,-1
 492.327148438 192 l 1,25,-1
 398.775390625 64 l 1,26,-1
 256 0 l 1,27,-1
 192 0 l 1,16,-1
406.204101562 512 m 1,28,-1
 236.368164062 608 l 1,29,-1
 243.755859375 640 l 1,30,-1
 307.755859375 640 l 1,31,-1
 477.592773438 544 l 1,32,-1
 470.204101562 512 l 1,33,-1
 406.204101562 512 l 1,28,-1
EndSplineSet
Validated: 1
EndChar

StartChar: oacute
Encoding: 243 243 179
Width: 576
Flags: W
LayerCount: 2
Back
Fore
SplineSet
270.775390625 64 m 1,0,-1
 342.163085938 96 l 1,1,-1
 381.55078125 128 l 1,2,-1
 428.327148438 192 l 1,3,-1
 443.102539062 256 l 1,4,-1
 425.877929688 320 l 1,5,-1
 401.265625 352 l 1,6,-1
 344.653320312 384 l 1,7,-1
 280.653320312 384 l 1,8,-1
 209.265625 352 l 1,9,-1
 169.877929688 320 l 1,10,-1
 123.102539062 256 l 1,11,-1
 108.327148438 192 l 1,12,-1
 125.55078125 128 l 1,13,-1
 150.163085938 96 l 1,14,-1
 206.775390625 64 l 1,15,-1
 270.775390625 64 l 1,0,-1
192 0 m 1,16,-1
 78.775390625 64 l 1,17,-1
 44.3271484375 192 l 1,18,-1
 59.1025390625 256 l 1,19,-1
 152.653320312 384 l 1,20,-1
 295.428710938 448 l 1,21,-1
 359.428710938 448 l 1,22,-1
 472.653320312 384 l 1,23,-1
 507.102539062 256 l 1,24,-1
 492.327148438 192 l 1,25,-1
 398.775390625 64 l 1,26,-1
 256 0 l 1,27,-1
 192 0 l 1,16,-1
214.204101562 512 m 1,28,-1
 221.592773438 544 l 1,29,-1
 435.755859375 640 l 1,30,-1
 499.755859375 640 l 1,31,-1
 492.368164062 608 l 1,32,-1
 278.204101562 512 l 1,33,-1
 214.204101562 512 l 1,28,-1
EndSplineSet
Validated: 1
EndChar

StartChar: ocircumflex
Encoding: 244 244 180
Width: 576
Flags: W
LayerCount: 2
Back
Fore
SplineSet
270.775390625 64 m 1,0,-1
 342.163085938 96 l 1,1,-1
 381.55078125 128 l 1,2,-1
 428.327148438 192 l 1,3,-1
 443.102539062 256 l 1,4,-1
 425.877929688 320 l 1,5,-1
 401.265625 352 l 1,6,-1
 344.653320312 384 l 1,7,-1
 280.653320312 384 l 1,8,-1
 209.265625 352 l 1,9,-1
 169.877929688 320 l 1,10,-1
 123.102539062 256 l 1,11,-1
 108.327148438 192 l 1,12,-1
 125.55078125 128 l 1,13,-1
 150.163085938 96 l 1,14,-1
 206.775390625 64 l 1,15,-1
 270.775390625 64 l 1,0,-1
192 0 m 1,16,-1
 78.775390625 64 l 1,17,-1
 44.3271484375 192 l 1,18,-1
 59.1025390625 256 l 1,19,-1
 152.653320312 384 l 1,20,-1
 295.428710938 448 l 1,21,-1
 359.428710938 448 l 1,22,-1
 472.653320312 384 l 1,23,-1
 507.102539062 256 l 1,24,-1
 492.327148438 192 l 1,25,-1
 398.775390625 64 l 1,26,-1
 256 0 l 1,27,-1
 192 0 l 1,16,-1
182.204101562 512 m 1,28,-1
 379.143554688 672 l 1,29,-1
 502.204101562 512 l 1,30,-1
 438.204101562 512 l 1,31,-1
 388.98046875 576 l 1,32,-1
 388.98046875 576 l 1,33,-1
 364.368164062 608 l 1,34,-1
 246.204101562 512 l 1,35,-1
 182.204101562 512 l 1,28,-1
EndSplineSet
Validated: 5
EndChar

StartChar: otilde
Encoding: 245 245 181
Width: 576
Flags: W
LayerCount: 2
Back
Fore
SplineSet
270.775390625 64 m 1,0,-1
 342.163085938 96 l 1,1,-1
 381.55078125 128 l 1,2,-1
 428.327148438 192 l 1,3,-1
 443.102539062 256 l 1,4,-1
 425.877929688 320 l 1,5,-1
 401.265625 352 l 1,6,-1
 344.653320312 384 l 1,7,-1
 280.653320312 384 l 1,8,-1
 209.265625 352 l 1,9,-1
 169.877929688 320 l 1,10,-1
 123.102539062 256 l 1,11,-1
 108.327148438 192 l 1,12,-1
 125.55078125 128 l 1,13,-1
 150.163085938 96 l 1,14,-1
 206.775390625 64 l 1,15,-1
 270.775390625 64 l 1,0,-1
192 0 m 1,16,-1
 78.775390625 64 l 1,17,-1
 44.3271484375 192 l 1,18,-1
 59.1025390625 256 l 1,19,-1
 152.653320312 384 l 1,20,-1
 295.428710938 448 l 1,21,-1
 359.428710938 448 l 1,22,-1
 472.653320312 384 l 1,23,-1
 507.102539062 256 l 1,24,-1
 492.327148438 192 l 1,25,-1
 398.775390625 64 l 1,26,-1
 256 0 l 1,27,-1
 192 0 l 1,16,-1
182.204101562 512 m 1,28,-1
 196.98046875 576 l 1,29,-1
 236.368164062 608 l 1,30,-1
 307.755859375 640 l 1,31,-1
 420.98046875 576 l 1,32,-1
 492.368164062 608 l 1,33,-1
 531.755859375 640 l 1,34,-1
 516.98046875 576 l 1,35,-1
 477.592773438 544 l 1,36,-1
 406.204101562 512 l 1,37,-1
 292.98046875 576 l 1,38,-1
 221.592773438 544 l 1,39,-1
 182.204101562 512 l 1,40,-1
 182.204101562 512 l 1,28,-1
EndSplineSet
Validated: 5
EndChar

StartChar: odieresis
Encoding: 246 246 182
Width: 576
Flags: W
LayerCount: 2
Back
Fore
SplineSet
270.775390625 64 m 1,0,-1
 342.163085938 96 l 1,1,-1
 381.55078125 128 l 1,2,-1
 428.327148438 192 l 1,3,-1
 443.102539062 256 l 1,4,-1
 425.877929688 320 l 1,5,-1
 401.265625 352 l 1,6,-1
 344.653320312 384 l 1,7,-1
 280.653320312 384 l 1,8,-1
 209.265625 352 l 1,9,-1
 169.877929688 320 l 1,10,-1
 123.102539062 256 l 1,11,-1
 108.327148438 192 l 1,12,-1
 125.55078125 128 l 1,13,-1
 150.163085938 96 l 1,14,-1
 206.775390625 64 l 1,15,-1
 270.775390625 64 l 1,0,-1
192 0 m 1,16,-1
 78.775390625 64 l 1,17,-1
 44.3271484375 192 l 1,18,-1
 59.1025390625 256 l 1,19,-1
 152.653320312 384 l 1,20,-1
 295.428710938 448 l 1,21,-1
 359.428710938 448 l 1,22,-1
 472.653320312 384 l 1,23,-1
 507.102539062 256 l 1,24,-1
 492.327148438 192 l 1,25,-1
 398.775390625 64 l 1,26,-1
 256 0 l 1,27,-1
 192 0 l 1,16,-1
246.204101562 512 m 1,28,29
 219.204101562 512 219.204101562 512 204.360351562 530 c 0,30,31
 190.747070312 549 190.747070312 549 196.98046875 576 c 0,32,33
 202.982421875 602 202.982421875 602 225.369140625 621 c 0,34,35
 248.755859375 640 248.755859375 640 275.755859375 640 c 0,36,37
 301.755859375 640 301.755859375 640 316.369140625 621 c 256,38,39
 330.982421875 602 330.982421875 602 324.98046875 576 c 0,40,41
 318.747070312 549 318.747070312 549 295.360351562 530 c 0,42,43
 272.204101562 512 272.204101562 512 246.204101562 512 c 1,44,-1
 246.204101562 512 l 1,28,29
438.204101562 512 m 1,45,46
 411.204101562 512 411.204101562 512 396.360351562 530 c 0,47,48
 382.747070312 549 382.747070312 549 388.98046875 576 c 0,49,50
 394.982421875 602 394.982421875 602 417.369140625 621 c 0,51,52
 440.755859375 640 440.755859375 640 467.755859375 640 c 0,53,54
 493.755859375 640 493.755859375 640 508.369140625 621 c 256,55,56
 522.982421875 602 522.982421875 602 516.98046875 576 c 0,57,58
 510.747070312 549 510.747070312 549 487.360351562 530 c 0,59,60
 464.204101562 512 464.204101562 512 438.204101562 512 c 1,61,-1
 438.204101562 512 l 1,45,46
EndSplineSet
Validated: 37
EndChar

StartChar: divide
Encoding: 247 247 183
Width: 576
Flags: W
LayerCount: 2
Back
Fore
SplineSet
221.55078125 128 m 1,0,-1
 251.102539062 256 l 1,1,-1
 315.102539062 256 l 1,2,-1
 285.55078125 128 l 1,3,-1
 221.55078125 128 l 1,0,-1
73.8779296875 320 m 1,4,-1
 88.6533203125 384 l 1,5,-1
 536.653320312 384 l 1,6,-1
 521.877929688 320 l 1,7,-1
 73.8779296875 320 l 1,4,-1
295.428710938 448 m 1,8,-1
 324.98046875 576 l 1,9,-1
 388.98046875 576 l 1,10,-1
 359.428710938 448 l 1,11,-1
 295.428710938 448 l 1,8,-1
EndSplineSet
Validated: 1
EndChar

StartChar: oslash
Encoding: 248 248 184
Width: 576
Flags: W
LayerCount: 2
Back
Fore
SplineSet
270.775390625 64 m 1,0,-1
 342.163085938 96 l 1,1,-1
 381.55078125 128 l 1,2,-1
 428.327148438 192 l 1,3,-1
 443.102539062 256 l 1,4,-1
 425.877929688 320 l 1,5,-1
 150.163085938 96 l 1,6,-1
 206.775390625 64 l 1,7,-1
 270.775390625 64 l 1,0,-1
119.399414062 149 m 1,8,-1
 381.57421875 362 l 1,9,-1
 344.653320312 384 l 1,10,-1
 280.653320312 384 l 1,11,-1
 209.265625 352 l 1,12,-1
 169.877929688 320 l 1,13,-1
 123.102539062 256 l 1,14,-1
 108.327148438 192 l 1,15,-1
 119.399414062 149 l 1,16,-1
 119.399414062 149 l 1,8,-1
192 0 m 1,17,-1
 78.775390625 64 l 1,18,-1
 44.3271484375 192 l 1,19,-1
 59.1025390625 256 l 1,20,-1
 152.653320312 384 l 1,21,-1
 295.428710938 448 l 1,22,-1
 359.428710938 448 l 1,23,-1
 472.653320312 384 l 1,24,-1
 507.102539062 256 l 1,25,-1
 492.327148438 192 l 1,26,-1
 398.775390625 64 l 1,27,-1
 256 0 l 1,28,-1
 192 0 l 1,17,-1
EndSplineSet
Validated: 5
EndChar

StartChar: ugrave
Encoding: 249 249 185
Width: 512
Flags: W
LayerCount: 2
Back
Fore
SplineSet
128 0 m 1,0,-1
 71.3876953125 32 l 1,1,-1
 46.775390625 64 l 1,2,-1
 29.55078125 128 l 1,3,-1
 103.428710938 448 l 1,4,-1
 167.428710938 448 l 1,5,-1
 93.55078125 128 l 1,6,-1
 104.624023438 85 l 1,7,-1
 142.775390625 64 l 1,8,-1
 206.775390625 64 l 1,9,-1
 349.55078125 128 l 1,10,-1
 423.428710938 448 l 1,11,-1
 487.428710938 448 l 1,12,-1
 384 0 l 1,13,-1
 320 0 l 1,14,-1
 334.775390625 64 l 1,15,-1
 192 0 l 1,16,-1
 128 0 l 1,0,-1
374.204101562 512 m 1,17,-1
 204.368164062 608 l 1,18,-1
 211.755859375 640 l 1,19,-1
 275.755859375 640 l 1,20,-1
 445.592773438 544 l 1,21,-1
 438.204101562 512 l 1,22,-1
 374.204101562 512 l 1,17,-1
EndSplineSet
Validated: 1
EndChar

StartChar: uacute
Encoding: 250 250 186
Width: 512
Flags: W
LayerCount: 2
Back
Fore
SplineSet
128 0 m 1,0,-1
 71.3876953125 32 l 1,1,-1
 46.775390625 64 l 1,2,-1
 29.55078125 128 l 1,3,-1
 103.428710938 448 l 1,4,-1
 167.428710938 448 l 1,5,-1
 93.55078125 128 l 1,6,-1
 104.624023438 85 l 1,7,-1
 142.775390625 64 l 1,8,-1
 206.775390625 64 l 1,9,-1
 349.55078125 128 l 1,10,-1
 423.428710938 448 l 1,11,-1
 487.428710938 448 l 1,12,-1
 384 0 l 1,13,-1
 320 0 l 1,14,-1
 334.775390625 64 l 1,15,-1
 192 0 l 1,16,-1
 128 0 l 1,0,-1
182.204101562 512 m 1,17,-1
 189.592773438 544 l 1,18,-1
 403.755859375 640 l 1,19,-1
 467.755859375 640 l 1,20,-1
 460.368164062 608 l 1,21,-1
 246.204101562 512 l 1,22,-1
 182.204101562 512 l 1,17,-1
EndSplineSet
Validated: 1
EndChar

StartChar: ucircumflex
Encoding: 251 251 187
Width: 512
Flags: W
LayerCount: 2
Back
Fore
SplineSet
128 0 m 1,0,-1
 71.3876953125 32 l 1,1,-1
 46.775390625 64 l 1,2,-1
 29.55078125 128 l 1,3,-1
 103.428710938 448 l 1,4,-1
 167.428710938 448 l 1,5,-1
 93.55078125 128 l 1,6,-1
 104.624023438 85 l 1,7,-1
 142.775390625 64 l 1,8,-1
 206.775390625 64 l 1,9,-1
 349.55078125 128 l 1,10,-1
 423.428710938 448 l 1,11,-1
 487.428710938 448 l 1,12,-1
 384 0 l 1,13,-1
 320 0 l 1,14,-1
 334.775390625 64 l 1,15,-1
 192 0 l 1,16,-1
 128 0 l 1,0,-1
182.204101562 512 m 1,17,-1
 379.143554688 672 l 1,18,-1
 502.204101562 512 l 1,19,-1
 438.204101562 512 l 1,20,-1
 388.98046875 576 l 1,21,-1
 388.98046875 576 l 1,22,-1
 364.368164062 608 l 1,23,-1
 246.204101562 512 l 1,24,-1
 182.204101562 512 l 1,17,-1
EndSplineSet
Validated: 5
EndChar

StartChar: udieresis
Encoding: 252 252 188
Width: 512
Flags: W
LayerCount: 2
Back
Fore
SplineSet
128 0 m 1,0,-1
 71.3876953125 32 l 1,1,-1
 46.775390625 64 l 1,2,-1
 29.55078125 128 l 1,3,-1
 103.428710938 448 l 1,4,-1
 167.428710938 448 l 1,5,-1
 93.55078125 128 l 1,6,-1
 104.624023438 85 l 1,7,-1
 142.775390625 64 l 1,8,-1
 206.775390625 64 l 1,9,-1
 349.55078125 128 l 1,10,-1
 423.428710938 448 l 1,11,-1
 487.428710938 448 l 1,12,-1
 384 0 l 1,13,-1
 320 0 l 1,14,-1
 334.775390625 64 l 1,15,-1
 192 0 l 1,16,-1
 128 0 l 1,0,-1
214.204101562 512 m 1,17,18
 187.204101562 512 187.204101562 512 172.360351562 530 c 0,19,20
 158.747070312 549 158.747070312 549 164.98046875 576 c 0,21,22
 170.982421875 602 170.982421875 602 193.369140625 621 c 0,23,24
 216.755859375 640 216.755859375 640 243.755859375 640 c 0,25,26
 269.755859375 640 269.755859375 640 284.369140625 621 c 256,27,28
 298.982421875 602 298.982421875 602 292.98046875 576 c 0,29,30
 286.747070312 549 286.747070312 549 263.360351562 530 c 0,31,32
 240.204101562 512 240.204101562 512 214.204101562 512 c 1,33,-1
 214.204101562 512 l 1,17,18
406.204101562 512 m 1,34,35
 379.204101562 512 379.204101562 512 364.360351562 530 c 0,36,37
 350.747070312 549 350.747070312 549 356.98046875 576 c 0,38,39
 362.982421875 602 362.982421875 602 385.369140625 621 c 0,40,41
 408.755859375 640 408.755859375 640 435.755859375 640 c 0,42,43
 461.755859375 640 461.755859375 640 476.369140625 621 c 256,44,45
 490.982421875 602 490.982421875 602 484.98046875 576 c 0,46,47
 478.747070312 549 478.747070312 549 455.360351562 530 c 0,48,49
 432.204101562 512 432.204101562 512 406.204101562 512 c 1,50,-1
 406.204101562 512 l 1,34,35
EndSplineSet
Validated: 37
EndChar

StartChar: yacute
Encoding: 253 253 189
Width: 512
Flags: W
LayerCount: 2
Back
Fore
SplineSet
-108.327148438 -192 m 1,0,-1
 -93.55078125 -128 l 1,1,-1
 -29.55078125 -128 l 1,2,-1
 41.8369140625 -96 l 1,3,-1
 81.224609375 -64 l 1,4,-1
 128 0 l 1,5,-1
 142.775390625 64 l 1,6,-1
 73.8779296875 320 l 1,7,-1
 103.428710938 448 l 1,8,-1
 167.428710938 448 l 1,9,-1
 137.877929688 320 l 1,10,-1
 198.163085938 96 l 1,11,-1
 455.428710938 448 l 1,12,-1
 487.428710938 448 l 1,13,-1
 472.653320312 384 l 1,14,-1
 98.44921875 -128 l 1,15,-1
 -44.3271484375 -192 l 1,16,-1
 -108.327148438 -192 l 1,0,-1
182.204101562 512 m 1,17,-1
 189.592773438 544 l 1,18,-1
 403.755859375 640 l 1,19,-1
 467.755859375 640 l 1,20,-1
 460.368164062 608 l 1,21,-1
 246.204101562 512 l 1,22,-1
 182.204101562 512 l 1,17,-1
EndSplineSet
Validated: 1
EndChar

StartChar: thorn
Encoding: 254 254 190
Width: 512
Flags: W
LayerCount: 2
Back
Fore
SplineSet
206.775390625 64 m 1,0,-1
 278.163085938 96 l 1,1,-1
 317.55078125 128 l 1,2,-1
 364.327148438 192 l 1,3,-1
 393.877929688 320 l 1,4,-1
 381.57421875 362 l 1,5,-1
 344.653320312 384 l 1,6,-1
 280.653320312 384 l 1,7,-1
 137.877929688 320 l 1,8,-1
 78.775390625 64 l 1,9,-1
 206.775390625 64 l 1,0,-1
-44.3271484375 -192 m 1,10,-1
 132.98046875 576 l 1,11,-1
 196.98046875 576 l 1,12,-1
 152.653320312 384 l 1,13,-1
 295.428710938 448 l 1,14,-1
 359.428710938 448 l 1,15,-1
 416.041015625 416 l 1,16,-1
 440.653320312 384 l 1,17,-1
 457.877929688 320 l 1,18,-1
 428.327148438 192 l 1,19,-1
 334.775390625 64 l 1,20,-1
 192 0 l 1,21,-1
 64 0 l 1,22,-1
 19.6728515625 -192 l 1,23,-1
 -44.3271484375 -192 l 1,10,-1
EndSplineSet
Validated: 1
EndChar

StartChar: ydieresis
Encoding: 255 255 191
Width: 512
Flags: W
LayerCount: 2
Back
Fore
SplineSet
-108.327148438 -192 m 1,0,-1
 -93.55078125 -128 l 1,1,-1
 -29.55078125 -128 l 1,2,-1
 41.8369140625 -96 l 1,3,-1
 81.224609375 -64 l 1,4,-1
 128 0 l 1,5,-1
 142.775390625 64 l 1,6,-1
 73.8779296875 320 l 1,7,-1
 103.428710938 448 l 1,8,-1
 167.428710938 448 l 1,9,-1
 137.877929688 320 l 1,10,-1
 198.163085938 96 l 1,11,-1
 455.428710938 448 l 1,12,-1
 487.428710938 448 l 1,13,-1
 472.653320312 384 l 1,14,-1
 98.44921875 -128 l 1,15,-1
 -44.3271484375 -192 l 1,16,-1
 -108.327148438 -192 l 1,0,-1
214.204101562 512 m 1,17,18
 187.204101562 512 187.204101562 512 172.360351562 530 c 0,19,20
 158.747070312 549 158.747070312 549 164.98046875 576 c 0,21,22
 170.982421875 602 170.982421875 602 193.369140625 621 c 0,23,24
 216.755859375 640 216.755859375 640 243.755859375 640 c 0,25,26
 269.755859375 640 269.755859375 640 284.369140625 621 c 256,27,28
 298.982421875 602 298.982421875 602 292.98046875 576 c 0,29,30
 286.747070312 549 286.747070312 549 263.360351562 530 c 0,31,32
 240.204101562 512 240.204101562 512 214.204101562 512 c 1,33,-1
 214.204101562 512 l 1,17,18
406.204101562 512 m 1,34,35
 379.204101562 512 379.204101562 512 364.360351562 530 c 0,36,37
 350.747070312 549 350.747070312 549 356.98046875 576 c 0,38,39
 362.982421875 602 362.982421875 602 385.369140625 621 c 0,40,41
 408.755859375 640 408.755859375 640 435.755859375 640 c 0,42,43
 461.755859375 640 461.755859375 640 476.369140625 621 c 256,44,45
 490.982421875 602 490.982421875 602 484.98046875 576 c 0,46,47
 478.747070312 549 478.747070312 549 455.360351562 530 c 0,48,49
 432.204101562 512 432.204101562 512 406.204101562 512 c 1,50,-1
 406.204101562 512 l 1,34,35
EndSplineSet
Validated: 37
EndChar

StartChar: Uring
Encoding: 366 366 192
Width: 576
Flags: W
LayerCount: 2
Back
Fore
SplineSet
192 0 m 1,0,-1
 78.775390625 64 l 1,1,-1
 44.3271484375 192 l 1,2,-1
 132.98046875 576 l 1,3,-1
 196.98046875 576 l 1,4,-1
 108.327148438 192 l 1,5,-1
 125.55078125 128 l 1,6,-1
 150.163085938 96 l 1,7,-1
 206.775390625 64 l 1,8,-1
 270.775390625 64 l 1,9,-1
 342.163085938 96 l 1,10,-1
 381.55078125 128 l 1,11,-1
 428.327148438 192 l 1,12,-1
 516.98046875 576 l 1,13,-1
 580.98046875 576 l 1,14,-1
 492.327148438 192 l 1,15,-1
 398.775390625 64 l 1,16,-1
 256 0 l 1,17,-1
 192 0 l 1,0,-1
403.755859375 640 m 1,18,-1
 418.53125 704 l 1,19,-1
 354.53125 704 l 1,20,-1
 339.755859375 640 l 1,21,-1
 403.755859375 640 l 1,18,-1
324.98046875 576 m 1,22,-1
 275.755859375 640 l 1,23,-1
 290.53125 704 l 1,24,-1
 369.306640625 768 l 1,25,-1
 433.306640625 768 l 1,26,-1
 482.53125 704 l 1,27,-1
 467.755859375 640 l 1,28,-1
 388.98046875 576 l 1,29,-1
 324.98046875 576 l 1,22,-1
EndSplineSet
Validated: 1
EndChar

StartChar: uring
Encoding: 367 367 193
Width: 512
Flags: W
LayerCount: 2
Back
Fore
SplineSet
128 0 m 1,0,-1
 71.3876953125 32 l 1,1,-1
 46.775390625 64 l 1,2,-1
 29.55078125 128 l 1,3,-1
 103.428710938 448 l 1,4,-1
 167.428710938 448 l 1,5,-1
 93.55078125 128 l 1,6,-1
 104.624023438 85 l 1,7,-1
 142.775390625 64 l 1,8,-1
 206.775390625 64 l 1,9,-1
 349.55078125 128 l 1,10,-1
 423.428710938 448 l 1,11,-1
 487.428710938 448 l 1,12,-1
 384 0 l 1,13,-1
 320 0 l 1,14,-1
 334.775390625 64 l 1,15,-1
 192 0 l 1,16,-1
 128 0 l 1,0,-1
356.98046875 576 m 1,17,-1
 371.755859375 640 l 1,18,-1
 307.755859375 640 l 1,19,-1
 292.98046875 576 l 1,20,-1
 356.98046875 576 l 1,17,-1
278.204101562 512 m 1,21,-1
 228.98046875 576 l 1,22,-1
 243.755859375 640 l 1,23,-1
 322.53125 704 l 1,24,-1
 386.53125 704 l 1,25,-1
 435.755859375 640 l 1,26,-1
 420.98046875 576 l 1,27,-1
 342.204101562 512 l 1,28,-1
 278.204101562 512 l 1,21,-1
EndSplineSet
Validated: 1
EndChar

StartChar: Ydieresis
Encoding: 376 376 194
Width: 576
Flags: W
LayerCount: 2
Back
Fore
SplineSet
192 0 m 1,0,-1
 236.327148438 192 l 1,1,-1
 132.98046875 576 l 1,2,-1
 196.98046875 576 l 1,3,-1
 283.102539062 256 l 1,4,-1
 516.98046875 576 l 1,5,-1
 580.98046875 576 l 1,6,-1
 300.327148438 192 l 1,7,-1
 256 0 l 1,8,-1
 192 0 l 1,0,-1
275.755859375 640 m 1,9,10
 248.755859375 640 248.755859375 640 233.911132812 658 c 0,11,12
 220.297851562 677 220.297851562 677 226.53125 704 c 0,13,14
 232.534179688 730 232.534179688 730 254.919921875 749 c 0,15,16
 278.306640625 768 278.306640625 768 305.306640625 768 c 0,17,18
 331.306640625 768 331.306640625 768 345.919921875 749 c 256,19,20
 360.534179688 730 360.534179688 730 354.53125 704 c 0,21,22
 348.297851562 677 348.297851562 677 324.911132812 658 c 0,23,24
 301.755859375 640 301.755859375 640 275.755859375 640 c 1,25,-1
 275.755859375 640 l 1,9,10
467.755859375 640 m 1,26,27
 440.755859375 640 440.755859375 640 425.911132812 658 c 0,28,29
 412.297851562 677 412.297851562 677 418.53125 704 c 0,30,31
 424.534179688 730 424.534179688 730 446.919921875 749 c 0,32,33
 470.306640625 768 470.306640625 768 497.306640625 768 c 0,34,35
 523.306640625 768 523.306640625 768 537.919921875 749 c 256,36,37
 552.534179688 730 552.534179688 730 546.53125 704 c 0,38,39
 540.297851562 677 540.297851562 677 516.911132812 658 c 0,40,41
 493.755859375 640 493.755859375 640 467.755859375 640 c 1,42,-1
 467.755859375 640 l 1,26,27
EndSplineSet
Validated: 37
EndChar

StartChar: longs
Encoding: 383 383 195
Width: 384
Flags: W
LayerCount: 2
Back
Fore
SplineSet
0 0 m 1,0,-1
 103.428710938 448 l 1,1,-1
 150.204101562 512 l 1,2,-1
 189.592773438 544 l 1,3,-1
 260.98046875 576 l 1,4,-1
 388.98046875 576 l 1,5,-1
 374.204101562 512 l 1,6,-1
 246.204101562 512 l 1,7,-1
 198.125 490 l 1,8,-1
 167.428710938 448 l 1,9,-1
 64 0 l 1,10,-1
 0 0 l 1,0,-1
EndSplineSet
Validated: 1
EndChar

StartChar: florin
Encoding: 402 402 196
Width: 448
Flags: W
LayerCount: 2
Back
Fore
SplineSet
-93.55078125 -128 m 1,0,-1
 -78.775390625 -64 l 1,1,-1
 -14.775390625 -64 l 1,2,-1
 32.3037109375 -42 l 1,3,-1
 64 0 l 1,4,-1
 152.653320312 384 l 1,5,-1
 88.6533203125 384 l 1,6,-1
 103.428710938 448 l 1,7,-1
 167.428710938 448 l 1,8,-1
 214.204101562 512 l 1,9,-1
 253.592773438 544 l 1,10,-1
 324.98046875 576 l 1,11,-1
 452.98046875 576 l 1,12,-1
 438.204101562 512 l 1,13,-1
 310.204101562 512 l 1,14,-1
 262.125 490 l 1,15,-1
 231.428710938 448 l 1,16,-1
 359.428710938 448 l 1,17,-1
 344.653320312 384 l 1,18,-1
 216.653320312 384 l 1,19,-1
 128 0 l 1,20,-1
 81.224609375 -64 l 1,21,-1
 41.8369140625 -96 l 1,22,-1
 -29.55078125 -128 l 1,23,-1
 -93.55078125 -128 l 1,0,-1
EndSplineSet
Validated: 1
EndChar

StartChar: uni1E9E
Encoding: 7838 7838 197
Width: 512
Flags: W
LayerCount: 2
Back
Fore
SplineSet
147.672851562 -192 m 1,0,-1
 162.44921875 -128 l 1,1,-1
 226.44921875 -128 l 2,2,3
 252.44921875 -128 252.44921875 -128 275.834960938 -109 c 256,4,5
 299.221679688 -90 299.221679688 -90 305.224609375 -64 c 0,6,7
 311.458007812 -37 311.458007812 -37 296.844726562 -18 c 0,8,9
 282 0 282 0 256 0 c 2,10,-1
 128 0 l 1,11,-1
 361.877929688 320 l 1,12,-1
 137.877929688 320 l 1,13,-1
 64 0 l 1,14,-1
 0 0 l 1,15,-1
 103.428710938 448 l 1,16,-1
 150.204101562 512 l 1,17,-1
 189.592773438 544 l 1,18,-1
 260.98046875 576 l 1,19,-1
 388.98046875 576 l 1,20,-1
 374.204101562 512 l 1,21,-1
 246.204101562 512 l 1,22,-1
 198.125 490 l 1,23,-1
 167.428710938 448 l 1,24,-1
 152.653320312 384 l 1,25,-1
 472.653320312 384 l 1,26,-1
 238.775390625 64 l 1,27,-1
 270.775390625 64 l 1,28,-1
 327.387695312 32 l 1,29,-1
 352 0 l 1,30,-1
 369.224609375 -64 l 1,31,-1
 322.44921875 -128 l 1,32,-1
 283.061523438 -160 l 1,33,-1
 211.672851562 -192 l 1,34,-1
 147.672851562 -192 l 1,0,-1
EndSplineSet
Validated: 33
EndChar

StartChar: emdash
Encoding: 8212 8212 198
Width: 640
Flags: W
LayerCount: 2
Back
Fore
SplineSet
59.1025390625 256 m 1,0,-1
 73.8779296875 320 l 1,1,-1
 585.877929688 320 l 1,2,-1
 571.102539062 256 l 1,3,-1
 59.1025390625 256 l 1,0,-1
EndSplineSet
Validated: 1
EndChar

StartChar: quoteleft
Encoding: 8216 8216 199
Width: 256
Flags: W
LayerCount: 2
Back
Fore
SplineSet
88.6533203125 384 m 1,0,-1
 118.204101562 512 l 1,1,-1
 196.98046875 576 l 1,2,-1
 228.98046875 576 l 1,3,-1
 182.204101562 512 l 1,4,-1
 152.653320312 384 l 1,5,-1
 88.6533203125 384 l 1,0,-1
EndSplineSet
Validated: 1
EndChar

StartChar: quoteright
Encoding: 8217 8217 200
Width: 256
Flags: W
LayerCount: 2
Back
Fore
SplineSet
120.653320312 384 m 1,0,-1
 167.428710938 448 l 1,1,-1
 196.98046875 576 l 1,2,-1
 260.98046875 576 l 1,3,-1
 231.428710938 448 l 1,4,-1
 152.653320312 384 l 1,5,-1
 120.653320312 384 l 1,0,-1
EndSplineSet
Validated: 1
EndChar

StartChar: quotesinglbase
Encoding: 8218 8218 201
Width: 256
Flags: W
LayerCount: 2
Back
Fore
SplineSet
17.224609375 -64 m 1,0,-1
 64 0 l 1,1,-1
 93.55078125 128 l 1,2,-1
 157.55078125 128 l 1,3,-1
 128 0 l 1,4,-1
 49.224609375 -64 l 1,5,-1
 17.224609375 -64 l 1,0,-1
EndSplineSet
Validated: 1
EndChar

StartChar: quotereversed
Encoding: 8219 8219 202
Width: 256
Flags: W
LayerCount: 2
Back
Fore
SplineSet
167.428710938 448 m 1,0,-1
 118.204101562 512 l 1,1,-1
 147.755859375 640 l 1,2,-1
 211.755859375 640 l 1,3,-1
 182.204101562 512 l 1,4,-1
 199.428710938 448 l 1,5,-1
 167.428710938 448 l 1,0,-1
EndSplineSet
Validated: 1
EndChar

StartChar: quotedblleft
Encoding: 8220 8220 203
Width: 448
Flags: W
LayerCount: 2
Back
Fore
SplineSet
88.6533203125 384 m 1,0,-1
 118.204101562 512 l 1,1,-1
 196.98046875 576 l 1,2,-1
 228.98046875 576 l 1,3,-1
 182.204101562 512 l 1,4,-1
 152.653320312 384 l 1,5,-1
 88.6533203125 384 l 1,0,-1
280.653320312 384 m 1,6,-1
 310.204101562 512 l 1,7,-1
 388.98046875 576 l 1,8,-1
 420.98046875 576 l 1,9,-1
 374.204101562 512 l 1,10,-1
 344.653320312 384 l 1,11,-1
 280.653320312 384 l 1,6,-1
EndSplineSet
Validated: 1
EndChar

StartChar: quotedblright
Encoding: 8221 8221 204
Width: 448
Flags: W
LayerCount: 2
Back
Fore
SplineSet
120.653320312 384 m 1,0,-1
 167.428710938 448 l 1,1,-1
 196.98046875 576 l 1,2,-1
 260.98046875 576 l 1,3,-1
 231.428710938 448 l 1,4,-1
 152.653320312 384 l 1,5,-1
 120.653320312 384 l 1,0,-1
312.653320312 384 m 1,6,-1
 359.428710938 448 l 1,7,-1
 388.98046875 576 l 1,8,-1
 452.98046875 576 l 1,9,-1
 423.428710938 448 l 1,10,-1
 344.653320312 384 l 1,11,-1
 312.653320312 384 l 1,6,-1
EndSplineSet
Validated: 1
EndChar

StartChar: quotedblbase
Encoding: 8222 8222 205
Width: 384
Flags: W
LayerCount: 2
Back
Fore
SplineSet
17.224609375 -64 m 1,0,-1
 64 0 l 1,1,-1
 93.55078125 128 l 1,2,-1
 157.55078125 128 l 1,3,-1
 128 0 l 1,4,-1
 49.224609375 -64 l 1,5,-1
 17.224609375 -64 l 1,0,-1
145.224609375 -64 m 1,6,-1
 192 0 l 1,7,-1
 221.55078125 128 l 1,8,-1
 285.55078125 128 l 1,9,-1
 256 0 l 1,10,-1
 177.224609375 -64 l 1,11,-1
 145.224609375 -64 l 1,6,-1
EndSplineSet
Validated: 1
EndChar

StartChar: dagger
Encoding: 8224 8224 206
Width: 448
Flags: W
LayerCount: 2
Back
Fore
SplineSet
142.775390625 64 m 1,0,-1
 216.653320312 384 l 1,1,-1
 88.6533203125 384 l 1,2,-1
 103.428710938 448 l 1,3,-1
 231.428710938 448 l 1,4,-1
 260.98046875 576 l 1,5,-1
 324.98046875 576 l 1,6,-1
 295.428710938 448 l 1,7,-1
 423.428710938 448 l 1,8,-1
 408.653320312 384 l 1,9,-1
 280.653320312 384 l 1,10,-1
 206.775390625 64 l 1,11,-1
 142.775390625 64 l 1,0,-1
EndSplineSet
Validated: 1
EndChar

StartChar: bullet
Encoding: 8226 8226 207
Width: 384
Flags: W
LayerCount: 2
Back
Fore
SplineSet
172.327148438 192 m 1,0,-1
 115.71484375 224 l 1,1,-1
 91.1025390625 256 l 1,2,-1
 73.8779296875 320 l 1,3,-1
 120.653320312 384 l 1,4,-1
 160.041015625 416 l 1,5,-1
 231.428710938 448 l 1,6,-1
 288.041015625 416 l 1,7,-1
 312.653320312 384 l 1,8,-1
 329.877929688 320 l 1,9,-1
 283.102539062 256 l 1,10,-1
 243.71484375 224 l 1,11,-1
 172.327148438 192 l 1,12,-1
 172.327148438 192 l 1,0,-1
EndSplineSet
Validated: 5
EndChar

StartChar: ellipsis
Encoding: 8230 8230 208
Width: 576
Flags: W
LayerCount: 2
Back
Fore
SplineSet
0 0 m 1,0,-1
 29.55078125 128 l 1,1,-1
 93.55078125 128 l 1,2,-1
 64 0 l 1,3,-1
 0 0 l 1,0,-1
192 0 m 1,4,-1
 221.55078125 128 l 1,5,-1
 285.55078125 128 l 1,6,-1
 256 0 l 1,7,-1
 192 0 l 1,4,-1
384 0 m 1,8,-1
 413.55078125 128 l 1,9,-1
 477.55078125 128 l 1,10,-1
 448 0 l 1,11,-1
 384 0 l 1,8,-1
EndSplineSet
Validated: 1
EndChar

StartChar: guilsinglleft
Encoding: 8249 8249 209
Width: 320
Flags: W
LayerCount: 2
Back
Fore
SplineSet
110.775390625 64 m 1,0,-1
 59.1025390625 256 l 1,1,-1
 199.428710938 448 l 1,2,-1
 263.428710938 448 l 1,3,-1
 123.102539062 256 l 1,4,-1
 174.775390625 64 l 1,5,-1
 110.775390625 64 l 1,0,-1
EndSplineSet
Validated: 1
EndChar

StartChar: guilsinglright
Encoding: 8250 8250 210
Width: 320
Flags: W
LayerCount: 2
Back
Fore
SplineSet
46.775390625 64 m 1,0,-1
 187.102539062 256 l 1,1,-1
 135.428710938 448 l 1,2,-1
 199.428710938 448 l 1,3,-1
 251.102539062 256 l 1,4,-1
 110.775390625 64 l 1,5,-1
 46.775390625 64 l 1,0,-1
EndSplineSet
Validated: 1
EndChar

StartChar: Euro
Encoding: 8364 8364 211
Width: 576
Flags: W
LayerCount: 2
Back
Fore
SplineSet
256 0 m 1,0,-1
 142.775390625 64 l 1,1,-1
 108.327148438 192 l 1,2,-1
 44.3271484375 192 l 1,3,-1
 59.1025390625 256 l 1,4,-1
 123.102539062 256 l 1,5,-1
 137.877929688 320 l 1,6,-1
 73.8779296875 320 l 1,7,-1
 88.6533203125 384 l 1,8,-1
 152.653320312 384 l 1,9,-1
 246.204101562 512 l 1,10,-1
 388.98046875 576 l 1,11,-1
 502.204101562 512 l 1,12,-1
 519.428710938 448 l 1,13,-1
 455.428710938 448 l 1,14,-1
 430.81640625 480 l 1,15,-1
 374.204101562 512 l 1,16,-1
 302.81640625 480 l 1,17,-1
 263.428710938 448 l 1,18,-1
 216.653320312 384 l 1,19,-1
 344.653320312 384 l 1,20,-1
 329.877929688 320 l 1,21,-1
 201.877929688 320 l 1,22,-1
 187.102539062 256 l 1,23,-1
 315.102539062 256 l 1,24,-1
 300.327148438 192 l 1,25,-1
 172.327148438 192 l 1,26,-1
 189.55078125 128 l 1,27,-1
 214.163085938 96 l 1,28,-1
 270.775390625 64 l 1,29,-1
 342.163085938 96 l 1,30,-1
 381.55078125 128 l 1,31,-1
 445.55078125 128 l 1,32,-1
 398.775390625 64 l 1,33,-1
 256 0 l 1,34,-1
 256 0 l 1,0,-1
EndSplineSet
Validated: 5
EndChar

StartChar: trademark
Encoding: 8482 8482 212
Width: 640
Flags: W
LayerCount: 2
Back
Fore
SplineSet
152.653320312 384 m 1,0,-1
 182.204101562 512 l 1,1,-1
 118.204101562 512 l 1,2,-1
 132.98046875 576 l 1,3,-1
 324.98046875 576 l 1,4,-1
 310.204101562 512 l 1,5,-1
 246.204101562 512 l 1,6,-1
 216.653320312 384 l 1,7,-1
 152.653320312 384 l 1,0,-1
344.653320312 384 m 1,8,-1
 388.98046875 576 l 1,9,-1
 487.428710938 448 l 1,10,-1
 644.98046875 576 l 1,11,-1
 600.653320312 384 l 1,12,-1
 536.653320312 384 l 1,13,-1
 551.428710938 448 l 1,14,-1
 472.653320312 384 l 1,15,-1
 423.428710938 448 l 1,16,-1
 408.653320312 384 l 1,17,-1
 344.653320312 384 l 1,8,-1
EndSplineSet
Validated: 1
EndChar

StartChar: uniFB00
Encoding: 64256 64256 213
Width: 704
Flags: W
LayerCount: 2
Back
Fore
SplineSet
64 0 m 1,0,-1
 152.653320312 384 l 1,1,-1
 88.6533203125 384 l 1,2,-1
 103.428710938 448 l 1,3,-1
 167.428710938 448 l 1,4,-1
 214.204101562 512 l 1,5,-1
 253.592773438 544 l 1,6,-1
 324.98046875 576 l 1,7,-1
 452.98046875 576 l 1,8,-1
 438.204101562 512 l 1,9,-1
 310.204101562 512 l 1,10,-1
 262.125 490 l 1,11,-1
 231.428710938 448 l 1,12,-1
 423.428710938 448 l 1,13,-1
 470.204101562 512 l 1,14,-1
 509.592773438 544 l 1,15,-1
 580.98046875 576 l 1,16,-1
 708.98046875 576 l 1,17,-1
 694.204101562 512 l 1,18,-1
 566.204101562 512 l 1,19,-1
 518.125 490 l 1,20,-1
 487.428710938 448 l 1,21,-1
 615.428710938 448 l 1,22,-1
 600.653320312 384 l 1,23,-1
 472.653320312 384 l 1,24,-1
 384 0 l 1,25,-1
 320 0 l 1,26,-1
 408.653320312 384 l 1,27,-1
 216.653320312 384 l 1,28,-1
 128 0 l 1,29,-1
 64 0 l 1,0,-1
EndSplineSet
Validated: 1
EndChar

StartChar: uniFB01
Encoding: 64257 64257 214
Width: 448
Flags: W
LayerCount: 2
Back
Fore
SplineSet
64 0 m 1,0,-1
 152.653320312 384 l 1,1,-1
 88.6533203125 384 l 1,2,-1
 103.428710938 448 l 1,3,-1
 167.428710938 448 l 1,4,-1
 214.204101562 512 l 1,5,-1
 253.592773438 544 l 1,6,-1
 324.98046875 576 l 1,7,-1
 452.98046875 576 l 1,8,-1
 438.204101562 512 l 1,9,-1
 310.204101562 512 l 1,10,-1
 262.125 490 l 1,11,-1
 231.428710938 448 l 1,12,-1
 423.428710938 448 l 1,13,-1
 320 0 l 1,14,-1
 256 0 l 1,15,-1
 344.653320312 384 l 1,16,-1
 216.653320312 384 l 1,17,-1
 128 0 l 1,18,-1
 64 0 l 1,0,-1
EndSplineSet
Validated: 1
EndChar

StartChar: uniFB02
Encoding: 64258 64258 215
Width: 512
Flags: W
LayerCount: 2
Back
Fore
SplineSet
64 0 m 1,0,-1
 152.653320312 384 l 1,1,-1
 88.6533203125 384 l 1,2,-1
 103.428710938 448 l 1,3,-1
 167.428710938 448 l 1,4,-1
 214.204101562 512 l 1,5,-1
 253.592773438 544 l 1,6,-1
 324.98046875 576 l 1,7,-1
 516.98046875 576 l 1,8,-1
 384 0 l 1,9,-1
 320 0 l 1,10,-1
 438.204101562 512 l 1,11,-1
 310.204101562 512 l 1,12,-1
 262.125 490 l 1,13,-1
 231.428710938 448 l 1,14,-1
 359.428710938 448 l 1,15,-1
 344.653320312 384 l 1,16,-1
 216.653320312 384 l 1,17,-1
 128 0 l 1,18,-1
 64 0 l 1,0,-1
EndSplineSet
Validated: 1
EndChar

StartChar: uniFB03
Encoding: 64259 64259 216
Width: 704
Flags: W
LayerCount: 2
Back
Fore
SplineSet
64 0 m 1,0,-1
 152.653320312 384 l 1,1,-1
 88.6533203125 384 l 1,2,-1
 103.428710938 448 l 1,3,-1
 167.428710938 448 l 1,4,-1
 214.204101562 512 l 1,5,-1
 253.592773438 544 l 1,6,-1
 324.98046875 576 l 1,7,-1
 452.98046875 576 l 1,8,-1
 438.204101562 512 l 1,9,-1
 310.204101562 512 l 1,10,-1
 262.125 490 l 1,11,-1
 231.428710938 448 l 1,12,-1
 423.428710938 448 l 1,13,-1
 470.204101562 512 l 1,14,-1
 509.592773438 544 l 1,15,-1
 580.98046875 576 l 1,16,-1
 708.98046875 576 l 1,17,-1
 694.204101562 512 l 1,18,-1
 566.204101562 512 l 1,19,-1
 518.125 490 l 1,20,-1
 487.428710938 448 l 1,21,-1
 679.428710938 448 l 1,22,-1
 576 0 l 1,23,-1
 512 0 l 1,24,-1
 600.653320312 384 l 1,25,-1
 472.653320312 384 l 1,26,-1
 384 0 l 1,27,-1
 320 0 l 1,28,-1
 408.653320312 384 l 1,29,-1
 216.653320312 384 l 1,30,-1
 128 0 l 1,31,-1
 64 0 l 1,0,-1
EndSplineSet
Validated: 1
EndChar

StartChar: uniFB04
Encoding: 64260 64260 217
Width: 768
Flags: W
LayerCount: 2
Back
Fore
SplineSet
64 0 m 1,0,-1
 152.653320312 384 l 1,1,-1
 88.6533203125 384 l 1,2,-1
 103.428710938 448 l 1,3,-1
 167.428710938 448 l 1,4,-1
 214.204101562 512 l 1,5,-1
 253.592773438 544 l 1,6,-1
 324.98046875 576 l 1,7,-1
 452.98046875 576 l 1,8,-1
 438.204101562 512 l 1,9,-1
 310.204101562 512 l 1,10,-1
 262.125 490 l 1,11,-1
 231.428710938 448 l 1,12,-1
 423.428710938 448 l 1,13,-1
 470.204101562 512 l 1,14,-1
 509.592773438 544 l 1,15,-1
 580.98046875 576 l 1,16,-1
 772.98046875 576 l 1,17,-1
 640 0 l 1,18,-1
 576 0 l 1,19,-1
 694.204101562 512 l 1,20,-1
 566.204101562 512 l 1,21,-1
 518.125 490 l 1,22,-1
 487.428710938 448 l 1,23,-1
 615.428710938 448 l 1,24,-1
 600.653320312 384 l 1,25,-1
 472.653320312 384 l 1,26,-1
 384 0 l 1,27,-1
 320 0 l 1,28,-1
 408.653320312 384 l 1,29,-1
 216.653320312 384 l 1,30,-1
 128 0 l 1,31,-1
 64 0 l 1,0,-1
EndSplineSet
Validated: 1
EndChar

StartChar: uniFB06
Encoding: 64262 64262 218
Width: 704
Flags: W
LayerCount: 2
Back
Fore
SplineSet
0 0 m 1,0,-1
 14.775390625 64 l 1,1,-1
 206.775390625 64 l 1,2,-1
 253.624023438 85 l 1,3,-1
 285.55078125 128 l 1,4,-1
 273.248046875 170 l 1,5,-1
 236.327148438 192 l 1,6,-1
 172.327148438 192 l 1,7,-1
 115.71484375 224 l 1,8,-1
 91.1025390625 256 l 1,9,-1
 73.8779296875 320 l 1,10,-1
 120.653320312 384 l 1,11,-1
 160.041015625 416 l 1,12,-1
 231.428710938 448 l 1,13,-1
 487.428710938 448 l 1,14,-1
 516.98046875 576 l 1,15,-1
 580.98046875 576 l 1,16,-1
 551.428710938 448 l 1,17,-1
 679.428710938 448 l 1,18,-1
 664.653320312 384 l 1,19,-1
 536.653320312 384 l 1,20,-1
 477.55078125 128 l 1,21,-1
 488.624023438 85 l 1,22,-1
 526.775390625 64 l 1,23,-1
 590.775390625 64 l 1,24,-1
 576 0 l 1,25,-1
 512 0 l 1,26,-1
 455.387695312 32 l 1,27,-1
 430.775390625 64 l 1,28,-1
 413.55078125 128 l 1,29,-1
 472.653320312 384 l 1,30,-1
 216.653320312 384 l 1,31,-1
 168.57421875 362 l 1,32,-1
 137.877929688 320 l 1,33,-1
 148.950195312 277 l 1,34,-1
 187.102539062 256 l 1,35,-1
 251.102539062 256 l 1,36,-1
 307.71484375 224 l 1,37,-1
 332.327148438 192 l 1,38,-1
 349.55078125 128 l 1,39,-1
 302.775390625 64 l 1,40,-1
 263.387695312 32 l 1,41,-1
 192 0 l 1,42,-1
 0 0 l 1,0,-1
EndSplineSet
Validated: 1
EndChar
